<?xml version="1.0" encoding="utf-8"?>
<!-- Generator: Adobe Illustrator 25.2.1, SVG Export Plug-In . SVG Version: 6.00 Build 0)  -->
<svg version="1.1" id="Capa_1" xmlns="http://www.w3.org/2000/svg" xmlns:xlink="http://www.w3.org/1999/xlink" x="0px" y="0px"
	 width="24px" height="24px" viewBox="0 0 24 24" style="enable-background:new 0 0 24 24;" xml:space="preserve">
<style type="text/css">
	.st0{fill:#D2D2D2;}
</style>
<g>
	<path class="st0" d="M10.7,14.6c-0.1,0-0.2,0-0.2,0l-3.1-0.9l0,0c-0.6-0.2-0.7-0.4-0.8-0.6c0-0.1-0.1-0.1-0.2-0.2l-3.8-1.1
		c-0.1,0-0.3-0.1-0.3-0.2L2,11.2c0,0-0.1-0.1-0.1-0.1c-0.2,0-0.4-0.1-0.4-0.3l-0.2-0.3c0,0-0.1-0.1-0.1-0.1c-0.1,0-0.3-0.1-0.3-0.2
		L0.7,10c-0.1-0.1-0.1-0.2,0-0.4C0.8,9.5,0.9,9.4,1,9.4h9.1c0.2,0,0.5,0.1,0.6,0.2C10.9,9.8,11,10,11,10.1c0,0,0,0,0.1,0h1.8
		c0,0,0.1,0,0.1,0c0.1-0.4,0.5-0.7,0.9-0.7H23c0.1,0,0.2,0.1,0.3,0.2l0,0c0,0,0,0.1,0,0.2c0,0.1,0,0.1-0.1,0.2l-0.2,0.3
		c-0.1,0.1-0.2,0.2-0.3,0.2c0,0-0.1,0-0.1,0.1l-0.2,0.3c-0.1,0.2-0.3,0.3-0.4,0.3c0,0-0.1,0-0.1,0.1l-0.2,0.4
		c-0.1,0.1-0.2,0.2-0.3,0.2l-3.8,1.1c-0.1,0-0.1,0.1-0.2,0.2c-0.1,0.2-0.2,0.4-0.8,0.6L15,14.1l-1.4,0.4c0,0-0.1,0-0.1,0l0,0
		c-0.2,0.1-0.5,0-0.7-0.1L12,13.7c0,0-0.1,0-0.1,0l0,0l0,0l-0.7,0.7l0,0C11.1,14.5,10.9,14.6,10.7,14.6 M12.3,13.6l0.5,0.5
		c0.1,0.1,0.1,0.1,0.2,0.2c0,0,0-0.1-0.1-0.2l-0.2-0.5C12.7,13.6,12.5,13.6,12.3,13.6 M11.2,13.6L11,14.1c0,0.1,0,0.1-0.1,0.2
		c0,0,0,0,0.1-0.1l0,0l0.6-0.6C11.5,13.6,11.3,13.6,11.2,13.6 M13,13.6l0.1,0.5c0,0.1,0.1,0.2,0.1,0.2c0,0,0.1,0,0.2,0l0.7-0.2
		C14.1,14,14.1,14,14,13.9l-0.3-0.5C13.5,13.5,13.2,13.5,13,13.6 M9.8,14.1l0.7,0.2c0.1,0,0.1,0,0.2,0c0.1-0.1,0.1-0.1,0.1-0.2l0,0
		l0.1-0.5c-0.2,0-0.5-0.1-0.7-0.2l-0.2,0.3L10,13.9C9.9,14,9.9,14,9.8,14.1 M13.9,13.3l0.3,0.5c0,0.1,0.2,0.2,0.2,0.2l0.8-0.2
		c0,0-0.1-0.1-0.1-0.1l-0.6-0.6C14.4,13.2,14.2,13.3,13.9,13.3 M9.6,14c0.1,0,0.2-0.1,0.2-0.2l0.3-0.5c-0.2-0.1-0.4-0.1-0.6-0.2
		l-0.5,0.5l0,0l0,0c0,0-0.1,0.1-0.1,0.1L9.6,14z M8.4,13.7c0.1,0,0.3-0.1,0.3-0.1L9.2,13c-0.2-0.1-0.4-0.2-0.5-0.3l-1,0.7
		c0,0,0,0-0.1,0L8.4,13.7z M14.8,13l0.5,0.5c0,0,0.2,0.2,0.3,0.1l0.7-0.2c0,0-0.1,0-0.1,0l-1-0.7C15.1,12.9,15,12.9,14.8,13
		 M12.1,11.8v1.6c0.2,0,0.4,0,0.7,0l-0.4-1.6L12.1,11.8z M11.2,13.4c0.2,0,0.4,0,0.7,0v-1.6h-0.2L11.2,13.4z M7.3,13.4
		c0.1,0,0.2,0,0.3-0.1l0.9-0.6c-0.2-0.1-0.4-0.2-0.5-0.4l-1,0.5l0,0l0,0c-0.1,0-0.1,0.1-0.2,0.1c0,0,0.1,0.1,0.1,0.1
		C6.8,13.1,6.9,13.2,7.3,13.4 M15.5,12.7l0.9,0.6c0.1,0.1,0.2,0.1,0.3,0.1c0.4-0.1,0.4-0.3,0.5-0.4c0,0,0-0.1,0.1-0.1
		c-0.1,0-0.1,0-0.2-0.1L16,12.3C15.8,12.4,15.7,12.5,15.5,12.7 M12.5,11.8l0.4,1.6c0.2,0,0.4-0.1,0.7-0.1l-0.9-1.4H12.5z M10.4,13.2
		c0.2,0.1,0.4,0.1,0.7,0.1l0.4-1.6h-0.3C11.1,12,10.7,12.7,10.4,13.2 M9.6,13c0.2,0.1,0.4,0.2,0.6,0.2l0.8-1.4h-0.3L9.6,13z
		 M13,11.8l0.8,1.4c0.2-0.1,0.4-0.1,0.6-0.2l-1.1-1.2L13,11.8z M13.6,11.8l1.1,1.1c0.2-0.1,0.3-0.2,0.5-0.2l-1.2-0.9H13.6z
		 M8.9,12.6c0.2,0.1,0.3,0.2,0.5,0.2l1.1-1.1h-0.3L8.9,12.6 M16.2,12.1l1,0.5c0.1,0.1,0.2,0.1,0.4,0.1l0.9-0.3l-1.9-0.6
		C16.5,11.9,16.3,12,16.2,12.1 M6.5,12.7c0.1,0,0.3,0,0.4-0.1l1-0.5c-0.1-0.1-0.3-0.2-0.4-0.3l-1.9,0.6l0.3,0.1L6.5,12.7 M14.3,11.8
		l1,0.7c0.2-0.1,0.3-0.2,0.5-0.4L15,11.8L14.3,11.8z M8.2,12.2c0.2,0.1,0.3,0.2,0.5,0.4l1-0.7H9L8.2,12.2z M5,12.2
		c0.1,0,0.3,0,0.4,0l1.8-0.6c-0.1-0.1-0.1-0.1-0.2-0.2L4.2,12h0L5,12.2z M18.5,12.2L18.5,12.2c0.1,0,0.3,0.1,0.4,0l0.8-0.2l-2.8-0.6
		c-0.1,0.1-0.1,0.2-0.2,0.2L18.5,12.2z M15.5,11.8L16,12c0,0,0.2-0.2,0.3-0.3H15.5z M7.7,11.8C7.8,11.9,7.9,12,8,12l0.5-0.3H7.7z
		 M19.8,11.8c0.2,0,0.4,0.1,0.5,0l0.7-0.2l-3.9-0.5c0,0-0.1,0.1-0.1,0.2l0.9,0.2C19.5,11.7,19.8,11.8,19.8,11.8L19.8,11.8z
		 M3.6,11.8c0.2,0,0.4,0,0.5,0l2.7-0.6l-0.1-0.2l-3.9,0.5L3.6,11.8z M7.6,10.3v1.3h8.9v-1.3L7.6,10.3z M16.6,11.3v0.2l0.1-0.1
		L16.6,11.3z M7.2,11.3c0,0,0.1,0.1,0.1,0.1v-0.2L7.2,11.3z M2.5,11.4c0,0,0,0,0.2,0l4-0.5l-0.1-0.2L2.2,11l0,0L2.5,11.4z
		 M17.4,10.9l4,0.5c0.1,0,0.2,0,0.2,0l0.2-0.3l0-0.1l0,0l0,0l-4.3-0.3L17.4,10.9 M16.6,11.1l0.3,0.1l0.1-0.2L16.6,11L16.6,11.1z
		 M7,11c0,0.1,0.1,0.1,0.1,0.2l0.3-0.1V11L7,11z M16.6,10.8l0.5,0.1c0,0,0.1-0.1,0.1-0.2l-0.7,0L16.6,10.8z M6.7,10.7l0.1,0.2
		l0.5-0.1v-0.1L6.7,10.7z M1.9,10.8c0.1,0,0.2,0,0.3,0l4.2-0.3c0-0.1-0.1-0.1-0.1-0.2H1.5c0,0,0.1,0.1,0.1,0.2l0.1,0.1
		C1.7,10.8,1.8,10.8,1.9,10.8 M17.6,10.6l4.2,0.3c0.1,0,0.2,0,0.4,0c0.1,0,0.1-0.1,0.1-0.1l0.2-0.3h-4.7
		C17.7,10.4,17.7,10.5,17.6,10.6 M16.7,10.5l0.8,0l0.1-0.2h-0.9V10.5z M6.5,10.4c0,0,0.1,0.1,0.1,0.2l0.8,0v-0.1H6.5z M23,9.7h-4.6
		c-0.2,0-0.4,0.1-0.5,0.3c0,0.1-0.1,0.1-0.1,0.2h4.9c0.1,0,0.1,0,0.1-0.1c0,0,0.2-0.3,0.2-0.3c0,0,0-0.1,0-0.1c0,0,0,0,0,0
		C23.1,9.7,23,9.7,23,9.7 M13.2,10.2h4.4c0.1-0.1,0.1-0.2,0.2-0.3c0-0.1,0.1-0.1,0.2-0.2h-4.1c-0.2,0-0.4,0-0.5,0.2
		C13.3,9.9,13.2,10.1,13.2,10.2 M6.4,10.2h4.4c0-0.1-0.1-0.2-0.2-0.3c-0.1-0.1-0.3-0.2-0.5-0.2H6.1c0.1,0.1,0.1,0.1,0.2,0.2
		C6.2,9.9,6.3,10.1,6.4,10.2 M1.2,10.2h4.9C6.1,10.1,6.1,10,6,10c0,0-0.2-0.3-0.5-0.3H1c-0.1,0-0.1,0.1-0.1,0.1c0,0,0,0.1,0,0.1
		l0.1,0.2c0,0,0,0,0,0l0,0C1.1,10.2,1.1,10.2,1.2,10.2"/>
	<path class="st0" d="M8.3,11.4L8.3,11.4c0-0.1-0.1-0.2-0.1-0.3H8v0c0,0.1-0.1,0.2-0.1,0.3v0H7.7l0.4-0.9h0.1l0.4,0.9H8.3 M8.2,11
		l-0.1-0.2L8,11H8.2z"/>
	<path class="st0" d="M8.8,11.4c-0.1,0-0.2,0-0.2-0.1l0,0v0l0-0.1h0v0C8.7,11.3,8.7,11.3,8.8,11.4c0.1-0.1,0.2-0.2,0.2-0.2v0
		c0-0.1-0.1-0.1-0.2-0.1S8.6,11,8.6,10.8c0-0.1,0.1-0.2,0.3-0.2c0,0,0,0,0,0h0c0.1,0,0.1,0,0.2,0.1l0,0v0l0,0.1h0v0
		c0-0.1-0.1-0.1-0.1-0.1c-0.1,0-0.1,0-0.1,0.1l0,0c0,0.1,0.1,0.1,0.2,0.2c0.1,0,0.2,0.1,0.2,0.2C9.1,11.3,9,11.4,8.8,11.4
		C8.8,11.4,8.8,11.4,8.8,11.4L8.8,11.4"/>
	<path class="st0" d="M9.4,11.4v-0.8c-0.1,0-0.2,0-0.2,0h0v-0.1h0.7v0.1h0c-0.1,0-0.1,0-0.2,0v0.8L9.4,11.4"/>
	<path class="st0" d="M10.2,11.4c-0.2,0-0.4-0.2-0.5-0.4c0,0,0,0,0,0c0-0.2,0.2-0.4,0.4-0.4h0c0.2,0,0.5,0.1,0.5,0.4
		C10.7,11.2,10.5,11.4,10.2,11.4C10.2,11.4,10.2,11.4,10.2,11.4L10.2,11.4 M10.2,10.6c-0.2,0-0.3,0.1-0.3,0.4c0,0.2,0.1,0.3,0.3,0.3
		c0,0,0,0,0,0h0c0.1,0,0.2,0,0.2-0.1c0.1-0.1,0.1-0.2,0.1-0.3v0c0-0.1,0-0.2-0.1-0.2C10.4,10.7,10.3,10.6,10.2,10.6"/>
	<path class="st0" d="M11.5,11.4L11.5,11.4L11.5,11.4l-0.5-0.6v0.6h-0.1v-0.9h0.1l0.5,0.6v-0.6h0.1L11.5,11.4L11.5,11.4"/>
	<path class="st0" d="M12.8,11.4L12.8,11.4c0-0.2,0-0.4,0-0.6c-0.1,0.2-0.2,0.4-0.3,0.5v0h0l-0.1-0.1c0-0.1-0.2-0.3-0.2-0.4v0.1
		c0,0.2,0,0.3,0,0.5v0H12v0c0-0.2,0.1-0.7,0.1-0.8v0h0.1v0c0.1,0.2,0.2,0.4,0.3,0.6l0.1-0.2l0.2-0.4h0.1v0c0,0.3,0.1,0.6,0.1,0.8v0
		L12.8,11.4"/>
	<path class="st0" d="M13.7,11.4L13.7,11.4c0-0.1-0.1-0.2-0.1-0.3h-0.3c0,0.1-0.1,0.2-0.1,0.3v0H13l0.4-0.9h0.1l0,0l0.4,0.9H13.7
		 M13.5,11l-0.1-0.2L13.3,11H13.5z"/>
	<path class="st0" d="M14.4,11.4L14.4,11.4l-0.1-0.1c0-0.1-0.1-0.1-0.1-0.2l0,0L14.1,11h0v0.4h-0.2v-0.9h0.3c0.2,0,0.3,0.1,0.3,0.2
		c0,0.1-0.1,0.2-0.2,0.2l0.3,0.4H14.4 M14,10.9L14,10.9c0.1,0,0.1,0,0.1,0c0.1,0,0.1-0.1,0.1-0.1c0-0.1,0-0.1-0.1-0.1c0,0,0,0,0,0
		l0,0c0,0,0,0-0.1,0h-0.1L14,10.9z"/>
	<path class="st0" d="M14.8,11.4v-0.8c-0.1,0-0.2,0-0.2,0h0v-0.1h0.7v0.1h0c-0.1,0-0.1,0-0.2,0v0.8L14.8,11.4"/>
	<rect x="15.3" y="10.6" class="st0" width="0.1" height="0.9"/>
	<path class="st0" d="M16.2,11.4L16.2,11.4l-0.5-0.6v0.6h-0.1v-0.9h0.1l0.5,0.6v-0.6h0.1L16.2,11.4L16.2,11.4"/>
</g>
</svg>
