<?xml version="1.0" encoding="utf-8"?>
<!-- Generator: Adobe Illustrator 25.2.1, SVG Export Plug-In . SVG Version: 6.00 Build 0)  -->
<svg version="1.1" id="Capa_1" xmlns="http://www.w3.org/2000/svg" xmlns:xlink="http://www.w3.org/1999/xlink" x="0px" y="0px"
	 width="24px" height="24px" viewBox="0 0 24 24" style="enable-background:new 0 0 24 24;" xml:space="preserve">
<style type="text/css">
	.st0{clip-path:url(#SVGID_2_);}
	.st1{fill-rule:evenodd;clip-rule:evenodd;fill:#FFFFFF;}
	.st2{fill:#FFFFFF;}
	.st3{clip-path:url(#SVGID_4_);}
	.st4{fill:url(#SVGID_5_);}
	.st5{clip-path:url(#SVGID_7_);}
	.st6{fill:url(#SVGID_8_);}
	.st7{clip-path:url(#SVGID_10_);}
	.st8{fill:url(#SVGID_11_);}
	.st9{clip-path:url(#SVGID_13_);}
	.st10{fill:url(#SVGID_14_);}
	.st11{clip-path:url(#SVGID_16_);}
	.st12{fill:#DEDFDB;}
	.st13{fill:#DADCD9;}
	.st14{fill:#D6D9D6;}
	.st15{fill:#D3D6D4;}
	.st16{fill:#CED2D1;}
	.st17{fill:#CBCFCF;}
	.st18{fill:#C7CCCB;}
	.st19{fill:#C3C9CA;}
	.st20{fill:#BFC6C7;}
	.st21{fill:#BCC3C4;}
	.st22{fill:#B8BFC1;}
	.st23{fill:#B4BDBF;}
	.st24{fill:#B1B9BC;}
	.st25{fill:#ADB7BA;}
	.st26{fill:#A9B3B7;}
	.st27{fill:#A6B0B4;}
	.st28{fill:#A2ADB1;}
	.st29{fill:#9FAAAF;}
	.st30{fill:#9BA7AB;}
	.st31{fill:#97A3A8;}
	.st32{fill:#94A0A6;}
	.st33{fill:#909EA3;}
	.st34{fill:#8D9AA0;}
	.st35{fill:#89979D;}
	.st36{fill:#86949A;}
	.st37{fill:#829097;}
	.st38{fill:#808E95;}
	.st39{fill:#7C8A91;}
	.st40{fill:#79888F;}
	.st41{fill:#75848B;}
	.st42{fill:#728189;}
	.st43{fill:#6E7F85;}
	.st44{fill:#6C7C83;}
	.st45{fill:#687980;}
	.st46{fill:#65767E;}
	.st47{fill:#61727A;}
	.st48{fill:#5E6F77;}
	.st49{fill:#5A6B73;}
	.st50{fill:#576971;}
	.st51{fill:#53656D;}
	.st52{fill:#4F6169;}
	.st53{fill:#4C5E66;}
	.st54{fill:#4A5B63;}
	.st55{fill:#465860;}
	.st56{fill:#42545C;}
	.st57{fill:#3F5159;}
	.st58{fill:#3C4E55;}
	.st59{fill:#394B52;}
	.st60{fill:#35474E;}
	.st61{fill:#32444B;}
	.st62{fill:#2E4047;}
	.st63{fill:#2B3D44;}
	.st64{fill:#273940;}
	.st65{fill:#24363D;}
	.st66{fill:#203239;}
	.st67{fill:#1D2F36;}
	.st68{fill:#182A31;}
	.st69{fill:#14272E;}
	.st70{fill:#102329;}
	.st71{fill:#0B1F26;}
	.st72{fill:#051A21;}
	.st73{fill:#00161D;}
	.st74{fill:#ECEEEB;}
	.st75{fill:#E9EBE8;}
	.st76{fill:#E4E7E5;}
	.st77{fill:#E0E4E3;}
	.st78{fill:#DCE1E0;}
	.st79{fill:#D8DDDD;}
	.st80{fill:#D5DADB;}
	.st81{fill:#D0D7D8;}
	.st82{fill:#CCD3D5;}
	.st83{fill:#C8D0D2;}
	.st84{fill:#C4CCCF;}
	.st85{fill:#C0C9CD;}
	.st86{fill:#BDC6CA;}
	.st87{fill:#B8C3C7;}
	.st88{fill:#B4BFC4;}
	.st89{fill:#B0BCC1;}
	.st90{fill:#ACB8BE;}
	.st91{fill:#A9B5BB;}
	.st92{fill:#A6B2B8;}
	.st93{fill:#A2AFB5;}
	.st94{fill:#9EABB2;}
	.st95{fill:#9AA8AF;}
	.st96{fill:#96A5AC;}
	.st97{fill:#92A1A8;}
	.st98{fill:#8E9DA5;}
	.st99{fill:#8B9BA2;}
	.st100{fill:#87979F;}
	.st101{fill:#83949C;}
	.st102{fill:#809098;}
	.st103{fill:#7D8D95;}
	.st104{fill:#798992;}
	.st105{fill:#75868E;}
	.st106{fill:#72828B;}
	.st107{fill:#6F8088;}
	.st108{fill:#6B7D85;}
	.st109{fill:#677A81;}
	.st110{fill:#64767F;}
	.st111{fill:#60727B;}
	.st112{fill:#5C6F77;}
	.st113{fill:#586B74;}
	.st114{fill:#556871;}
	.st115{fill:#51646D;}
	.st116{fill:#4E6169;}
	.st117{fill:#4A5D65;}
	.st118{fill:#475962;}
	.st119{fill:#43565E;}
	.st120{fill:#3F525A;}
	.st121{fill:#3D4F57;}
	.st122{fill:#394B54;}
	.st123{fill:#354850;}
	.st124{fill:#31444B;}
	.st125{fill:#2D4047;}
	.st126{fill:#293C43;}
	.st127{fill:#26383F;}
	.st128{fill:#23353C;}
	.st129{fill:#1E3138;}
	.st130{fill:#1A2C33;}
	.st131{fill:#15282F;}
	.st132{fill:#11242A;}
	.st133{clip-path:url(#SVGID_18_);}
	.st134{fill:url(#SVGID_19_);}
	.st135{clip-path:url(#SVGID_21_);}
	.st136{fill:url(#SVGID_22_);}
	.st137{clip-path:url(#SVGID_24_);}
	.st138{clip-path:url(#SVGID_26_);}
	.st139{fill:url(#SVGID_27_);}
	.st140{clip-path:url(#SVGID_29_);}
	.st141{fill:url(#SVGID_30_);}
	.st142{clip-path:url(#SVGID_32_);}
	.st143{fill:#0F2026;}
	.st144{fill:#102127;}
	.st145{fill:#132329;}
	.st146{fill:#15252A;}
	.st147{fill:#17272D;}
	.st148{fill:#19282E;}
	.st149{fill:#1A292F;}
	.st150{fill:#1C2B31;}
	.st151{fill:#1E2C32;}
	.st152{fill:#202F35;}
	.st153{fill:#213036;}
	.st154{fill:#233238;}
	.st155{fill:#253339;}
	.st156{fill:#26343A;}
	.st157{fill:#28363C;}
	.st158{fill:#2A373D;}
	.st159{fill:#2B383E;}
	.st160{fill:#2D3B40;}
	.st161{fill:#2E3C42;}
	.st162{fill:#303E44;}
	.st163{fill:#323F45;}
	.st164{fill:#334046;}
	.st165{fill:#354248;}
	.st166{fill:#364349;}
	.st167{fill:#37444A;}
	.st168{fill:#3A464C;}
	.st169{fill:#3B474D;}
	.st170{fill:#3D494F;}
	.st171{fill:#3E4A50;}
	.st172{fill:#3F4C51;}
	.st173{fill:#414E53;}
	.st174{fill:#424F54;}
	.st175{fill:#445055;}
	.st176{fill:#465257;}
	.st177{fill:#475358;}
	.st178{fill:#49555A;}
	.st179{fill:#4A565B;}
	.st180{fill:#4C575C;}
	.st181{fill:#4D595E;}
	.st182{fill:#4F5A5F;}
	.st183{fill:#505B60;}
	.st184{fill:#525D62;}
	.st185{fill:#535E63;}
	.st186{fill:#556065;}
	.st187{fill:#566166;}
	.st188{fill:#586267;}
	.st189{fill:#5A6469;}
	.st190{fill:#5B656A;}
	.st191{fill:#5D676B;}
	.st192{fill:#5E686C;}
	.st193{fill:#60696D;}
	.st194{fill:#626B6F;}
	.st195{fill:#636C70;}
	.st196{fill:#656E72;}
	.st197{fill:#676F73;}
	.st198{fill:#687074;}
	.st199{fill:#6A7276;}
	.st200{fill:#6B7377;}
	.st201{fill:#6D7579;}
	.st202{fill:#6F767A;}
	.st203{fill:#70777B;}
	.st204{fill:#73797D;}
	.st205{fill:#576166;}
	.st206{fill:#566065;}
	.st207{fill:#555F64;}
	.st208{fill:#545E63;}
	.st209{fill:#525C61;}
	.st210{fill:#515C61;}
	.st211{fill:#4E595E;}
	.st212{fill:#4D585D;}
	.st213{fill:#4B565B;}
	.st214{fill:#4A555A;}
	.st215{fill:#495459;}
	.st216{fill:#485358;}
	.st217{fill:#465156;}
	.st218{fill:#455055;}
	.st219{fill:#434F54;}
	.st220{fill:#424E53;}
	.st221{fill:#414D52;}
	.st222{fill:#404C51;}
	.st223{fill:#3F4B50;}
	.st224{fill:#3E4A4F;}
	.st225{fill:#3D494E;}
	.st226{fill:#3B484D;}
	.st227{fill:#39464B;}
	.st228{fill:#38444A;}
	.st229{fill:#374349;}
	.st230{fill:#364248;}
	.st231{fill:#354147;}
	.st232{fill:#344046;}
	.st233{fill:#333F45;}
	.st234{fill:#313E44;}
	.st235{fill:#313D43;}
	.st236{fill:#303D43;}
	.st237{fill:#2F3C42;}
	.st238{fill:#2E3B41;}
	.st239{fill:#2D3A3F;}
	.st240{fill:#2C393E;}
	.st241{fill:#2B383D;}
	.st242{fill:#2A373C;}
	.st243{fill:#29373C;}
	.st244{fill:#28363B;}
	.st245{fill:#27343A;}
	.st246{fill:#263339;}
	.st247{fill:#253238;}
	.st248{fill:#233137;}
	.st249{fill:#223036;}
	.st250{fill:#212F35;}
	.st251{fill:#202E34;}
	.st252{fill:#1F2D32;}
	.st253{fill:#1E2C31;}
	.st254{fill:#02171E;}
	.st255{fill:#04191F;}
	.st256{fill:#061A21;}
	.st257{fill:#071C22;}
	.st258{fill:#091D23;}
	.st259{fill:#0B1E24;}
	.st260{fill:#0D1F26;}
	.st261{fill:#0E2127;}
	.st262{fill:#102228;}
	.st263{fill:#122329;}
	.st264{fill:#13242A;}
	.st265{fill:#14252C;}
	.st266{fill:#16262D;}
	.st267{fill:#18282E;}
	.st268{fill:#19292F;}
	.st269{fill:#1A2A30;}
	.st270{fill:#1B2B31;}
	.st271{fill:#1D2C32;}
	.st272{fill:#1E2D34;}
	.st273{fill:#1F2E35;}
	.st274{fill:#223137;}
	.st275{fill:#243339;}
	.st276{fill:#25343A;}
	.st277{fill:#27353B;}
	.st278{fill:#29373D;}
	.st279{fill:#2A383E;}
	.st280{fill:#2C393F;}
	.st281{fill:#2F3D43;}
	.st282{fill:#344147;}
	.st283{fill:#39454B;}
	.st284{fill:#3C494E;}
	.st285{fill:#444F54;}
	.st286{fill:#475257;}
	.st287{fill:#4B555A;}
	.st288{fill:#4C565B;}
	.st289{fill:#4D575C;}
	.st290{fill:#4E585D;}
	.st291{fill:#50595E;}
	.st292{fill:#515A5F;}
	.st293{fill:#525B60;}
	.st294{fill:#535C61;}
	.st295{clip-path:url(#SVGID_34_);}
	.st296{fill:url(#SVGID_35_);}
	.st297{clip-path:url(#SVGID_37_);}
	.st298{fill:url(#SVGID_38_);}
	.st299{clip-path:url(#SVGID_40_);}
	.st300{fill:url(#SVGID_41_);}
	.st301{clip-path:url(#SVGID_43_);}
	.st302{fill:url(#SVGID_44_);}
	.st303{clip-path:url(#SVGID_46_);}
	.st304{clip-path:url(#SVGID_48_);}
	.st305{fill:url(#SVGID_49_);}
	.st306{clip-path:url(#SVGID_51_);}
</style>
<g>
	<g>
		<defs>
			<rect id="SVGID_1_" x="0.4" y="0.4" width="23.3" height="23.3"/>
		</defs>
		<clipPath id="SVGID_2_">
			<use xlink:href="#SVGID_1_"  style="overflow:visible;"/>
		</clipPath>
		<g class="st0">
			<path class="st1" d="M12,23.6C5.6,23.6,0.4,18.4,0.4,12c0-3.1,1.2-6,3.4-8.2c4.5-4.5,11.9-4.5,16.4,0s4.5,11.9,0,16.4
				C18,22.4,15.1,23.6,12,23.6 M23.5,12c0,6.4-5.2,11.5-11.5,11.5S0.5,18.4,0.5,12S5.6,0.5,12,0.5C18.4,0.5,23.5,5.6,23.5,12
				L23.5,12"/>
			<path class="st2" d="M22.1,12c0,5.6-4.5,10.1-10.1,10.1S1.9,17.6,1.9,12S6.4,1.9,12,1.9c0,0,0,0,0,0C17.6,1.9,22.1,6.4,22.1,12
				 M12,22c5.5,0,10-4.5,10-10S17.5,2,12,2C6.5,2,2,6.5,2,12c0,2.6,1.1,5.2,2.9,7.1C6.8,20.9,9.4,22,12,22"/>
		</g>
	</g>
	<g>
		<defs>
			<path id="SVGID_3_" d="M1.9,12C1.9,6.4,6.4,1.9,12,1.9S22.1,6.4,22.1,12S17.6,22.1,12,22.1S1.9,17.6,1.9,12C1.9,12,1.9,12,1.9,12
				 M0.5,12c0,6.3,5.1,11.5,11.5,11.5c6.3,0,11.5-5.1,11.5-11.5c0-6.3-5.1-11.5-11.5-11.5C5.7,0.5,0.5,5.7,0.5,12
				C0.5,12,0.5,12,0.5,12"/>
		</defs>
		<clipPath id="SVGID_4_">
			<use xlink:href="#SVGID_3_"  style="overflow:visible;"/>
		</clipPath>
		<g class="st3">
			
				<linearGradient id="SVGID_5_" gradientUnits="userSpaceOnUse" x1="-678.396" y1="146.8813" x2="-678.2328" y2="146.8813" gradientTransform="matrix(99.0232 99.0232 -99.0232 99.0232 81725.6875 52636.375)">
				<stop  offset="0" style="stop-color:#0F2026"/>
				<stop  offset="3.000000e-02" style="stop-color:#0F2026"/>
				<stop  offset="0.17" style="stop-color:#3B454A"/>
				<stop  offset="0.5" style="stop-color:#B1B5B7"/>
				<stop  offset="0.83" style="stop-color:#DEDFDB"/>
				<stop  offset="0.97" style="stop-color:#FBFAF7"/>
				<stop  offset="0.97" style="stop-color:#FBFAF7"/>
				<stop  offset="1" style="stop-color:#FBFAF7"/>
			</linearGradient>
			<polygon class="st4" points="-11,12 12,-11 35,12 12,35 			"/>
		</g>
	</g>
	<g>
		<defs>
			<path id="SVGID_6_" d="M1.2,12C1.2,6,6,1.2,12,1.2S22.8,6,22.8,12S18,22.8,12,22.8S1.2,18,1.2,12L1.2,12 M0.5,12
				c0,6.3,5.1,11.5,11.5,11.5c6.3,0,11.5-5.1,11.5-11.5c0-6.3-5.1-11.5-11.5-11.5C5.7,0.5,0.5,5.7,0.5,12C0.5,12,0.5,12,0.5,12"/>
		</defs>
		<clipPath id="SVGID_7_">
			<use xlink:href="#SVGID_6_"  style="overflow:visible;"/>
		</clipPath>
		<g class="st5">
			
				<linearGradient id="SVGID_8_" gradientUnits="userSpaceOnUse" x1="-678.396" y1="146.8813" x2="-678.2328" y2="146.8813" gradientTransform="matrix(99.0232 99.0232 -99.0232 99.0232 81725.6875 52636.375)">
				<stop  offset="0" style="stop-color:#FBFAF7"/>
				<stop  offset="3.000000e-02" style="stop-color:#FBFAF7"/>
				<stop  offset="0.17" style="stop-color:#ECEEEB"/>
				<stop  offset="0.4" style="stop-color:#C2C4C5"/>
				<stop  offset="0.83" style="stop-color:#333E43"/>
				<stop  offset="0.97" style="stop-color:#485156"/>
				<stop  offset="0.97" style="stop-color:#485156"/>
				<stop  offset="1" style="stop-color:#485156"/>
			</linearGradient>
			<polygon class="st6" points="-11,12 12,-11 35,12 12,35 			"/>
		</g>
	</g>
	<g>
		<defs>
			<path id="SVGID_9_" d="M12,0.6c6.2-0.2,11.3,4.6,11.5,10.8c0.2,6.2-4.6,11.3-10.8,11.5c-0.3,0-0.5,0-0.8,0v0.6
				c6.3-0.1,11.4-5.3,11.4-11.6C23.3,5.6,18.2,0.6,12,0.6L12,0.6z"/>
		</defs>
		<clipPath id="SVGID_10_">
			<use xlink:href="#SVGID_9_"  style="overflow:visible;"/>
		</clipPath>
		<g class="st7">
			
				<linearGradient id="SVGID_11_" gradientUnits="userSpaceOnUse" x1="-681.1163" y1="144.7432" x2="-680.9531" y2="144.7432" gradientTransform="matrix(0 140.04 -140.04 0 20287.5781 95384.2969)">
				<stop  offset="0" style="stop-color:#ECEEEB"/>
				<stop  offset="3.000000e-02" style="stop-color:#ECEEEB"/>
				<stop  offset="0.17" style="stop-color:#6C7275"/>
				<stop  offset="0.5" style="stop-color:#17262C"/>
				<stop  offset="0.83" style="stop-color:#00161D"/>
				<stop  offset="0.97" style="stop-color:#333E43"/>
				<stop  offset="1" style="stop-color:#333E43"/>
			</linearGradient>
			<rect x="12" y="0.5" class="st8" width="11.5" height="23"/>
		</g>
	</g>
	<g>
		<defs>
			<path id="SVGID_12_" d="M1.8,12.5C1.4,18,6.6,22.7,12,22.7v-0.6C6.4,22.1,1.9,17.6,1.9,12c0-0.6,0.1-1.2,0.2-1.8
				C1.9,10.9,1.8,11.7,1.8,12.5"/>
		</defs>
		<clipPath id="SVGID_13_">
			<use xlink:href="#SVGID_12_"  style="overflow:visible;"/>
		</clipPath>
		<g class="st9">
			
				<linearGradient id="SVGID_14_" gradientUnits="userSpaceOnUse" x1="-678.3939" y1="146.577" x2="-678.2307" y2="146.577" gradientTransform="matrix(99.0232 99.0232 -99.0232 99.0232 81690.4609 52671.1016)">
				<stop  offset="0" style="stop-color:#17262C"/>
				<stop  offset="0.17" style="stop-color:#17262C"/>
				<stop  offset="0.55" style="stop-color:#333E43"/>
				<stop  offset="0.59" style="stop-color:#454F53"/>
				<stop  offset="0.67" style="stop-color:#767D7E"/>
				<stop  offset="0.78" style="stop-color:#C2C5C3"/>
				<stop  offset="0.83" style="stop-color:#E2E3DF"/>
				<stop  offset="1" style="stop-color:#E2E3DF"/>
			</linearGradient>
			<polygon class="st10" points="-4.8,16.4 6.7,4.9 18.3,16.4 6.7,28 			"/>
		</g>
	</g>
	<g>
		<defs>
			<rect id="SVGID_15_" x="0.4" y="0.4" width="23.3" height="23.3"/>
		</defs>
		<clipPath id="SVGID_16_">
			<use xlink:href="#SVGID_15_"  style="overflow:visible;"/>
		</clipPath>
		<g class="st11">
			<path class="st12" d="M22.5,13.8c0-0.2,0.1-0.5,0.1-0.7c0-0.3-0.1-0.6-0.2-0.7c-0.1-0.2-0.2-0.4-0.2-0.6
				c-0.1-0.4-0.1-0.7-0.1-1.1h0.1c0,0.4,0.1,0.7,0.1,1.1c0.1,0.3,0.1,0.5,0.2,0.6c0.2,0.2,0.2,0.4,0.2,0.7
				C22.6,13.4,22.6,13.6,22.5,13.8L22.5,13.8z"/>
			<path class="st13" d="M22,10.7L22,10.7L22,10.7C22.1,10.7,22.1,10.8,22,10.7c0.1,0.4,0.1,0.8,0.2,1.1c0,0.1,0.1,0.3,0.1,0.4
				c0,0.1,0.1,0.1,0.1,0.2c0.1,0.1,0.2,0.3,0.2,0.5c0,0.1,0,0.2,0,0.3c0,0.2,0,0.5-0.1,0.7l-0.1,0c0,0,0,0,0-0.1
				c0-0.2,0-0.4,0.1-0.6c0-0.1,0-0.2,0-0.3c0-0.2-0.1-0.3-0.2-0.4c-0.1-0.1-0.1-0.1-0.1-0.2c0-0.1-0.1-0.3-0.1-0.4
				c0-0.1,0-0.2-0.1-0.3C22,11.3,22,11,22,10.7"/>
			<path class="st14" d="M22,10.7L22,10.7L22,10.7C22.1,10.7,22.1,10.8,22,10.7c0.1,0.4,0.1,0.8,0.2,1.1c0,0.1,0.1,0.3,0.1,0.4
				c0,0.1,0.1,0.1,0.1,0.2c0.1,0.1,0.2,0.3,0.2,0.5c0,0.1,0,0.2,0,0.3c0,0.2,0,0.5-0.1,0.7l-0.1,0c0,0,0,0,0-0.1c0-0.2,0-0.4,0-0.6
				c0-0.1,0-0.2,0-0.3c0-0.2-0.1-0.3-0.2-0.4c-0.1-0.1-0.1-0.1-0.1-0.2c0-0.1-0.1-0.2-0.1-0.4c0-0.1,0-0.2-0.1-0.3
				C22,11.3,22,11,22,10.7"/>
			<path class="st15" d="M22,10.7L22,10.7L22,10.7C22.1,10.7,22.1,10.7,22,10.7c0.1,0.4,0.1,0.7,0.2,1.1c0,0.1,0.1,0.3,0.1,0.4
				c0,0.1,0.1,0.1,0.1,0.2c0.1,0.1,0.2,0.3,0.2,0.5c0,0.1,0,0.2,0,0.3c0,0.2,0,0.5-0.1,0.7h-0.1c0,0,0,0,0-0.1c0-0.2,0-0.4,0-0.6
				c0-0.1,0-0.2,0-0.3c0-0.2-0.1-0.3-0.2-0.4c-0.1-0.1-0.1-0.1-0.1-0.2c0-0.1-0.1-0.2-0.1-0.4c0-0.1,0-0.2-0.1-0.3
				C22,11.3,22,11,22,10.7"/>
			<path class="st16" d="M22,10.7L22,10.7L22,10.7C22.1,10.7,22.1,10.7,22,10.7c0.1,0.4,0.1,0.7,0.2,1.1c0,0.1,0.1,0.3,0.1,0.4
				c0,0.1,0.1,0.1,0.1,0.2c0.1,0.1,0.2,0.3,0.2,0.5c0,0.1,0,0.2,0,0.3c0,0.2,0,0.5-0.1,0.7l-0.1,0c0,0,0,0,0-0.1c0-0.2,0-0.4,0-0.6
				c0-0.1,0-0.2,0-0.3c0-0.1-0.1-0.3-0.2-0.4c-0.1-0.1-0.1-0.1-0.1-0.2c0-0.1-0.1-0.2-0.1-0.4c0-0.1,0-0.2-0.1-0.3
				C22,11.3,22,11,22,10.7"/>
			<path class="st17" d="M22,10.7L22,10.7L22,10.7C22.1,10.7,22.1,10.7,22,10.7c0.1,0.4,0.1,0.7,0.2,1.1c0,0.1,0.1,0.3,0.1,0.4
				c0,0.1,0.1,0.1,0.1,0.2c0.1,0.1,0.2,0.3,0.2,0.5c0,0.1,0,0.2,0,0.3c0,0.2,0,0.5-0.1,0.7h-0.1c0,0,0,0,0-0.1c0-0.2,0-0.4,0-0.6
				c0-0.1,0-0.2,0-0.3c0-0.1-0.1-0.3-0.2-0.4c-0.1-0.1-0.1-0.1-0.1-0.2c0-0.1-0.1-0.2-0.1-0.4c0-0.1,0-0.2-0.1-0.3
				C22,11.3,22,11,22,10.7"/>
			<path class="st18" d="M22,10.7L22,10.7L22,10.7C22.1,10.7,22.1,10.7,22,10.7c0.1,0.4,0.1,0.7,0.2,1.1c0,0.1,0.1,0.3,0.1,0.4
				c0,0.1,0.1,0.1,0.1,0.2c0.1,0.1,0.2,0.3,0.2,0.4c0,0.1,0,0.2,0,0.3c0,0.2,0,0.4-0.1,0.7h-0.1c0,0,0,0,0-0.1c0-0.2,0-0.4,0-0.6
				c0-0.1,0-0.2,0-0.3c0-0.1-0.1-0.3-0.2-0.4c-0.1-0.1-0.1-0.1-0.1-0.2c0-0.1-0.1-0.2-0.1-0.4c0-0.1,0-0.2-0.1-0.3
				C22.1,11.3,22,11,22,10.7"/>
			<path class="st19" d="M22,10.7L22,10.7L22,10.7C22.1,10.7,22.1,10.7,22,10.7c0.1,0.4,0.1,0.7,0.2,1c0,0.1,0.1,0.2,0.1,0.4
				c0,0.1,0.1,0.1,0.1,0.2c0.1,0.1,0.2,0.3,0.2,0.4c0,0.1,0,0.2,0,0.3c0,0.2,0,0.4,0,0.7h-0.1c0,0,0,0,0,0c0-0.2,0-0.4,0-0.6
				c0-0.1,0-0.2,0-0.3c0-0.1-0.1-0.3-0.2-0.4c-0.1-0.1-0.1-0.1-0.1-0.2c0-0.1-0.1-0.2-0.1-0.4c0-0.1,0-0.2-0.1-0.3
				C22,11.3,22,11,22,10.7"/>
			<path class="st20" d="M22,10.7L22,10.7L22,10.7C22.1,10.7,22.1,10.7,22,10.7c0.1,0.4,0.1,0.7,0.2,1c0,0.1,0.1,0.2,0.1,0.4
				c0,0.1,0.1,0.1,0.1,0.2c0.1,0.1,0.2,0.3,0.2,0.4c0,0.1,0,0.2,0,0.2c0,0.2,0,0.4,0,0.7h-0.1c0,0,0,0,0,0c0-0.2,0-0.4,0-0.6
				c0-0.1,0-0.2,0-0.3c0-0.1-0.1-0.3-0.2-0.4c-0.1-0.1-0.1-0.1-0.1-0.2c0-0.1-0.1-0.2-0.1-0.4c0-0.1,0-0.2-0.1-0.3
				C22.1,11.3,22,11,22,10.7"/>
			<path class="st21" d="M22,10.7L22,10.7L22,10.7C22.1,10.7,22.1,10.7,22,10.7c0.1,0.4,0.1,0.7,0.2,1c0,0.1,0.1,0.2,0.1,0.4
				c0,0.1,0.1,0.1,0.1,0.2c0.1,0.1,0.2,0.3,0.2,0.4c0,0.1,0,0.2,0,0.2c0,0.2,0,0.4,0,0.7h-0.1c0,0,0,0,0,0c0-0.2,0-0.4,0-0.6
				c0-0.1,0-0.2,0-0.3c0-0.1-0.1-0.3-0.2-0.4c-0.1-0.1-0.1-0.1-0.1-0.2c0-0.1-0.1-0.2-0.1-0.4c0-0.1,0-0.2-0.1-0.3
				C22.1,11.3,22,11,22,10.7"/>
			<path class="st22" d="M22,10.7L22,10.7L22,10.7C22.1,10.7,22.1,10.7,22,10.7c0.1,0.4,0.1,0.7,0.2,1c0,0.1,0.1,0.2,0.1,0.4
				c0,0.1,0.1,0.1,0.1,0.2c0.1,0.1,0.2,0.3,0.2,0.4c0,0.1,0,0.2,0,0.2c0,0.2,0,0.4,0,0.6h-0.1c0,0,0,0,0,0c0-0.2,0-0.4,0-0.6
				c0-0.1,0-0.2,0-0.3c0-0.1-0.1-0.3-0.2-0.4c-0.1-0.1-0.1-0.1-0.1-0.2c0-0.1-0.1-0.2-0.1-0.3c0-0.1,0-0.2-0.1-0.3
				C22.1,11.2,22,11,22,10.7"/>
			<path class="st23" d="M22,10.7L22,10.7L22,10.7C22.1,10.7,22.1,10.7,22,10.7c0.1,0.4,0.1,0.7,0.2,1c0,0.1,0.1,0.2,0.1,0.4
				c0,0.1,0.1,0.1,0.1,0.2c0.1,0.1,0.2,0.3,0.2,0.4c0,0.1,0,0.2,0,0.2c0,0.2,0,0.4,0,0.6h-0.1c0,0,0,0,0,0c0-0.2,0-0.4,0-0.6
				c0-0.1,0-0.2,0-0.3c0-0.1-0.1-0.3-0.2-0.4c-0.1-0.1-0.1-0.1-0.1-0.2c0-0.1-0.1-0.2-0.1-0.4c0-0.1,0-0.2-0.1-0.3
				C22.1,11.2,22,11,22,10.7"/>
			<path class="st24" d="M22,10.7L22,10.7L22,10.7C22.1,10.7,22.1,10.7,22,10.7c0.1,0.4,0.1,0.7,0.2,1c0,0.1,0.1,0.2,0.1,0.3
				c0,0.1,0.1,0.1,0.1,0.2c0.1,0.1,0.2,0.3,0.2,0.4c0,0.1,0,0.2,0,0.2c0,0.2,0,0.4,0,0.6h-0.1c0,0,0,0,0,0c0-0.2,0-0.4,0-0.6
				c0-0.1,0-0.2,0-0.3c0-0.1-0.1-0.3-0.2-0.4c-0.1-0.1-0.1-0.1-0.1-0.2c0-0.1-0.1-0.2-0.1-0.4c0-0.1,0-0.2-0.1-0.3
				C22.1,11.2,22,10.9,22,10.7"/>
			<path class="st25" d="M22,10.7L22,10.7L22,10.7C22.1,10.7,22.1,10.7,22,10.7c0.1,0.4,0.1,0.7,0.2,1c0,0.1,0.1,0.2,0.1,0.3
				c0,0.1,0.1,0.1,0.1,0.2c0.1,0.1,0.2,0.3,0.2,0.4c0,0.1,0,0.2,0,0.2c0,0.2,0,0.4,0,0.6h-0.1c0,0,0,0,0,0c0-0.2,0-0.4,0-0.6
				c0-0.1,0-0.2,0-0.3c0-0.1-0.1-0.3-0.2-0.4c-0.1-0.1-0.1-0.1-0.1-0.2c0-0.1-0.1-0.2-0.1-0.3c0-0.1,0-0.2-0.1-0.3
				C22.1,11.2,22,10.9,22,10.7"/>
			<path class="st26" d="M22,10.7L22,10.7L22,10.7C22.1,10.7,22.1,10.7,22,10.7c0.1,0.4,0.1,0.7,0.2,1c0,0.1,0.1,0.2,0.1,0.3
				c0,0.1,0.1,0.1,0.1,0.2c0.1,0.1,0.2,0.3,0.2,0.4c0,0.1,0,0.2,0,0.2c0,0.2,0,0.4,0,0.6h0c0,0,0,0,0,0c0-0.2,0-0.4,0-0.6
				c0-0.1,0-0.2,0-0.3c0-0.1-0.1-0.3-0.2-0.4c-0.1-0.1-0.1-0.1-0.1-0.2c0-0.1-0.1-0.2-0.1-0.3c0-0.1,0-0.2-0.1-0.3
				C22.1,11.2,22,10.9,22,10.7"/>
			<path class="st27" d="M22,10.7L22,10.7L22,10.7C22.1,10.7,22.1,10.7,22,10.7c0.1,0.4,0.1,0.7,0.2,1c0,0.1,0.1,0.2,0.1,0.3
				c0,0.1,0.1,0.1,0.1,0.2c0.1,0.1,0.2,0.3,0.2,0.4c0,0.1,0,0.2,0,0.2c0,0.2,0,0.4,0,0.6h0c0,0,0,0,0,0c0-0.2,0-0.4,0-0.6
				c0-0.1,0-0.2,0-0.2c0-0.1-0.1-0.3-0.2-0.4c-0.1-0.1-0.1-0.1-0.1-0.2c0-0.1-0.1-0.2-0.1-0.3c0-0.1,0-0.2-0.1-0.3
				C22.1,11.2,22,10.9,22,10.7"/>
			<path class="st28" d="M22,10.7L22,10.7L22,10.7C22.1,10.7,22.1,10.7,22,10.7c0.1,0.3,0.1,0.7,0.2,0.9c0,0.1,0.1,0.2,0.1,0.3
				c0,0.1,0.1,0.1,0.1,0.2c0.1,0.1,0.2,0.3,0.2,0.4c0,0.1,0,0.2,0,0.2c0,0.2,0,0.4,0,0.6h0c0,0,0,0,0,0c0-0.2,0-0.4,0-0.6
				c0-0.1,0-0.2,0-0.2c0-0.1-0.1-0.3-0.2-0.4c-0.1-0.1-0.1-0.1-0.1-0.2c0-0.1-0.1-0.2-0.1-0.3c0-0.1,0-0.2-0.1-0.3
				C22.1,11.2,22,10.9,22,10.7"/>
			<path class="st29" d="M22,10.7L22,10.7L22,10.7C22.1,10.7,22.1,10.7,22,10.7c0.1,0.3,0.1,0.6,0.2,0.9c0,0.1,0.1,0.2,0.1,0.3
				c0,0.1,0.1,0.1,0.1,0.2c0.1,0.1,0.2,0.3,0.2,0.4c0,0.1,0,0.2,0,0.2c0,0.2,0,0.4,0,0.6h0c0,0,0,0,0,0c0-0.2,0-0.4,0-0.5
				c0-0.1,0-0.2,0-0.2c0-0.1-0.1-0.3-0.2-0.4c0-0.1-0.1-0.1-0.1-0.2c0-0.1-0.1-0.2-0.1-0.3c0-0.1,0-0.2-0.1-0.3
				C22.1,11.2,22,10.9,22,10.7"/>
			<path class="st30" d="M22,10.7L22,10.7L22,10.7C22.1,10.7,22.1,10.7,22,10.7c0.1,0.3,0.1,0.6,0.2,0.9c0,0.1,0.1,0.2,0.1,0.3
				c0,0.1,0.1,0.1,0.1,0.2c0.1,0.1,0.2,0.3,0.2,0.4c0,0.1,0,0.1,0,0.2c0,0.2,0,0.4,0,0.6h0c0,0,0,0,0,0c0-0.2,0-0.4,0-0.5
				c0-0.1,0-0.2,0-0.2c0-0.1-0.1-0.3-0.2-0.4c0-0.1-0.1-0.1-0.1-0.2c0-0.1-0.1-0.2-0.1-0.3c0-0.1,0-0.2-0.1-0.2
				C22.1,11.2,22,10.9,22,10.7"/>
			<path class="st31" d="M22,10.7L22,10.7L22,10.7C22.1,10.7,22.1,10.7,22,10.7c0.1,0.3,0.1,0.6,0.2,0.9c0,0.1,0.1,0.2,0.1,0.3
				c0,0.1,0.1,0.1,0.1,0.2c0.1,0.1,0.2,0.3,0.2,0.4c0,0.1,0,0.1,0,0.2c0,0.2,0,0.4,0,0.6h0c0,0,0,0,0,0c0-0.2,0-0.4,0-0.5
				c0-0.1,0-0.2,0-0.2c0-0.1-0.1-0.2-0.2-0.3c0-0.1-0.1-0.1-0.1-0.2c0-0.1-0.1-0.2-0.1-0.3c0-0.1,0-0.2-0.1-0.2
				C22.1,11.2,22.1,10.9,22,10.7"/>
			<path class="st32" d="M22,10.7L22,10.7L22,10.7C22.1,10.7,22.1,10.7,22,10.7c0.1,0.3,0.1,0.6,0.2,0.9c0,0.1,0.1,0.2,0.1,0.3
				c0,0.1,0.1,0.1,0.1,0.2c0.1,0.1,0.2,0.2,0.2,0.4c0,0.1,0,0.1,0,0.2c0,0.2,0,0.4,0,0.6h0c0,0,0,0,0,0c0-0.2,0-0.4,0-0.5
				c0-0.1,0-0.2,0-0.2c0-0.1-0.1-0.2-0.2-0.3c0-0.1-0.1-0.1-0.1-0.2c0-0.1-0.1-0.2-0.1-0.3c0-0.1,0-0.2-0.1-0.2
				C22.1,11.1,22.1,10.9,22,10.7"/>
			<path class="st33" d="M22,10.7L22,10.7L22,10.7C22.1,10.7,22.1,10.7,22,10.7c0.1,0.3,0.1,0.6,0.2,0.9c0,0.1,0.1,0.2,0.1,0.3
				c0,0.1,0.1,0.1,0.1,0.2c0.1,0.1,0.2,0.2,0.2,0.4c0,0.1,0,0.1,0,0.2c0,0.2,0,0.4,0,0.6h0c0,0,0,0,0,0c0-0.2,0-0.4,0-0.5
				c0-0.1,0-0.2,0-0.2c0-0.1-0.1-0.2-0.2-0.3c0-0.1-0.1-0.1-0.1-0.2c0-0.1-0.1-0.2-0.1-0.3c0-0.1,0-0.2-0.1-0.2
				C22.1,11.1,22.1,10.9,22,10.7"/>
			<path class="st34" d="M22,10.7L22,10.7L22,10.7C22.1,10.7,22.1,10.7,22,10.7c0.1,0.3,0.1,0.6,0.2,0.9c0,0.1,0.1,0.2,0.1,0.3
				c0,0.1,0.1,0.1,0.1,0.1c0.1,0.1,0.2,0.2,0.2,0.4c0,0.1,0,0.1,0,0.2c0,0.2,0,0.4,0,0.6h0c0,0,0,0,0,0c0-0.2,0-0.3,0-0.5
				c0-0.1,0-0.2,0-0.2c0-0.1-0.1-0.2-0.2-0.3c0-0.1-0.1-0.1-0.1-0.2c0-0.1-0.1-0.2-0.1-0.3c0-0.1,0-0.2-0.1-0.2
				C22.1,11.1,22.1,10.9,22,10.7"/>
			<path class="st35" d="M22,10.7L22,10.7L22,10.7C22.1,10.7,22.1,10.7,22,10.7c0.1,0.3,0.1,0.6,0.2,0.9c0,0.1,0.1,0.2,0.1,0.3
				c0,0.1,0.1,0.1,0.1,0.1c0.1,0.1,0.2,0.2,0.2,0.4c0,0.1,0,0.1,0,0.2c0,0.2,0,0.4,0,0.6h0c0,0,0,0,0,0c0-0.2,0-0.3,0-0.5
				c0-0.1,0-0.2,0-0.2c0-0.1-0.1-0.2-0.2-0.3c0-0.1-0.1-0.1-0.1-0.2c0-0.1-0.1-0.2-0.1-0.3c0-0.1,0-0.1-0.1-0.2
				C22.1,11.1,22.1,10.9,22,10.7"/>
			<path class="st36" d="M22,10.7L22,10.7L22,10.7C22.1,10.7,22.1,10.7,22,10.7c0.1,0.3,0.1,0.6,0.2,0.9c0,0.1,0.1,0.2,0.1,0.3
				c0,0.1,0.1,0.1,0.1,0.1c0.1,0.1,0.1,0.2,0.2,0.4c0,0.1,0,0.1,0,0.2c0,0.2,0,0.4,0,0.6h0c0,0,0,0,0,0c0-0.2,0-0.3,0-0.5
				c0-0.1,0-0.2,0-0.2c0-0.1-0.1-0.2-0.2-0.3c0-0.1-0.1-0.1-0.1-0.2c0-0.1-0.1-0.2-0.1-0.3c0-0.1,0-0.1-0.1-0.2
				C22.1,11.1,22.1,10.9,22,10.7"/>
			<path class="st37" d="M22,10.7L22,10.7L22,10.7C22.1,10.7,22.1,10.7,22,10.7c0.1,0.3,0.1,0.6,0.2,0.9c0,0.1,0.1,0.2,0.1,0.3
				c0,0.1,0.1,0.1,0.1,0.1c0.1,0.1,0.1,0.2,0.2,0.4c0,0.1,0,0.1,0,0.2c0,0.2,0,0.4,0,0.6h0c0,0,0,0,0,0c0-0.2,0-0.3,0-0.5
				c0-0.1,0-0.1,0-0.2c0-0.1-0.1-0.2-0.2-0.3c0-0.1-0.1-0.1-0.1-0.2c0-0.1-0.1-0.2-0.1-0.3c0-0.1,0-0.1-0.1-0.2
				C22.1,11.1,22.1,10.9,22,10.7"/>
			<path class="st38" d="M22,10.7L22,10.7L22,10.7C22.1,10.7,22.1,10.7,22,10.7c0.1,0.3,0.1,0.6,0.2,0.8c0,0.1,0.1,0.2,0.1,0.3
				c0,0.1,0.1,0.1,0.1,0.1c0.1,0.1,0.1,0.2,0.2,0.4c0,0.1,0,0.1,0,0.2c0,0.2,0,0.4,0,0.5h0c0,0,0,0,0,0c0-0.2,0-0.3,0-0.5
				c0-0.1,0-0.1,0-0.2c0-0.1-0.1-0.2-0.1-0.3c0-0.1-0.1-0.1-0.1-0.2c0-0.1-0.1-0.2-0.1-0.3c0-0.1,0-0.1-0.1-0.2
				C22.1,11.1,22.1,10.9,22,10.7"/>
			<path class="st39" d="M22,10.7L22,10.7L22,10.7C22.1,10.7,22.1,10.7,22,10.7c0.1,0.3,0.1,0.6,0.2,0.8c0,0.1,0.1,0.2,0.1,0.3
				c0,0.1,0.1,0.1,0.1,0.1c0.1,0.1,0.1,0.2,0.2,0.4c0,0.1,0,0.1,0,0.2c0,0.2,0,0.4,0,0.5h0c0,0,0,0,0,0c0-0.2,0-0.3,0-0.5
				c0-0.1,0-0.1,0-0.2c0-0.1-0.1-0.2-0.1-0.3c0-0.1-0.1-0.1-0.1-0.2c0-0.1-0.1-0.2-0.1-0.3c0-0.1,0-0.1-0.1-0.2
				C22.1,11.1,22.1,10.9,22,10.7"/>
			<path class="st40" d="M22,10.7L22,10.7L22,10.7C22.1,10.7,22.1,10.7,22,10.7c0.1,0.3,0.1,0.6,0.2,0.8c0,0.1,0.1,0.2,0.1,0.3
				c0,0.1,0.1,0.1,0.1,0.1c0.1,0.1,0.1,0.2,0.2,0.4c0,0.1,0,0.1,0,0.2c0,0.2,0,0.4,0,0.5h0c0,0,0,0,0,0c0-0.2,0-0.3,0-0.5
				c0-0.1,0-0.1,0-0.2c0-0.1-0.1-0.2-0.1-0.3c0-0.1-0.1-0.1-0.1-0.2c0-0.1-0.1-0.2-0.1-0.3c0-0.1,0-0.1-0.1-0.2
				C22.1,11.1,22.1,10.9,22,10.7"/>
			<path class="st41" d="M22,10.7L22,10.7L22,10.7C22.1,10.7,22.1,10.7,22,10.7c0.1,0.3,0.1,0.6,0.2,0.8c0,0.1,0.1,0.2,0.1,0.3
				c0,0.1,0.1,0.1,0.1,0.1c0.1,0.1,0.1,0.2,0.2,0.4c0,0.1,0,0.1,0,0.2c0,0.2,0,0.4,0,0.5h0c0,0,0,0,0,0c0-0.2,0-0.3,0-0.5
				c0-0.1,0-0.1,0-0.2c0-0.1-0.1-0.2-0.1-0.3c0-0.1-0.1-0.1-0.1-0.2c0-0.1-0.1-0.2-0.1-0.3c0-0.1,0-0.1-0.1-0.2
				C22.1,11.1,22.1,10.9,22,10.7"/>
			<path class="st42" d="M22.1,10.7L22.1,10.7L22.1,10.7C22.1,10.7,22.1,10.7,22.1,10.7c0.1,0.3,0.1,0.6,0.2,0.8
				c0,0.1,0.1,0.2,0.1,0.3c0,0.1,0.1,0.1,0.1,0.1c0.1,0.1,0.1,0.2,0.2,0.4c0,0.1,0,0.1,0,0.2c0,0.2,0,0.4,0,0.5h0c0,0,0,0,0,0
				c0-0.2,0-0.3,0-0.5c0-0.1,0-0.1,0-0.2c0-0.1-0.1-0.2-0.1-0.3c0-0.1-0.1-0.1-0.1-0.2c0-0.1-0.1-0.2-0.1-0.3c0-0.1,0-0.1-0.1-0.2
				C22.1,11.1,22.1,10.9,22.1,10.7"/>
			<path class="st43" d="M22.1,10.7L22.1,10.7L22.1,10.7C22.1,10.7,22.1,10.7,22.1,10.7c0.1,0.3,0.1,0.5,0.2,0.8
				c0,0.1,0.1,0.2,0.1,0.3c0,0.1,0.1,0.1,0.1,0.1c0.1,0.1,0.1,0.2,0.2,0.3c0,0.1,0,0.1,0,0.2c0,0.2,0,0.3,0,0.5h0c0,0,0,0,0,0
				c0-0.2,0-0.3,0-0.5c0-0.1,0-0.1,0-0.2c0-0.1-0.1-0.2-0.1-0.3c0,0-0.1-0.1-0.1-0.2c0-0.1-0.1-0.2-0.1-0.3c0-0.1,0-0.1-0.1-0.2
				C22.1,11.1,22.1,10.9,22.1,10.7"/>
			<path class="st44" d="M22.1,10.7L22.1,10.7L22.1,10.7C22.1,10.7,22.1,10.7,22.1,10.7c0.1,0.3,0.1,0.5,0.2,0.8
				c0,0.1,0.1,0.2,0.1,0.3c0,0.1,0.1,0.1,0.1,0.1c0.1,0.1,0.1,0.2,0.2,0.3c0,0.1,0,0.1,0,0.2c0,0.2,0,0.3,0,0.5h0c0,0,0,0,0,0
				c0-0.2,0-0.3,0-0.5c0-0.1,0-0.1,0-0.2c0-0.1-0.1-0.2-0.1-0.3c0,0-0.1-0.1-0.1-0.2c0-0.1-0.1-0.2-0.1-0.3c0-0.1,0-0.1-0.1-0.2
				C22.1,11.1,22.1,10.9,22.1,10.7"/>
			<path class="st45" d="M22.1,10.7L22.1,10.7L22.1,10.7C22.1,10.7,22.1,10.7,22.1,10.7c0.1,0.3,0.1,0.5,0.2,0.8
				c0,0.1,0.1,0.2,0.1,0.3c0,0,0.1,0.1,0.1,0.1c0.1,0.1,0.1,0.2,0.2,0.3c0,0.1,0,0.1,0,0.2c0,0.2,0,0.3,0,0.5h0c0,0,0,0,0,0
				c0-0.2,0-0.3,0-0.5c0-0.1,0-0.1,0-0.2c0-0.1-0.1-0.2-0.1-0.3c0-0.1-0.1-0.1-0.1-0.2c0-0.1-0.1-0.2-0.1-0.3c0-0.1,0-0.1-0.1-0.2
				C22.1,11.1,22.1,10.9,22.1,10.7"/>
			<path class="st46" d="M22.1,10.7L22.1,10.7L22.1,10.7C22.1,10.7,22.1,10.7,22.1,10.7c0.1,0.3,0.1,0.5,0.2,0.8
				c0,0.1,0.1,0.2,0.1,0.3c0,0,0.1,0.1,0.1,0.1c0.1,0.1,0.1,0.2,0.2,0.3c0,0.1,0,0.1,0,0.2c0,0.2,0,0.3,0,0.5h0c0,0,0,0,0,0
				c0-0.2,0-0.3,0-0.5c0-0.1,0-0.1,0-0.2c0-0.1-0.1-0.2-0.1-0.3c0,0-0.1-0.1-0.1-0.2c0-0.1-0.1-0.2-0.1-0.3c0-0.1,0-0.1-0.1-0.2
				C22.1,11.1,22.1,10.9,22.1,10.7"/>
			<path class="st47" d="M22.1,10.6L22.1,10.6L22.1,10.6C22.1,10.7,22.1,10.7,22.1,10.6c0.1,0.3,0.1,0.5,0.2,0.8
				c0,0.1,0.1,0.2,0.1,0.3c0,0,0.1,0.1,0.1,0.1c0.1,0.1,0.1,0.2,0.2,0.3c0,0.1,0,0.1,0,0.2c0,0.2,0,0.3,0,0.5h0c0,0,0,0,0,0
				c0-0.2,0-0.3,0-0.5c0-0.1,0-0.1,0-0.2c0-0.1-0.1-0.2-0.1-0.3c0,0-0.1-0.1-0.1-0.2c0-0.1-0.1-0.2-0.1-0.3c0-0.1,0-0.1-0.1-0.2
				C22.1,11,22.1,10.9,22.1,10.6"/>
			<path class="st48" d="M22.1,10.6L22.1,10.6L22.1,10.6C22.1,10.7,22.1,10.7,22.1,10.6c0.1,0.3,0.1,0.5,0.2,0.7
				c0,0.1,0.1,0.2,0.1,0.3c0,0,0.1,0.1,0.1,0.1c0.1,0.1,0.1,0.2,0.2,0.3c0,0.1,0,0.1,0,0.2c0,0.2,0,0.3,0,0.5h0c0,0,0,0,0,0
				c0-0.1,0-0.3,0-0.4c0-0.1,0-0.1,0-0.2c0-0.1-0.1-0.2-0.1-0.3c0,0-0.1-0.1-0.1-0.2c0-0.1-0.1-0.2-0.1-0.3c0-0.1,0-0.1-0.1-0.2
				C22.1,11,22.1,10.8,22.1,10.6"/>
			<path class="st49" d="M22.1,10.6L22.1,10.6L22.1,10.6C22.1,10.6,22.1,10.7,22.1,10.6c0.1,0.3,0.1,0.5,0.2,0.7
				c0,0.1,0.1,0.2,0.1,0.3c0,0,0.1,0.1,0.1,0.1c0.1,0.1,0.1,0.2,0.2,0.3c0,0.1,0,0.1,0,0.2c0,0.2,0,0.3,0,0.5h0c0,0,0,0,0,0
				c0-0.1,0-0.3,0-0.4c0-0.1,0-0.1,0-0.2c0-0.1-0.1-0.2-0.1-0.3c0,0-0.1-0.1-0.1-0.2c0-0.1-0.1-0.2-0.1-0.3c0-0.1,0-0.1-0.1-0.2
				C22.1,11,22.1,10.8,22.1,10.6"/>
			<path class="st50" d="M22.1,10.6L22.1,10.6L22.1,10.6C22.1,10.6,22.1,10.7,22.1,10.6c0.1,0.3,0.1,0.5,0.2,0.7
				c0,0.1,0.1,0.2,0.1,0.3c0,0,0.1,0.1,0.1,0.1c0.1,0.1,0.1,0.2,0.2,0.3c0,0.1,0,0.1,0,0.2c0,0.2,0,0.3,0,0.5h0c0,0,0,0,0,0
				c0-0.1,0-0.3,0-0.4c0-0.1,0-0.1,0-0.2c0-0.1-0.1-0.2-0.1-0.3c0,0-0.1-0.1-0.1-0.1c0-0.1-0.1-0.2-0.1-0.2c0-0.1,0-0.1-0.1-0.2
				C22.1,11,22.1,10.8,22.1,10.6"/>
			<path class="st51" d="M22.1,10.6L22.1,10.6L22.1,10.6C22.1,10.6,22.1,10.7,22.1,10.6c0.1,0.3,0.1,0.5,0.2,0.7
				c0,0.1,0.1,0.2,0.1,0.2c0,0,0.1,0.1,0.1,0.1c0.1,0.1,0.1,0.2,0.1,0.3c0,0.1,0,0.1,0,0.2c0,0.2,0,0.3,0,0.5h0c0,0,0,0,0,0
				c0-0.1,0-0.3,0-0.4c0-0.1,0-0.1,0-0.2c0-0.1-0.1-0.2-0.1-0.3c0,0-0.1-0.1-0.1-0.1c0-0.1-0.1-0.2-0.1-0.2c0-0.1,0-0.1-0.1-0.2
				C22.1,11,22.1,10.8,22.1,10.6"/>
			<path class="st52" d="M22.1,10.6L22.1,10.6L22.1,10.6C22.1,10.6,22.1,10.6,22.1,10.6c0.1,0.3,0.1,0.5,0.2,0.7
				c0,0.1,0.1,0.2,0.1,0.2c0,0,0.1,0.1,0.1,0.1c0.1,0.1,0.1,0.2,0.1,0.3c0,0.1,0,0.1,0,0.2c0,0.2,0,0.3,0,0.5h0c0,0,0,0,0,0
				c0-0.1,0-0.3,0-0.4c0-0.1,0-0.1,0-0.2c0-0.1-0.1-0.2-0.1-0.3c0,0-0.1-0.1-0.1-0.1c0-0.1-0.1-0.2-0.1-0.2c0-0.1,0-0.1-0.1-0.2
				C22.1,11,22.1,10.8,22.1,10.6"/>
			<path class="st53" d="M22.1,10.6L22.1,10.6L22.1,10.6C22.1,10.6,22.1,10.6,22.1,10.6c0.1,0.2,0.1,0.5,0.2,0.7
				c0,0.1,0.1,0.2,0.1,0.2c0,0,0.1,0.1,0.1,0.1c0.1,0.1,0.1,0.2,0.1,0.3c0,0.1,0,0.1,0,0.2c0,0.2,0,0.3,0,0.5h0c0,0,0,0,0,0
				c0-0.1,0-0.3,0-0.4c0-0.1,0-0.1,0-0.2c0-0.1-0.1-0.2-0.1-0.3c0,0-0.1-0.1-0.1-0.1c0-0.1-0.1-0.2-0.1-0.2c0-0.1,0-0.1-0.1-0.2
				C22.1,11,22.1,10.8,22.1,10.6"/>
			<path class="st54" d="M22.1,10.6L22.1,10.6L22.1,10.6C22.1,10.6,22.1,10.6,22.1,10.6c0.1,0.2,0.1,0.5,0.2,0.7
				c0,0.1,0.1,0.2,0.1,0.2c0,0,0,0.1,0.1,0.1c0.1,0.1,0.1,0.2,0.1,0.3c0,0.1,0,0.1,0,0.2c0,0.2,0,0.3,0,0.5h0c0,0,0,0,0,0
				c0-0.1,0-0.3,0-0.4c0-0.1,0-0.1,0-0.2c0-0.1-0.1-0.2-0.1-0.3c0,0-0.1-0.1-0.1-0.1c0-0.1-0.1-0.2-0.1-0.2c0-0.1,0-0.1-0.1-0.2
				C22.1,11,22.1,10.8,22.1,10.6"/>
			<path class="st55" d="M22.1,10.6L22.1,10.6L22.1,10.6C22.1,10.6,22.1,10.6,22.1,10.6c0.1,0.2,0.1,0.5,0.2,0.7
				c0,0.1,0.1,0.2,0.1,0.2c0,0,0,0.1,0.1,0.1c0.1,0.1,0.1,0.2,0.1,0.3c0,0.1,0,0.1,0,0.2c0,0.1,0,0.3,0,0.4h0c0,0,0,0,0,0
				c0-0.1,0-0.3,0-0.4c0-0.1,0-0.1,0-0.2c0-0.1-0.1-0.2-0.1-0.3c0,0-0.1-0.1-0.1-0.1c0-0.1-0.1-0.2-0.1-0.2c0-0.1,0-0.1-0.1-0.2
				C22.1,11,22.1,10.8,22.1,10.6"/>
			<path class="st56" d="M22.1,10.6L22.1,10.6L22.1,10.6C22.1,10.6,22.1,10.6,22.1,10.6c0.1,0.2,0.1,0.5,0.2,0.7
				c0,0.1,0.1,0.2,0.1,0.2c0,0,0,0.1,0.1,0.1c0.1,0.1,0.1,0.2,0.1,0.3c0,0.1,0,0.1,0,0.2c0,0.1,0,0.3,0,0.4h0c0,0,0,0,0,0
				c0-0.1,0-0.3,0-0.4c0-0.1,0-0.1,0-0.2c0-0.1-0.1-0.2-0.1-0.3c0,0-0.1-0.1-0.1-0.1c0-0.1-0.1-0.1-0.1-0.2c0-0.1,0-0.1-0.1-0.2
				C22.1,11,22.1,10.8,22.1,10.6"/>
			<path class="st57" d="M22.1,10.6L22.1,10.6L22.1,10.6C22.1,10.6,22.1,10.6,22.1,10.6c0.1,0.2,0.1,0.4,0.2,0.6
				c0,0.1,0.1,0.2,0.1,0.2c0,0,0,0.1,0.1,0.1c0.1,0.1,0.1,0.2,0.1,0.3c0,0.1,0,0.1,0,0.2c0,0.1,0,0.3,0,0.4h0c0,0,0,0,0,0
				c0-0.1,0-0.3,0-0.4c0-0.1,0-0.1,0-0.2c0-0.1-0.1-0.2-0.1-0.3c0,0-0.1-0.1-0.1-0.1c0-0.1-0.1-0.1-0.1-0.2c0-0.1,0-0.1-0.1-0.2
				C22.1,11,22.1,10.8,22.1,10.6"/>
			<path class="st58" d="M22.1,10.6L22.1,10.6L22.1,10.6C22.1,10.6,22.1,10.6,22.1,10.6c0.1,0.2,0.1,0.4,0.2,0.6
				c0,0.1,0.1,0.2,0.1,0.2c0,0,0,0.1,0.1,0.1c0.1,0.1,0.1,0.2,0.1,0.3c0,0.1,0,0.1,0,0.2c0,0.1,0,0.3,0,0.4h0c0,0,0,0,0,0
				c0-0.1,0-0.3,0-0.4c0-0.1,0-0.1,0-0.2c0-0.1-0.1-0.2-0.1-0.3c0,0-0.1-0.1-0.1-0.1c0-0.1-0.1-0.1-0.1-0.2c0-0.1-0.1-0.1-0.1-0.2
				C22.1,11,22.1,10.8,22.1,10.6"/>
			<path class="st59" d="M22.1,10.6L22.1,10.6L22.1,10.6C22.1,10.6,22.1,10.6,22.1,10.6c0.1,0.2,0.1,0.4,0.2,0.6
				c0,0.1,0.1,0.1,0.1,0.2c0,0,0,0.1,0.1,0.1c0.1,0.1,0.1,0.2,0.1,0.3c0,0.1,0,0.1,0,0.2c0,0.1,0,0.3,0,0.4h0c0,0,0,0,0,0
				c0-0.1,0-0.3,0-0.4c0-0.1,0-0.1,0-0.2c0-0.1-0.1-0.2-0.1-0.3c0,0-0.1-0.1-0.1-0.1c0-0.1-0.1-0.1-0.1-0.2c0-0.1-0.1-0.1-0.1-0.2
				C22.1,11,22.1,10.8,22.1,10.6"/>
			<path class="st60" d="M22.1,10.6L22.1,10.6L22.1,10.6C22.1,10.6,22.1,10.6,22.1,10.6c0.1,0.2,0.1,0.4,0.2,0.6
				c0,0.1,0.1,0.1,0.1,0.2c0,0,0,0.1,0.1,0.1c0.1,0.1,0.1,0.2,0.1,0.3c0,0.1,0,0.1,0,0.2c0,0.1,0,0.3,0,0.4h0c0,0,0,0,0,0
				c0-0.1,0-0.3,0-0.4c0-0.1,0-0.1,0-0.2c0-0.1-0.1-0.2-0.1-0.2c0,0-0.1-0.1-0.1-0.1c0-0.1-0.1-0.1-0.1-0.2c0-0.1,0-0.1-0.1-0.2
				C22.1,11,22.1,10.8,22.1,10.6"/>
			<path class="st61" d="M22.1,10.6L22.1,10.6L22.1,10.6C22.1,10.6,22.1,10.6,22.1,10.6c0.1,0.2,0.1,0.4,0.2,0.6
				c0,0.1,0.1,0.1,0.1,0.2c0,0,0,0.1,0.1,0.1c0.1,0.1,0.1,0.2,0.1,0.3c0,0.1,0,0.1,0,0.2c0,0.1,0,0.3,0,0.4h0c0,0,0,0,0,0
				c0-0.1,0-0.3,0-0.4c0-0.1,0-0.1,0-0.2c0-0.1-0.1-0.2-0.1-0.2c0,0-0.1-0.1-0.1-0.1c0,0-0.1-0.1-0.1-0.2c0-0.1-0.1-0.1-0.1-0.2
				C22.1,10.9,22.1,10.8,22.1,10.6"/>
			<path class="st62" d="M22.1,10.6L22.1,10.6L22.1,10.6C22.1,10.6,22.1,10.6,22.1,10.6c0.1,0.2,0.1,0.4,0.2,0.6
				c0,0.1,0.1,0.1,0.1,0.2c0,0,0,0.1,0.1,0.1c0.1,0.1,0.1,0.2,0.1,0.3c0,0,0,0.1,0,0.2c0,0.1,0,0.3,0,0.4h0c0,0,0,0,0,0
				c0-0.1,0-0.3,0-0.4c0-0.1,0-0.1,0-0.2c0-0.1-0.1-0.2-0.1-0.2c0,0-0.1-0.1-0.1-0.1c0-0.1-0.1-0.1-0.1-0.2c0,0-0.1-0.1-0.1-0.2
				C22.1,10.9,22.1,10.8,22.1,10.6"/>
			<path class="st63" d="M22.1,10.6L22.1,10.6L22.1,10.6L22.1,10.6c0.1,0.2,0.1,0.4,0.2,0.6c0,0.1,0.1,0.1,0.1,0.2
				c0,0,0,0.1,0.1,0.1c0.1,0.1,0.1,0.2,0.1,0.3c0,0,0,0.1,0,0.1c0,0.1,0,0.3,0,0.4h0c0,0,0,0,0,0c0-0.1,0-0.2,0-0.4
				c0-0.1,0-0.1,0-0.2c0-0.1-0.1-0.2-0.1-0.2c0,0-0.1-0.1-0.1-0.1c0,0-0.1-0.1-0.1-0.2c0,0-0.1-0.1-0.1-0.2
				C22.1,10.9,22.1,10.8,22.1,10.6"/>
			<path class="st64" d="M22.1,10.6L22.1,10.6L22.1,10.6L22.1,10.6c0.1,0.2,0.1,0.4,0.2,0.6c0,0.1,0.1,0.1,0.1,0.2
				c0,0,0,0.1,0.1,0.1c0.1,0.1,0.1,0.2,0.1,0.3c0,0,0,0.1,0,0.1c0,0.1,0,0.3,0,0.4h0c0,0,0,0,0,0c0-0.1,0-0.2,0-0.4
				c0-0.1,0-0.1,0-0.2c0-0.1-0.1-0.2-0.1-0.2c0,0-0.1-0.1-0.1-0.1c0-0.1-0.1-0.1-0.1-0.2c0,0-0.1-0.1-0.1-0.2
				C22.1,10.9,22.1,10.8,22.1,10.6"/>
			<path class="st65" d="M22.1,10.6L22.1,10.6L22.1,10.6L22.1,10.6c0.1,0.2,0.1,0.4,0.2,0.6c0,0.1,0.1,0.1,0.1,0.2
				c0,0,0,0.1,0.1,0.1c0.1,0.1,0.1,0.2,0.1,0.3c0,0,0,0.1,0,0.1c0,0.1,0,0.3,0,0.4h0h0c0-0.1,0-0.2,0-0.4c0-0.1,0-0.1,0-0.2
				c0-0.1-0.1-0.2-0.1-0.2c0,0-0.1-0.1-0.1-0.1c0,0-0.1-0.1-0.1-0.2c0-0.1-0.1-0.1-0.1-0.1C22.1,10.9,22.1,10.8,22.1,10.6"/>
			<path class="st66" d="M22.1,10.6L22.1,10.6L22.1,10.6L22.1,10.6c0.1,0.2,0.1,0.4,0.2,0.5c0,0.1,0.1,0.1,0.1,0.2
				c0,0,0,0.1,0.1,0.1c0.1,0.1,0.1,0.2,0.1,0.3c0,0,0,0.1,0,0.1c0,0.1,0,0.3,0,0.4h0h0c0-0.1,0-0.2,0-0.4c0-0.1,0-0.1,0-0.2
				c0-0.1-0.1-0.2-0.1-0.2c0,0-0.1-0.1-0.1-0.1s-0.1-0.1-0.1-0.2c0,0-0.1-0.1-0.1-0.1C22.1,10.9,22.1,10.8,22.1,10.6"/>
			<path class="st67" d="M22.1,10.6L22.1,10.6L22.1,10.6L22.1,10.6c0.1,0.2,0.1,0.4,0.2,0.5c0,0.1,0.1,0.1,0.1,0.2
				c0,0,0,0.1,0.1,0.1c0.1,0.1,0.1,0.2,0.1,0.3c0,0,0,0.1,0,0.1c0,0.1,0,0.3,0,0.4h0h0c0-0.1,0-0.2,0-0.3c0,0,0-0.1,0-0.1
				c0-0.1-0.1-0.2-0.1-0.2c0,0-0.1-0.1-0.1-0.1s-0.1-0.1-0.1-0.2c0,0-0.1-0.1-0.1-0.1C22.1,10.9,22.1,10.8,22.1,10.6"/>
			<path class="st68" d="M22.1,10.6L22.1,10.6L22.1,10.6L22.1,10.6c0.1,0.2,0.1,0.4,0.2,0.5c0,0.1,0.1,0.1,0.1,0.2l0.1,0.1
				c0.1,0.1,0.1,0.2,0.1,0.2c0,0,0,0.1,0,0.1c0,0.1,0,0.2,0,0.4h0h0c0-0.1,0-0.2,0-0.3c0,0,0-0.1,0-0.1c0-0.1-0.1-0.2-0.1-0.2
				l-0.1-0.1c0-0.1-0.1-0.1-0.1-0.2c0-0.1-0.1-0.1-0.1-0.1C22.1,10.9,22.1,10.8,22.1,10.6"/>
			<path class="st69" d="M22.1,10.6L22.1,10.6L22.1,10.6C22.1,10.6,22.1,10.6,22.1,10.6c0.1,0.2,0.1,0.4,0.2,0.5
				c0,0.1,0.1,0.1,0.1,0.2l0.1,0.1c0.1,0.1,0.1,0.2,0.1,0.2c0,0,0,0.1,0,0.1c0,0.1,0,0.2,0,0.4h0h0c0-0.1,0-0.2,0-0.3
				c0,0,0-0.1,0-0.1c0-0.1-0.1-0.1-0.1-0.2l-0.1-0.1c0-0.1-0.1-0.1-0.1-0.2c0,0-0.1-0.1-0.1-0.1C22.1,10.9,22.1,10.8,22.1,10.6"/>
			<path class="st70" d="M22.1,10.6L22.1,10.6L22.1,10.6L22.1,10.6c0.1,0.2,0.1,0.4,0.2,0.5c0,0.1,0.1,0.1,0.1,0.2l0.1,0.1
				c0.1,0.1,0.1,0.2,0.1,0.2c0,0,0,0.1,0,0.1c0,0.1,0,0.2,0,0.4h0h0c0-0.1,0-0.2,0-0.3c0-0.1-0.1-0.2-0.1-0.4l-0.1-0.1
				c0-0.1-0.1-0.1-0.1-0.2c0,0-0.1-0.1-0.1-0.1C22.2,10.9,22.1,10.7,22.1,10.6"/>
			<path class="st71" d="M22.1,10.6L22.1,10.6L22.1,10.6L22.1,10.6c0.1,0.2,0.1,0.4,0.2,0.5c0,0.1,0.1,0.1,0.1,0.2l0.1,0.1
				c0,0.1,0.1,0.2,0.1,0.2c0,0,0,0.1,0,0.1c0,0.1,0,0.2,0,0.4h-0.1c0-0.1,0-0.2,0-0.3c0,0,0-0.1,0-0.1c0-0.1-0.1-0.1-0.1-0.2
				l-0.1-0.1c0-0.1-0.1-0.1-0.1-0.2c0-0.1-0.1-0.1-0.1-0.1C22.1,10.9,22.1,10.7,22.1,10.6"/>
			<path class="st72" d="M22.1,10.6L22.1,10.6L22.1,10.6L22.1,10.6c0.1,0.2,0.1,0.3,0.2,0.5c0,0.1,0.1,0.1,0.1,0.2
				c0,0,0,0.1,0.1,0.1c0,0.1,0.1,0.2,0.1,0.2c0,0,0,0.1,0,0.1c0,0.1,0,0.2,0,0.3h-0.1c0-0.1,0-0.2,0-0.3c0-0.1-0.1-0.2-0.1-0.3
				l-0.1-0.1c0-0.1-0.1-0.1-0.1-0.2c0-0.1-0.1-0.1-0.1-0.1C22.2,10.9,22.1,10.7,22.1,10.6"/>
			<path class="st73" d="M22.7,12c0-0.2,0-0.3-0.1-0.4c0-0.1-0.1-0.2-0.2-0.3c-0.1-0.1-0.1-0.2-0.2-0.3c-0.1-0.1-0.1-0.3-0.1-0.4
				h0.1c0,0.2,0.1,0.5,0.3,0.6c0.1,0.1,0.1,0.2,0.2,0.3C22.7,11.7,22.7,11.9,22.7,12L22.7,12z"/>
			<path class="st74" d="M0.5,11.9c0-0.3,0-0.7,0.1-1c0-0.2,0.1-0.3,0.2-0.5c0.1-0.1,0.2-0.2,0.3-0.3C1.2,10,1.3,9.8,1.3,9.6l0,0
				l0.1,0c0,0.2-0.1,0.4-0.2,0.6c-0.1,0.1-0.2,0.2-0.3,0.3c-0.1,0.1-0.2,0.3-0.2,0.5C0.6,11.3,0.5,11.6,0.5,11.9L0.5,11.9z"/>
			<path class="st75" d="M1.3,9.6c0,0.2-0.1,0.4-0.2,0.6c0,0.1-0.1,0.1-0.1,0.2c0,0-0.1,0.1-0.1,0.1c-0.1,0.1-0.1,0.1-0.1,0.2
				c0,0.1-0.1,0.2-0.1,0.3c0,0.1,0,0.2-0.1,0.3c0,0.1,0,0.2-0.1,0.4c0,0.1,0,0.2,0,0.3H0.5c0-0.1,0-0.3,0-0.4c0-0.2,0-0.3,0.1-0.4
				c0-0.1,0-0.2,0.1-0.3c0-0.1,0.1-0.2,0.1-0.3c0-0.1,0.1-0.1,0.1-0.2c0,0,0.1-0.1,0.1-0.1C1,10.3,1,10.2,1.1,10.2
				C1.2,10,1.3,9.8,1.3,9.6L1.3,9.6L1.3,9.6z"/>
			<path class="st76" d="M1.3,9.6c0,0.2-0.1,0.4-0.2,0.6c0,0.1-0.1,0.1-0.1,0.2c0,0-0.1,0.1-0.1,0.1c-0.1,0.1-0.1,0.1-0.1,0.2
				c0,0.1-0.1,0.2-0.1,0.3c0,0.1,0,0.2-0.1,0.3c0,0.1,0,0.2,0,0.4c0,0.1,0,0.2,0,0.3H0.5c0-0.1,0-0.2,0-0.4c0-0.2,0-0.3,0.1-0.4
				c0-0.1,0-0.2,0.1-0.3c0-0.1,0.1-0.2,0.1-0.3c0-0.1,0.1-0.1,0.1-0.2c0,0,0.1-0.1,0.1-0.1C1,10.3,1,10.2,1.1,10.2
				C1.2,10,1.3,9.8,1.3,9.6L1.3,9.6L1.3,9.6z"/>
			<path class="st77" d="M1.3,9.7c0,0.2-0.1,0.4-0.2,0.6c0,0.1-0.1,0.1-0.1,0.2c0,0-0.1,0.1-0.1,0.1c-0.1,0.1-0.1,0.1-0.1,0.2
				c0,0.1-0.1,0.2-0.1,0.2c0,0.1,0,0.2-0.1,0.3c0,0.1,0,0.3,0,0.4c0,0.1,0,0.2,0,0.3h0h0c0-0.1,0-0.2,0-0.4c0-0.2,0-0.3,0.1-0.4
				c0-0.1,0-0.2,0.1-0.3c0-0.1,0.1-0.2,0.1-0.3c0-0.1,0.1-0.1,0.1-0.2c0,0,0.1-0.1,0.1-0.1c0-0.1,0.1-0.1,0.1-0.2
				C1.2,10,1.3,9.8,1.3,9.7L1.3,9.7L1.3,9.7z"/>
			<path class="st78" d="M1.3,9.7c0,0.2-0.1,0.4-0.2,0.6c0,0.1-0.1,0.1-0.1,0.2c0,0-0.1,0.1-0.1,0.1c-0.1,0.1-0.1,0.1-0.1,0.2
				c0,0.1-0.1,0.2-0.1,0.3c0,0.1,0,0.2-0.1,0.3c0,0.1,0,0.3,0,0.4c0,0.1,0,0.2,0,0.3H0.5c0-0.1,0-0.2,0-0.4c0-0.2,0-0.3,0.1-0.4
				c0-0.1,0-0.2,0.1-0.2c0-0.1,0.1-0.2,0.1-0.3c0-0.1,0.1-0.1,0.1-0.2c0,0,0.1-0.1,0.1-0.1c0-0.1,0.1-0.1,0.1-0.2
				C1.2,10,1.3,9.9,1.3,9.7L1.3,9.7L1.3,9.7z"/>
			<path class="st79" d="M1.3,9.7c0,0.2-0.1,0.4-0.2,0.6c0,0.1-0.1,0.1-0.1,0.2c0,0-0.1,0.1-0.1,0.1c-0.1,0.1-0.1,0.1-0.1,0.2
				c0,0.1-0.1,0.2-0.1,0.2c0,0.1,0,0.2-0.1,0.3c0,0.1,0,0.3,0,0.4c0,0.1,0,0.2,0,0.3H0.5c0-0.1,0-0.2,0-0.4c0-0.2,0-0.3,0.1-0.4
				c0-0.1,0-0.2,0.1-0.3c0-0.1,0.1-0.2,0.1-0.3c0-0.1,0.1-0.1,0.1-0.2c0,0,0.1-0.1,0.1-0.1c0-0.1,0.1-0.1,0.1-0.2
				C1.2,10,1.3,9.9,1.3,9.7L1.3,9.7L1.3,9.7z"/>
			<path class="st80" d="M1.3,9.7c0,0.2-0.1,0.4-0.2,0.6c0,0.1-0.1,0.1-0.1,0.2c0,0-0.1,0.1-0.1,0.1c-0.1,0.1-0.1,0.1-0.1,0.2
				c0,0.1-0.1,0.2-0.1,0.2c0,0.1,0,0.2-0.1,0.3c0,0.1,0,0.2,0,0.4c0,0.1,0,0.2,0,0.3H0.5c0-0.1,0-0.2,0-0.4c0-0.2,0-0.3,0.1-0.4
				c0-0.1,0-0.2,0.1-0.3c0-0.1,0.1-0.2,0.1-0.3c0-0.1,0.1-0.1,0.1-0.2c0,0,0.1-0.1,0.1-0.1c0-0.1,0.1-0.1,0.1-0.2
				C1.2,10.1,1.2,9.9,1.3,9.7L1.3,9.7L1.3,9.7z"/>
			<path class="st81" d="M1.3,9.7c0,0.2-0.1,0.4-0.2,0.6c0,0.1-0.1,0.1-0.1,0.2l-0.1,0.1c-0.1,0.1-0.1,0.1-0.1,0.2
				c0,0.1-0.1,0.2-0.1,0.2c0,0.1,0,0.2-0.1,0.3c0,0.1,0,0.3,0,0.4c0,0.1,0,0.2,0,0.3H0.5c0-0.1,0-0.2,0-0.4c0-0.1,0-0.3,0.1-0.4
				c0-0.1,0-0.2,0.1-0.3c0-0.1,0.1-0.2,0.1-0.3c0-0.1,0.1-0.1,0.1-0.2L1,10.4c0-0.1,0.1-0.1,0.1-0.2C1.2,10.1,1.2,9.9,1.3,9.7
				L1.3,9.7L1.3,9.7z"/>
			<path class="st82" d="M1.3,9.7c0,0.2-0.1,0.4-0.2,0.6c0,0.1-0.1,0.1-0.1,0.2l-0.1,0.1c-0.1,0.1-0.1,0.1-0.1,0.2
				c0,0.1-0.1,0.2-0.1,0.2c0,0.1,0,0.2-0.1,0.3c0,0.1,0,0.2,0,0.4c0,0.1,0,0.2,0,0.3H0.5c0-0.1,0-0.2,0-0.4c0-0.1,0-0.3,0.1-0.4
				c0-0.1,0-0.2,0.1-0.3c0-0.1,0.1-0.2,0.1-0.3c0-0.1,0.1-0.1,0.1-0.2c0,0,0.1-0.1,0.1-0.1c0-0.1,0.1-0.1,0.1-0.2
				C1.2,10.1,1.2,9.9,1.3,9.7L1.3,9.7L1.3,9.7z"/>
			<path class="st83" d="M1.3,9.7c0,0.2-0.1,0.4-0.2,0.6c0,0.1-0.1,0.1-0.1,0.2c0,0-0.1,0.1-0.1,0.1c-0.1,0.1-0.1,0.1-0.1,0.2
				c0,0.1-0.1,0.2-0.1,0.2c0,0.1,0,0.2-0.1,0.3c0,0.1,0,0.2,0,0.4c0,0.1,0,0.2,0,0.3H0.5c0-0.1,0-0.2,0-0.4c0-0.1,0-0.3,0.1-0.4
				c0-0.1,0-0.2,0.1-0.3c0-0.1,0.1-0.2,0.1-0.3c0-0.1,0.1-0.1,0.1-0.2c0,0,0.1-0.1,0.1-0.1c0-0.1,0.1-0.1,0.1-0.2
				C1.2,10.1,1.2,9.9,1.3,9.7L1.3,9.7L1.3,9.7z"/>
			<path class="st84" d="M1.3,9.8c0,0.2-0.1,0.4-0.2,0.6c0,0.1-0.1,0.1-0.1,0.2c0,0-0.1,0.1-0.1,0.1c-0.1,0.1-0.1,0.1-0.1,0.2
				c0,0.1-0.1,0.2-0.1,0.2c0,0.1,0,0.2-0.1,0.3c0,0.1,0,0.3,0,0.4c0,0.1,0,0.2,0,0.3H0.5c0-0.1,0-0.2,0-0.4c0-0.2,0-0.3,0-0.4
				c0-0.1,0-0.2,0.1-0.3c0-0.1,0.1-0.2,0.1-0.3c0-0.1,0.1-0.1,0.1-0.2c0,0,0.1-0.1,0.1-0.1c0-0.1,0.1-0.1,0.1-0.2
				C1.2,10.1,1.2,9.9,1.3,9.8L1.3,9.8L1.3,9.8z"/>
			<path class="st85" d="M1.3,9.8c0,0.2-0.1,0.4-0.2,0.6c0,0.1-0.1,0.1-0.1,0.2c0,0.1-0.1,0.1-0.1,0.1c-0.1,0.1-0.1,0.1-0.1,0.2
				c0,0.1-0.1,0.2-0.1,0.2c0,0.1,0,0.2-0.1,0.3c0,0.1,0,0.2,0,0.4c0,0.1,0,0.2,0,0.3H0.5c0-0.1,0-0.2,0-0.4c0-0.2,0-0.3,0-0.4
				c0-0.1,0-0.2,0.1-0.3c0-0.1,0.1-0.2,0.1-0.3c0-0.1,0.1-0.1,0.1-0.2c0,0,0.1-0.1,0.1-0.1c0-0.1,0.1-0.1,0.1-0.2
				C1.2,10.1,1.2,10,1.3,9.8L1.3,9.8L1.3,9.8L1.3,9.8z"/>
			<path class="st86" d="M1.3,9.8c0,0.2-0.1,0.4-0.2,0.6c0,0.1-0.1,0.1-0.1,0.2c0,0.1-0.1,0.1-0.1,0.1c-0.1,0.1-0.1,0.1-0.1,0.2
				c0,0.1-0.1,0.2-0.1,0.2c0,0.1,0,0.2-0.1,0.3c0,0.1,0,0.2,0,0.4c0,0.1,0,0.2,0,0.3H0.5c0-0.1,0-0.2,0-0.4c0-0.1,0-0.3,0-0.4
				c0-0.1,0-0.2,0.1-0.3c0-0.1,0.1-0.2,0.1-0.3c0-0.1,0.1-0.1,0.1-0.2c0,0,0.1-0.1,0.1-0.1c0-0.1,0.1-0.1,0.1-0.2
				C1.2,10.2,1.2,10,1.3,9.8L1.3,9.8L1.3,9.8L1.3,9.8z"/>
			<path class="st87" d="M1.3,9.8c0,0.2-0.1,0.4-0.2,0.6c0,0.1-0.1,0.1-0.1,0.2c0,0.1-0.1,0.1-0.1,0.1c-0.1,0.1-0.1,0.1-0.1,0.2
				c0,0.1-0.1,0.2-0.1,0.2c0,0.1,0,0.2-0.1,0.3c0,0.1,0,0.2,0,0.4c0,0.1,0,0.2,0,0.3H0.5c0-0.1,0-0.2,0-0.4c0-0.1,0-0.3,0.1-0.4
				c0-0.1,0-0.2,0.1-0.3c0-0.1,0.1-0.2,0.1-0.3c0-0.1,0.1-0.1,0.1-0.2c0,0,0.1-0.1,0.1-0.1c0-0.1,0.1-0.1,0.1-0.2
				C1.2,10.2,1.2,10,1.3,9.8L1.3,9.8L1.3,9.8L1.3,9.8z"/>
			<path class="st88" d="M1.3,9.8c0,0.2-0.1,0.4-0.2,0.6c0,0.1-0.1,0.1-0.1,0.2c0,0.1-0.1,0.1-0.1,0.1c-0.1,0.1-0.1,0.1-0.1,0.2
				c0,0.1-0.1,0.2-0.1,0.2c0,0.1,0,0.2-0.1,0.3c0,0.1,0,0.2,0,0.4c0,0.1,0,0.2,0,0.3H0.5c0-0.1,0-0.2,0-0.4c0-0.1,0-0.3,0-0.4
				c0-0.1,0-0.2,0.1-0.3c0-0.1,0.1-0.2,0.1-0.3c0-0.1,0.1-0.1,0.1-0.2c0,0,0.1-0.1,0.1-0.1c0-0.1,0.1-0.1,0.1-0.2
				C1.2,10.2,1.2,10,1.3,9.8L1.3,9.8L1.3,9.8L1.3,9.8z"/>
			<path class="st89" d="M1.3,9.8c0,0.2-0.1,0.4-0.2,0.6c0,0.1-0.1,0.1-0.1,0.2c0,0.1-0.1,0.1-0.1,0.1c-0.1,0.1-0.1,0.1-0.1,0.2
				c0,0.1-0.1,0.2-0.1,0.2c0,0.1,0,0.2-0.1,0.3c0,0.1,0,0.3,0,0.4c0,0.1,0,0.2,0,0.3H0.5c0-0.1,0-0.2,0-0.4c0-0.1,0-0.3,0-0.4
				c0-0.1,0-0.2,0.1-0.3c0-0.1,0.1-0.2,0.1-0.3c0-0.1,0.1-0.1,0.1-0.2c0,0,0.1-0.1,0.1-0.1c0-0.1,0.1-0.1,0.1-0.2
				C1.2,10.2,1.2,10,1.3,9.8L1.3,9.8L1.3,9.8L1.3,9.8z"/>
			<path class="st90" d="M1.3,9.9c0,0.2-0.1,0.4-0.2,0.6c0,0.1-0.1,0.1-0.1,0.2c0,0.1-0.1,0.1-0.1,0.1c-0.1,0.1-0.1,0.1-0.1,0.2
				c0,0.1-0.1,0.2-0.1,0.2c0,0.1,0,0.2-0.1,0.3c0,0.1,0,0.3,0,0.4c0,0.1,0,0.2,0,0.3H0.5c0-0.1,0-0.2,0-0.4c0-0.2,0-0.3,0-0.4
				c0-0.1,0-0.2,0.1-0.3c0-0.1,0.1-0.2,0.1-0.3c0-0.1,0.1-0.1,0.1-0.2c0,0,0.1-0.1,0.1-0.1c0-0.1,0.1-0.1,0.1-0.2
				C1.2,10.2,1.2,10,1.3,9.9L1.3,9.9L1.3,9.9z"/>
			<path class="st91" d="M1.3,9.9c0,0.2-0.1,0.4-0.2,0.6c0,0.1-0.1,0.1-0.1,0.2c0,0.1-0.1,0.1-0.1,0.1c-0.1,0.1-0.1,0.1-0.1,0.2
				c0,0.1-0.1,0.2-0.1,0.2c0,0.1,0,0.2-0.1,0.3c0,0.1,0,0.3,0,0.4c0,0.1,0,0.2,0,0.3H0.5c0-0.1,0-0.2,0-0.4c0-0.1,0-0.3,0-0.4
				c0-0.1,0-0.2,0.1-0.3c0-0.1,0.1-0.2,0.1-0.3c0-0.1,0.1-0.1,0.1-0.2c0,0,0.1-0.1,0.1-0.1c0-0.1,0.1-0.1,0.1-0.2
				C1.2,10.2,1.2,10.1,1.3,9.9L1.3,9.9L1.3,9.9z"/>
			<path class="st92" d="M1.3,9.9c0,0.2-0.1,0.4-0.2,0.6c0,0.1-0.1,0.1-0.1,0.2c0,0.1-0.1,0.1-0.1,0.1c-0.1,0.1-0.1,0.1-0.1,0.2
				c0,0.1-0.1,0.2-0.1,0.2c0,0.1,0,0.2-0.1,0.3c0,0.1,0,0.3,0,0.4c0,0.1,0,0.2,0,0.3l0,0h0c0-0.1,0-0.2,0-0.4c0-0.1,0-0.3,0-0.4
				c0-0.1,0-0.2,0.1-0.3c0-0.1,0.1-0.2,0.1-0.3c0-0.1,0.1-0.1,0.1-0.2c0,0,0.1-0.1,0.1-0.1c0-0.1,0.1-0.1,0.1-0.2
				C1.2,10.3,1.2,10.1,1.3,9.9L1.3,9.9L1.3,9.9z"/>
			<path class="st93" d="M1.3,9.9c0,0.2-0.1,0.4-0.2,0.6c0,0.1-0.1,0.1-0.1,0.2c0,0.1-0.1,0.1-0.1,0.1c-0.1,0.1-0.1,0.1-0.1,0.2
				c0,0.1-0.1,0.2-0.1,0.2c0,0.1,0,0.2-0.1,0.3c0,0.1,0,0.3,0,0.4c0,0.1,0,0.2,0,0.3H0.5c0-0.1,0-0.2,0-0.4c0-0.1,0-0.3,0-0.4
				c0-0.1,0-0.2,0.1-0.3c0-0.1,0.1-0.2,0.1-0.3c0-0.1,0.1-0.1,0.1-0.2c0-0.1,0.1-0.1,0.1-0.1c0-0.1,0.1-0.1,0.1-0.2
				C1.2,10.3,1.2,10.1,1.3,9.9L1.3,9.9L1.3,9.9z"/>
			<path class="st94" d="M1.3,9.9c0,0.2-0.1,0.4-0.2,0.6c0,0.1-0.1,0.1-0.1,0.2c0,0-0.1,0.1-0.1,0.1c0,0.1-0.1,0.1-0.1,0.2
				c0,0.1-0.1,0.2-0.1,0.2c0,0.1,0,0.2-0.1,0.3c0,0.1,0,0.3,0,0.4c0,0.1,0,0.2,0,0.3l0,0h0c0-0.1,0-0.2,0-0.4c0-0.1,0-0.3,0-0.4
				c0-0.1,0-0.2,0.1-0.3c0-0.1,0.1-0.2,0.1-0.3c0-0.1,0.1-0.1,0.1-0.2c0,0,0.1-0.1,0.1-0.1c0-0.1,0.1-0.1,0.1-0.2
				C1.2,10.3,1.2,10.1,1.3,9.9L1.3,9.9L1.3,9.9L1.3,9.9z"/>
			<path class="st95" d="M1.3,9.9c0,0.2-0.1,0.4-0.2,0.6c0,0.1-0.1,0.1-0.1,0.2c0,0-0.1,0.1-0.1,0.1C0.9,10.9,0.8,11,0.8,11
				c0,0.1-0.1,0.2-0.1,0.2c0,0.1,0,0.2-0.1,0.3c0,0.1,0,0.3,0,0.4c0,0.1,0,0.2,0,0.3l0,0H0.5c0-0.1,0-0.2,0-0.4c0-0.1,0-0.3,0-0.4
				c0-0.1,0-0.2,0.1-0.3c0-0.1,0.1-0.2,0.1-0.3c0-0.1,0.1-0.1,0.1-0.2c0,0,0.1-0.1,0.1-0.1c0-0.1,0.1-0.1,0.1-0.2
				C1.2,10.3,1.2,10.1,1.3,9.9L1.3,9.9L1.3,9.9z"/>
			<path class="st96" d="M1.3,10c0,0.2-0.1,0.4-0.2,0.6c0,0.1-0.1,0.1-0.1,0.2c0,0.1-0.1,0.1-0.1,0.1c0,0-0.1,0.1-0.1,0.2
				c0,0.1-0.1,0.2-0.1,0.2c0,0.1,0,0.2-0.1,0.3c0,0.1,0,0.3,0,0.4c0,0.1,0,0.2,0,0.3H0.5c0-0.1,0-0.2,0-0.4c0-0.1,0-0.3,0-0.4
				c0-0.1,0-0.2,0.1-0.3c0-0.1,0.1-0.2,0.1-0.3c0-0.1,0.1-0.1,0.1-0.2c0,0,0.1-0.1,0.1-0.1c0-0.1,0.1-0.1,0.1-0.2
				C1.2,10.3,1.2,10.1,1.3,10L1.3,10L1.3,10L1.3,10z"/>
			<path class="st97" d="M1.3,10c0,0.2-0.1,0.4-0.2,0.6c0,0.1-0.1,0.1-0.1,0.2c0,0.1-0.1,0.1-0.1,0.1c0,0-0.1,0.1-0.1,0.2
				c0,0.1-0.1,0.2-0.1,0.2c0,0.1,0,0.2-0.1,0.3c0,0.1,0,0.3,0,0.4c0,0.1,0,0.2,0,0.3l0,0H0.5c0-0.1,0-0.2,0-0.4c0-0.1,0-0.3,0-0.4
				c0-0.1,0-0.2,0.1-0.3c0-0.1,0.1-0.2,0.1-0.3c0-0.1,0.1-0.1,0.1-0.2c0-0.1,0.1-0.1,0.1-0.1c0-0.1,0.1-0.1,0.1-0.2
				C1.2,10.3,1.2,10.1,1.3,10L1.3,10L1.3,10L1.3,10z"/>
			<path class="st98" d="M1.3,10c0,0.2-0.1,0.4-0.2,0.6c0,0.1-0.1,0.1-0.1,0.2c0,0.1-0.1,0.1-0.1,0.1c0,0-0.1,0.1-0.1,0.2
				c0,0.1-0.1,0.2-0.1,0.2c0,0.1,0,0.2-0.1,0.3c0,0.1,0,0.3,0,0.4c0,0.1,0,0.2,0,0.3l0,0h0c0-0.1,0-0.2,0-0.4c0-0.1,0-0.3,0-0.4
				c0-0.1,0-0.2,0.1-0.3c0-0.1,0.1-0.2,0.1-0.3c0-0.1,0.1-0.1,0.1-0.2c0,0,0.1-0.1,0.1-0.1c0-0.1,0.1-0.1,0.1-0.2
				C1.2,10.3,1.2,10.2,1.3,10L1.3,10L1.3,10L1.3,10L1.3,10z"/>
			<path class="st99" d="M1.3,10c0,0.2-0.1,0.4-0.2,0.6c0,0.1-0.1,0.1-0.1,0.2c0,0.1-0.1,0.1-0.1,0.2c0,0.1-0.1,0.1-0.1,0.2
				c0,0.1-0.1,0.2-0.1,0.2c0,0.1-0.1,0.2-0.1,0.3c0,0.1,0,0.3,0,0.4c0,0.1,0,0.2,0,0.3l0,0h0c0-0.1,0-0.2,0-0.4c0-0.1,0-0.3,0-0.4
				c0-0.1,0-0.2,0.1-0.3c0-0.1,0.1-0.2,0.1-0.3c0-0.1,0.1-0.1,0.1-0.2c0,0,0.1-0.1,0.1-0.1c0-0.1,0.1-0.1,0.1-0.2
				C1.2,10.4,1.2,10.2,1.3,10L1.3,10L1.3,10L1.3,10z"/>
			<path class="st100" d="M1.3,10c0,0.2-0.1,0.4-0.2,0.6c0,0.1-0.1,0.1-0.1,0.2c0,0-0.1,0.1-0.1,0.1c0,0.1-0.1,0.1-0.1,0.2
				c0,0.1-0.1,0.2-0.1,0.2c0,0.1-0.1,0.2-0.1,0.3c0,0.1,0,0.3,0,0.4c0,0.1,0,0.2,0,0.3l0,0h0c0-0.1,0-0.2,0-0.4c0-0.1,0-0.3,0-0.4
				c0-0.1,0-0.2,0.1-0.3c0-0.1,0.1-0.2,0.1-0.3c0-0.1,0.1-0.1,0.1-0.2c0,0,0.1-0.1,0.1-0.1c0-0.1,0.1-0.1,0.1-0.2
				C1.2,10.4,1.2,10.2,1.3,10L1.3,10L1.3,10L1.3,10z"/>
			<path class="st101" d="M1.3,10c0,0.2-0.1,0.4-0.1,0.6c0,0.1-0.1,0.1-0.1,0.2c0,0-0.1,0.1-0.1,0.1c0,0.1-0.1,0.1-0.1,0.2
				c0,0.1-0.1,0.2-0.1,0.2c0,0.1,0,0.2-0.1,0.3c0,0.1,0,0.3,0,0.4c0,0.1,0,0.2,0,0.3l0,0H0.5c0-0.1,0-0.2,0-0.4c0-0.1,0-0.3,0-0.4
				c0-0.1,0-0.2,0.1-0.3c0-0.1,0.1-0.2,0.1-0.3c0-0.1,0.1-0.1,0.1-0.2c0,0,0.1-0.1,0.1-0.1c0-0.1,0.1-0.1,0.1-0.2
				C1.2,10.4,1.2,10.2,1.3,10L1.3,10L1.3,10L1.3,10z"/>
			<path class="st102" d="M1.3,10c0,0.2-0.1,0.4-0.1,0.6c0,0.1-0.1,0.1-0.1,0.2C1,10.9,1,10.9,0.9,11c0,0.1-0.1,0.1-0.1,0.2
				c0,0.1-0.1,0.2-0.1,0.2c0,0.1,0,0.2-0.1,0.3c0,0.1,0,0.3,0,0.4c0,0.1,0,0.2,0,0.3l0,0h0c0-0.1,0-0.2,0-0.4c0-0.1,0-0.3,0-0.4
				c0-0.1,0-0.2,0.1-0.3c0-0.1,0.1-0.2,0.1-0.3c0-0.1,0.1-0.1,0.1-0.2c0,0,0.1-0.1,0.1-0.1c0-0.1,0.1-0.1,0.1-0.2
				C1.2,10.4,1.2,10.2,1.3,10L1.3,10L1.3,10L1.3,10z"/>
			<path class="st103" d="M1.3,10.1c0,0.2-0.1,0.4-0.1,0.6c0,0.1-0.1,0.1-0.1,0.2C1,10.9,1,10.9,0.9,11c0,0.1-0.1,0.1-0.1,0.2
				c-0.1,0.1-0.1,0.2-0.1,0.2c0,0.1-0.1,0.2-0.1,0.3c0,0.1,0,0.3,0,0.4c0,0.1,0,0.2,0,0.3l0,0h0c0-0.1,0-0.2,0-0.4
				c0-0.1,0-0.3,0-0.4c0-0.1,0-0.2,0.1-0.3c0-0.1,0.1-0.2,0.1-0.3c0-0.1,0.1-0.1,0.1-0.2c0,0,0.1-0.1,0.1-0.1c0-0.1,0.1-0.1,0.1-0.2
				C1.2,10.4,1.2,10.3,1.3,10.1L1.3,10.1L1.3,10.1L1.3,10.1z"/>
			<path class="st104" d="M1.3,10.1c0,0.2-0.1,0.4-0.1,0.6c0,0.1-0.1,0.1-0.1,0.2C1,10.9,1,10.9,0.9,11c0,0.1-0.1,0.1-0.1,0.2
				c0,0.1-0.1,0.2-0.1,0.2c0,0.1-0.1,0.2-0.1,0.3c0,0.1,0,0.3,0,0.4c0,0.1,0,0.2,0,0.3l0,0h0c0-0.1,0-0.2,0-0.4c0-0.1,0-0.3,0-0.4
				c0-0.1,0-0.2,0.1-0.2c0-0.1,0.1-0.2,0.1-0.3c0-0.1,0.1-0.1,0.1-0.2c0,0,0.1-0.1,0.1-0.1c0-0.1,0.1-0.1,0.1-0.2
				C1.2,10.5,1.2,10.3,1.3,10.1L1.3,10.1L1.3,10.1L1.3,10.1z"/>
			<path class="st105" d="M1.3,10.1c0,0.2-0.1,0.4-0.1,0.6c0,0.1-0.1,0.1-0.1,0.2C1,10.9,1,11,0.9,11c0,0.1-0.1,0.1-0.1,0.2
				c0,0.1-0.1,0.2-0.1,0.2c0,0.1-0.1,0.2-0.1,0.3c0,0.1,0,0.3,0,0.4c0,0.1,0,0.2,0,0.3l0,0h0c0-0.1,0-0.2,0-0.4c0-0.1,0-0.3,0-0.4
				c0-0.1,0-0.2,0.1-0.3c0-0.1,0.1-0.2,0.1-0.3c0-0.1,0.1-0.1,0.1-0.2c0,0,0.1-0.1,0.1-0.1c0-0.1,0.1-0.1,0.1-0.2
				C1.2,10.5,1.2,10.3,1.3,10.1L1.3,10.1L1.3,10.1L1.3,10.1z"/>
			<path class="st106" d="M1.3,10.1c0,0.2-0.1,0.4-0.1,0.6c0,0.1-0.1,0.1-0.1,0.2C1,10.9,1,11,0.9,11c0,0.1-0.1,0.1-0.1,0.2
				c0,0.1-0.1,0.2-0.1,0.2c0,0.1,0,0.2-0.1,0.3c0,0.1,0,0.3,0,0.4c0,0.1,0,0.2,0,0.3l0,0h0c0-0.1,0-0.2,0-0.4c0-0.1,0-0.3,0-0.4
				c0-0.1,0-0.2,0.1-0.3c0-0.1,0.1-0.2,0.1-0.3c0-0.1,0.1-0.1,0.1-0.2c0,0,0.1-0.1,0.1-0.1c0-0.1,0.1-0.1,0.1-0.2
				C1.2,10.5,1.2,10.3,1.3,10.1L1.3,10.1L1.3,10.1L1.3,10.1z"/>
			<path class="st107" d="M1.3,10.1c0,0.2-0.1,0.4-0.1,0.6c0,0.1-0.1,0.1-0.1,0.2C1,10.9,1,11,1,11c0,0.1-0.1,0.1-0.1,0.2
				c-0.1,0.1-0.1,0.2-0.1,0.2c0,0.1-0.1,0.2-0.1,0.3c0,0.1,0,0.3,0,0.4c0,0.1,0,0.2,0,0.3l0,0h0c0-0.1,0-0.2,0-0.4
				c0-0.1,0-0.3,0-0.4c0-0.1,0-0.2,0.1-0.3c0-0.1,0.1-0.2,0.1-0.3c0-0.1,0.1-0.1,0.1-0.2C1,11,1,10.9,1,10.9c0-0.1,0.1-0.1,0.1-0.2
				C1.2,10.5,1.2,10.3,1.3,10.1L1.3,10.1L1.3,10.1L1.3,10.1z"/>
			<path class="st108" d="M1.3,10.1c0,0.2-0.1,0.4-0.1,0.6c0,0.1-0.1,0.1-0.1,0.2C1,11,1,11,1,11.1c0,0.1-0.1,0.1-0.1,0.2
				c-0.1,0.1-0.1,0.2-0.1,0.2c0,0.1-0.1,0.2-0.1,0.3c0,0.1,0,0.3,0,0.4c0,0.1,0,0.2,0,0.3l0,0h0c0-0.1,0-0.2,0-0.4
				c0-0.1,0-0.3,0-0.4c0-0.1,0-0.2,0.1-0.3c0-0.1,0.1-0.2,0.1-0.3c0-0.1,0.1-0.1,0.1-0.2C1,11,1,10.9,1,10.9c0-0.1,0.1-0.1,0.1-0.2
				C1.2,10.5,1.2,10.3,1.3,10.1L1.3,10.1L1.3,10.1L1.3,10.1z"/>
			<path class="st109" d="M1.3,10.2c0,0.2-0.1,0.4-0.1,0.6c0,0.1-0.1,0.1-0.1,0.2C1,11,1,11,1,11.1c0,0.1-0.1,0.1-0.1,0.2
				c-0.1,0.1-0.1,0.2-0.1,0.2c0,0.1-0.1,0.2-0.1,0.3c0,0.1,0,0.3,0,0.4c0,0.1,0,0.2,0,0.3l0,0h0c0-0.1,0-0.2,0-0.4
				c0-0.1,0-0.3,0-0.4c0-0.1,0-0.2,0.1-0.3c0-0.1,0.1-0.2,0.1-0.3c0-0.1,0.1-0.1,0.1-0.2C1,11,1,11,1,10.9c0-0.1,0.1-0.1,0.1-0.2
				C1.1,10.5,1.2,10.3,1.3,10.2L1.3,10.2L1.3,10.2L1.3,10.2z"/>
			<path class="st110" d="M1.3,10.2c0,0.2-0.1,0.4-0.1,0.6c0,0.1-0.1,0.1-0.1,0.2C1,11,1,11,1,11.1c0,0.1-0.1,0.1-0.1,0.2
				c-0.1,0.1-0.1,0.2-0.1,0.2c0,0.1-0.1,0.2-0.1,0.3c0,0.1,0,0.3,0,0.4c0,0.1,0,0.2,0,0.3l0,0h0c0-0.1,0-0.2,0-0.4
				c0-0.1,0-0.3,0-0.4c0-0.1,0-0.2,0.1-0.3c0-0.1,0.1-0.2,0.1-0.3c0-0.1,0.1-0.1,0.1-0.2C1,11,1,11,1,10.9c0-0.1,0.1-0.1,0.1-0.2
				C1.2,10.5,1.2,10.4,1.3,10.2L1.3,10.2L1.3,10.2L1.3,10.2z"/>
			<path class="st111" d="M1.3,10.2c0,0.2-0.1,0.4-0.1,0.6c0,0.1-0.1,0.1-0.1,0.2C1,11,1,11.1,1,11.1c0,0.1-0.1,0.1-0.1,0.2
				c-0.1,0.1-0.1,0.2-0.1,0.2c0,0.1-0.1,0.2-0.1,0.3c0,0.1,0,0.3,0,0.4c0,0.1,0,0.2,0,0.3l0,0h0c0-0.1,0-0.2,0-0.4
				c0-0.1,0-0.3,0-0.4c0-0.1,0-0.2,0.1-0.3c0-0.1,0.1-0.2,0.1-0.3c0-0.1,0.1-0.1,0.1-0.2C1,11,1,11,1,10.9c0-0.1,0.1-0.1,0.1-0.2
				C1.2,10.6,1.2,10.4,1.3,10.2L1.3,10.2L1.3,10.2L1.3,10.2L1.3,10.2z"/>
			<path class="st112" d="M1.3,10.2c0,0.2-0.1,0.4-0.1,0.6c0,0.1-0.1,0.1-0.1,0.2C1,11,1,11.1,1,11.1c0,0.1-0.1,0.1-0.1,0.2
				c-0.1,0.1-0.1,0.2-0.1,0.2c0,0.1-0.1,0.2-0.1,0.3c0,0.1,0,0.3,0,0.4c0,0.1,0,0.2,0,0.3l0,0h0c0-0.1,0-0.2,0-0.4
				c0-0.1,0-0.3,0-0.4c0-0.1,0-0.2,0.1-0.3c0-0.1,0.1-0.2,0.1-0.3c0-0.1,0.1-0.1,0.1-0.2C1,11.1,1,11,1,11c0-0.1,0.1-0.1,0.1-0.2
				C1.2,10.6,1.2,10.4,1.3,10.2L1.3,10.2L1.3,10.2L1.3,10.2z"/>
			<path class="st113" d="M1.3,10.2c0,0.2-0.1,0.4-0.1,0.6c0,0.1,0,0.1-0.1,0.2C1,11.1,1,11.1,1,11.2c0,0.1-0.1,0.1-0.1,0.2
				c-0.1,0.1-0.1,0.1-0.1,0.2c0,0.1-0.1,0.2-0.1,0.3c0,0.1,0,0.3,0,0.4c0,0.1,0,0.2,0,0.3l0,0h0c0-0.1,0-0.2,0-0.4
				c0-0.1,0-0.3,0-0.4c0-0.1,0-0.2,0.1-0.2c0-0.1,0.1-0.2,0.1-0.3c0-0.1,0.1-0.1,0.1-0.2C1,11.1,1,11,1,11c0-0.1,0.1-0.1,0.1-0.2
				C1.1,10.6,1.2,10.4,1.3,10.2L1.3,10.2L1.3,10.2L1.3,10.2z"/>
			<path class="st114" d="M1.3,10.2c0,0.2-0.1,0.4-0.1,0.6c0,0.1,0,0.1-0.1,0.2C1,11.1,1,11.1,1,11.2c0,0.1-0.1,0.1-0.1,0.2
				c-0.1,0.1-0.1,0.1-0.1,0.2c0,0.1-0.1,0.2-0.1,0.3c0,0.1,0,0.3,0,0.4c0,0.1,0,0.2,0,0.3l0,0h0c0-0.1,0-0.2,0-0.4
				c0-0.1,0-0.3,0-0.4c0-0.1,0-0.2,0.1-0.3c0-0.1,0.1-0.2,0.1-0.3c0-0.1,0.1-0.1,0.1-0.2C1,11.1,1,11,1,11c0-0.1,0.1-0.1,0.1-0.2
				C1.1,10.6,1.2,10.4,1.3,10.2L1.3,10.2L1.3,10.2L1.3,10.2L1.3,10.2z"/>
			<path class="st115" d="M1.3,10.2c0,0.2-0.1,0.4-0.1,0.6c0,0.1,0,0.1-0.1,0.2C1,11.1,1,11.1,1,11.2c0,0.1-0.1,0.1-0.1,0.2
				c-0.1,0.1-0.1,0.2-0.1,0.2c0,0.1-0.1,0.2-0.1,0.3c0,0.1,0,0.3,0,0.4c0,0.1,0,0.2,0,0.3l0,0h0c0-0.1,0-0.2,0-0.4
				c0-0.1,0-0.3,0-0.4c0-0.1,0-0.2,0.1-0.3c0-0.1,0.1-0.2,0.1-0.3c0.1-0.1,0.1-0.1,0.1-0.2C1,11.1,1,11.1,1,11
				c0-0.1,0.1-0.1,0.1-0.2C1.1,10.6,1.2,10.4,1.3,10.2L1.3,10.2L1.3,10.2L1.3,10.2z"/>
			<path class="st116" d="M1.3,10.3c0,0.2-0.1,0.4-0.1,0.6c0,0.1,0,0.1-0.1,0.2C1,11.1,1,11.2,1,11.2c0,0.1-0.1,0.1-0.1,0.2
				c-0.1,0.1-0.1,0.1-0.1,0.2c0,0.1-0.1,0.2-0.1,0.3c0,0.1,0,0.3,0,0.4c0,0.1,0,0.2,0,0.3l0,0H0.5c0-0.1,0-0.2,0-0.4
				c0-0.1,0-0.3,0-0.4c0-0.1,0-0.2,0.1-0.3c0-0.1,0.1-0.2,0.1-0.3c0.1-0.1,0.1-0.1,0.1-0.2C1,11.1,1,11.1,1,11
				c0-0.1,0.1-0.1,0.1-0.2C1.1,10.6,1.2,10.4,1.3,10.3L1.3,10.3L1.3,10.3L1.3,10.3L1.3,10.3z"/>
			<path class="st117" d="M1.3,10.3c0,0.2-0.1,0.4-0.1,0.6c0,0.1,0,0.1-0.1,0.2C1,11.1,1,11.2,1,11.2c0,0.1-0.1,0.1-0.1,0.2
				c-0.1,0.1-0.1,0.1-0.1,0.2c0,0.1-0.1,0.2-0.1,0.3c0,0.1,0,0.3,0,0.4c0,0.1,0,0.2,0,0.3l0,0h0c0-0.1,0-0.2,0-0.4
				c0-0.1,0-0.3,0-0.4c0-0.1,0-0.2,0.1-0.3c0-0.1,0.1-0.2,0.1-0.3c0.1-0.1,0.1-0.1,0.1-0.2C1,11.1,1,11.1,1,11
				c0-0.1,0.1-0.1,0.1-0.2C1.1,10.6,1.2,10.5,1.3,10.3L1.3,10.3L1.3,10.3L1.3,10.3z"/>
			<path class="st118" d="M1.3,10.3c0,0.1-0.1,0.4-0.1,0.6c0,0.1,0,0.1-0.1,0.2C1,11.1,1,11.2,1,11.2c0,0.1-0.1,0.1-0.1,0.2
				c-0.1,0.1-0.1,0.1-0.1,0.2c0,0.1-0.1,0.2-0.1,0.3c0,0.1,0,0.3,0,0.4c0,0.1,0,0.2,0,0.3l0,0h0c0-0.1,0-0.2,0-0.4
				c0-0.1,0-0.3,0-0.4c0-0.1,0-0.2,0.1-0.3c0-0.1,0.1-0.2,0.1-0.3c0.1-0.1,0.1-0.1,0.1-0.2c0,0,0.1-0.1,0.1-0.2c0-0.1,0-0.1,0.1-0.2
				C1.1,10.7,1.2,10.5,1.3,10.3L1.3,10.3L1.3,10.3L1.3,10.3z"/>
			<path class="st119" d="M1.2,10.3c0,0.2-0.1,0.4-0.1,0.6c0,0.1,0,0.1-0.1,0.2C1,11.1,1,11.2,1,11.3c0,0.1-0.1,0.1-0.1,0.2
				c-0.1,0.1-0.1,0.1-0.1,0.2c0,0.1-0.1,0.2-0.1,0.3c0,0.1,0,0.3,0,0.4c0,0.1,0,0.2,0,0.3l0,0h0c0-0.1,0-0.2,0-0.4
				c0-0.1,0-0.3,0-0.4c0-0.1,0-0.2,0.1-0.3c0-0.1,0.1-0.2,0.1-0.3c0.1-0.1,0.1-0.1,0.1-0.2c0,0,0.1-0.1,0.1-0.2
				c0-0.1,0.1-0.1,0.1-0.2C1.1,10.7,1.2,10.5,1.2,10.3L1.2,10.3L1.2,10.3L1.2,10.3L1.2,10.3z"/>
			<path class="st120" d="M1.2,10.3c0,0.1,0,0.3-0.1,0.6c0,0.1,0,0.1-0.1,0.2C1,11.2,1,11.2,1,11.3c0,0.1-0.1,0.1-0.1,0.2
				c-0.1,0.1-0.1,0.1-0.1,0.2c0,0.1-0.1,0.2-0.1,0.3c0,0.1,0,0.3,0,0.4c0,0.1,0,0.2,0,0.3c0,0,0,0,0,0h0c0-0.1,0-0.2,0-0.4
				c0-0.1,0-0.3,0-0.4c0-0.1,0-0.2,0.1-0.3c0-0.1,0.1-0.2,0.1-0.3c0.1-0.1,0.1-0.1,0.1-0.2c0,0,0.1-0.1,0.1-0.2
				c0-0.1,0.1-0.1,0.1-0.2C1.1,10.7,1.2,10.5,1.2,10.3L1.2,10.3L1.2,10.3L1.2,10.3z"/>
			<path class="st121" d="M1.2,10.3c0,0.2-0.1,0.4-0.1,0.6c0,0.1,0,0.1-0.1,0.2C1,11.2,1,11.2,1,11.3c0,0.1-0.1,0.1-0.1,0.2
				c-0.1,0.1-0.1,0.2-0.1,0.2c0,0.1-0.1,0.2-0.1,0.3c0,0.1,0,0.3,0,0.4c0,0.1,0,0.2,0,0.3l0,0h0c0-0.1,0-0.2,0-0.4
				c0-0.1,0-0.3,0-0.4c0-0.1,0-0.2,0.1-0.2c0-0.1,0.1-0.2,0.1-0.3c0.1-0.1,0.1-0.1,0.1-0.2c0,0,0.1-0.1,0.1-0.2
				C1,11,1.1,11,1.1,10.9C1.1,10.7,1.2,10.5,1.2,10.3L1.2,10.3L1.2,10.3L1.2,10.3z"/>
			<path class="st122" d="M1.2,10.4c0,0.1,0,0.3-0.1,0.6c0,0.1,0,0.1-0.1,0.2C1,11.2,1,11.3,1,11.3c0,0.1-0.1,0.1-0.2,0.2
				c-0.1,0.1-0.1,0.1-0.1,0.2c0,0.1-0.1,0.2-0.1,0.3c0,0.1,0,0.3,0,0.4c0,0.1,0,0.2,0,0.3l0,0h0c0-0.1,0-0.2,0-0.4
				c0-0.1,0-0.3,0-0.4c0-0.1,0-0.2,0.1-0.3c0-0.1,0.1-0.2,0.1-0.3c0.1-0.1,0.1-0.1,0.1-0.2c0,0,0.1-0.1,0.1-0.2
				C1,11,1.1,11,1.1,10.9C1.1,10.7,1.2,10.5,1.2,10.4L1.2,10.4L1.2,10.4L1.2,10.4z"/>
			<path class="st123" d="M1.2,10.4c0,0.1,0,0.3-0.1,0.6c0,0.1,0,0.1-0.1,0.2c0,0.1-0.1,0.1-0.1,0.2c0,0.1-0.1,0.1-0.2,0.2
				c-0.1,0.1-0.1,0.1-0.1,0.2c0,0.1-0.1,0.2-0.1,0.3c0,0.1,0,0.3,0,0.4c0,0.1,0,0.2,0,0.3l0,0h0c0-0.1,0-0.2,0-0.4
				c0-0.1,0-0.3,0-0.4c0-0.1,0-0.2,0.1-0.3c0-0.1,0.1-0.2,0.1-0.3c0.1-0.1,0.1-0.1,0.1-0.2C1,11.3,1,11.2,1,11.1
				c0-0.1,0-0.1,0.1-0.2C1.1,10.7,1.2,10.5,1.2,10.4L1.2,10.4L1.2,10.4L1.2,10.4L1.2,10.4z"/>
			<path class="st124" d="M1.2,10.4c0,0,0,0.3-0.1,0.6c0,0.1,0,0.1-0.1,0.2c0,0.1-0.1,0.1-0.1,0.2c0,0.1-0.1,0.1-0.2,0.2
				c-0.1,0.1-0.1,0.1-0.1,0.2c0,0.1-0.1,0.2-0.1,0.3c0,0.1,0,0.3,0,0.4c0,0.1,0,0.2,0,0.3l0,0h0c0-0.1,0-0.2,0-0.4
				c0-0.1,0-0.3,0-0.4c0-0.1,0-0.2,0.1-0.3c0-0.1,0.1-0.2,0.1-0.3c0.1-0.1,0.1-0.1,0.1-0.2c0,0,0.1-0.1,0.1-0.2c0-0.1,0-0.1,0.1-0.2
				C1.1,10.7,1.2,10.5,1.2,10.4L1.2,10.4L1.2,10.4L1.2,10.4z"/>
			<path class="st125" d="M1.2,10.4c0,0,0,0.3-0.1,0.6c0,0.1,0,0.1-0.1,0.2c0,0.1,0,0.1-0.1,0.2c0,0.1-0.1,0.1-0.2,0.2
				c-0.1,0.1-0.1,0.1-0.1,0.2c0,0.1-0.1,0.2-0.1,0.3c0,0.1,0,0.3,0,0.4c0,0.1,0,0.2,0,0.3l0,0h0c0-0.1,0-0.2,0-0.4
				c0-0.1,0-0.3,0-0.4c0-0.1,0-0.2,0.1-0.3c0-0.1,0.1-0.2,0.1-0.3c0.1-0.1,0.1-0.1,0.1-0.2c0,0,0.1-0.1,0.1-0.2c0-0.1,0-0.1,0.1-0.2
				C1.1,10.7,1.2,10.5,1.2,10.4L1.2,10.4L1.2,10.4L1.2,10.4z"/>
			<path class="st126" d="M1.2,10.4c0,0,0,0.3-0.1,0.6c0,0.1,0,0.1-0.1,0.2c0,0.1,0,0.1-0.1,0.2c0,0.1-0.1,0.1-0.2,0.2
				c-0.1,0.1-0.1,0.1-0.1,0.2c0,0.1-0.1,0.2-0.1,0.3c0,0.1,0,0.3,0,0.4c0,0.1,0,0.3,0,0.3l0,0h0c0-0.1,0-0.2,0-0.4
				c0-0.1,0-0.3,0-0.4c0-0.1,0-0.2,0.1-0.3c0-0.1,0.1-0.2,0.2-0.3c0.1-0.1,0.1-0.1,0.1-0.2c0,0,0.1-0.1,0.1-0.2c0-0.1,0-0.1,0.1-0.2
				C1.1,10.8,1.2,10.5,1.2,10.4L1.2,10.4C1.2,10.4,1.2,10.4,1.2,10.4L1.2,10.4z"/>
			<path class="st127" d="M1.2,10.4c0,0,0,0.3-0.1,0.6c0,0.1,0,0.1-0.1,0.2c0,0.1,0,0.1-0.1,0.2c0,0.1-0.1,0.1-0.2,0.2
				c-0.1,0.1-0.1,0.1-0.1,0.2c0,0.1-0.1,0.2-0.1,0.3c0,0.1,0,0.3,0,0.4c0,0.1,0,0.2,0,0.3l0,0h0c0-0.1,0-0.2,0-0.4
				c0-0.1,0-0.3,0-0.4c0-0.1,0-0.2,0.1-0.3c0-0.1,0.1-0.2,0.1-0.3c0.1-0.1,0.1-0.1,0.1-0.2c0,0,0.1-0.1,0.1-0.2c0-0.1,0-0.1,0.1-0.2
				C1.1,10.8,1.2,10.5,1.2,10.4L1.2,10.4C1.2,10.4,1.2,10.4,1.2,10.4L1.2,10.4z"/>
			<path class="st128" d="M1.2,10.5c0,0,0,0.3-0.1,0.6c0,0.1,0,0.1-0.1,0.2c0,0.1,0,0.1-0.1,0.2c0,0.1-0.1,0.1-0.2,0.2
				c-0.1,0.1-0.1,0.1-0.1,0.2c0,0.1-0.1,0.2-0.1,0.3c0,0.1,0,0.3,0,0.4c0,0.1,0,0.3,0,0.3l0,0h0c0-0.1,0-0.2,0-0.4
				c0-0.1,0-0.3,0-0.4c0-0.1,0-0.2,0.1-0.3c0-0.1,0.1-0.2,0.2-0.2c0.1-0.1,0.1-0.1,0.1-0.2c0,0,0.1-0.1,0.1-0.2c0-0.1,0-0.1,0.1-0.2
				C1.1,10.8,1.2,10.5,1.2,10.5L1.2,10.5C1.2,10.5,1.2,10.5,1.2,10.5L1.2,10.5z"/>
			<path class="st129" d="M1.2,10.5c0,0,0,0.3-0.1,0.6c0,0.1,0,0.1-0.1,0.2c0,0.1,0,0.1-0.1,0.2c0,0.1-0.1,0.1-0.2,0.2
				c-0.1,0.1-0.1,0.1-0.1,0.2c0,0.1-0.1,0.2-0.1,0.3c0,0.1,0,0.3,0,0.4c0,0.1,0,0.3,0,0.3l0,0h0c0-0.1,0-0.2,0-0.4
				c0-0.1,0-0.3,0-0.4c0-0.1,0-0.2,0.1-0.3c0-0.1,0.1-0.2,0.2-0.3c0.1-0.1,0.1-0.1,0.1-0.2c0,0,0.1-0.1,0.1-0.2c0-0.1,0-0.1,0.1-0.2
				C1.1,10.8,1.2,10.5,1.2,10.5L1.2,10.5L1.2,10.5L1.2,10.5z"/>
			<path class="st130" d="M1.2,10.5c0,0,0,0.3-0.1,0.6c0,0.1,0,0.1-0.1,0.2c0,0.1,0,0.1-0.1,0.2c0,0.1-0.1,0.1-0.2,0.2
				c-0.1,0.1-0.1,0.1-0.1,0.2c0,0.1-0.1,0.2-0.1,0.3c0,0.1,0,0.3,0,0.4c0,0.1,0,0.3,0,0.3v0h0c0-0.1,0-0.2,0-0.4c0-0.1,0-0.3,0-0.4
				c0-0.1,0-0.2,0.1-0.2c0-0.1,0.1-0.2,0.2-0.3c0.1-0.1,0.1-0.1,0.1-0.2c0,0,0.1-0.1,0.1-0.2c0-0.1,0-0.1,0.1-0.2
				C1.1,10.8,1.2,10.6,1.2,10.5L1.2,10.5C1.2,10.5,1.2,10.5,1.2,10.5L1.2,10.5z"/>
			<path class="st131" d="M1.2,10.5c0,0,0,0.3-0.1,0.6c0,0.1,0,0.1-0.1,0.2c0,0.1,0,0.1-0.1,0.2c0,0.1-0.1,0.1-0.2,0.2
				c-0.1,0.1-0.1,0.1-0.1,0.2c0,0.1-0.1,0.2-0.1,0.3c0,0.1,0,0.3,0,0.4c0,0.1,0,0.3,0,0.3c0,0,0,0,0,0h0c0-0.1,0-0.2,0-0.4
				c0-0.1,0-0.3,0-0.4c0-0.1,0-0.2,0.1-0.3c0-0.1,0.1-0.2,0.2-0.3c0.1-0.1,0.1-0.1,0.1-0.2c0,0,0.1-0.1,0.1-0.2c0-0.1,0-0.1,0.1-0.2
				C1.1,10.8,1.2,10.6,1.2,10.5L1.2,10.5C1.2,10.5,1.2,10.5,1.2,10.5L1.2,10.5z"/>
			<path class="st132" d="M1.2,10.5c0,0,0,0.3-0.1,0.6c0,0.1,0,0.1-0.1,0.2c0,0.1,0,0.1-0.1,0.2c0,0.1-0.1,0.1-0.2,0.2
				c-0.1,0.1-0.1,0.1-0.1,0.2c0,0.1-0.1,0.2-0.1,0.3c0,0.1,0,0.3,0,0.4c0,0.1,0,0.3,0,0.3v0h0c0-0.1,0-0.2,0-0.4c0-0.1,0-0.3,0-0.4
				c0-0.1,0-0.2,0.1-0.3c0-0.1,0.1-0.2,0.2-0.3c0.1-0.1,0.1-0.1,0.1-0.2c0,0,0.1-0.1,0.1-0.2c0-0.1,0-0.1,0.1-0.2
				C1.1,10.9,1.2,10.6,1.2,10.5L1.2,10.5C1.2,10.5,1.2,10.5,1.2,10.5L1.2,10.5z"/>
			<path class="st71" d="M1.2,10.5c0,0,0,0.3-0.1,0.6c0,0.1,0,0.2-0.1,0.2c0,0.1,0,0.1-0.1,0.2c0,0.1-0.1,0.1-0.2,0.2
				c-0.1,0.1-0.1,0.1-0.1,0.2c0,0.1-0.1,0.2-0.1,0.3c0,0.1,0,0.3,0,0.4c0,0.1,0,0.3,0,0.3l0,0h0c0-0.1,0-0.2,0-0.4
				c0-0.1,0-0.3,0-0.4c0-0.1,0-0.2,0.1-0.3c0-0.1,0.1-0.2,0.2-0.3c0.1-0.1,0.1-0.1,0.1-0.2c0,0,0.1-0.1,0.1-0.2c0-0.1,0-0.1,0.1-0.2
				C1.1,10.9,1.2,10.6,1.2,10.5L1.2,10.5C1.2,10.5,1.2,10.5,1.2,10.5L1.2,10.5z"/>
			<path class="st72" d="M1.2,10.5c0,0,0,0.3-0.1,0.6c0,0.1,0,0.1-0.1,0.2c0,0.1,0,0.1-0.1,0.2c0,0.1-0.1,0.1-0.2,0.2
				c-0.1,0.1-0.1,0.1-0.1,0.2c0,0.1-0.1,0.2-0.1,0.3c0,0.1,0,0.3,0,0.4c0,0.1,0,0.3,0,0.3l0,0h0c0-0.1,0-0.2,0-0.4
				c0-0.1,0-0.3,0-0.4c0-0.1,0-0.2,0.1-0.3c0-0.1,0.1-0.2,0.2-0.3c0.1-0.1,0.1-0.1,0.1-0.2c0,0,0.1-0.1,0.1-0.2c0-0.1,0-0.1,0.1-0.2
				C1.1,10.9,1.2,10.6,1.2,10.5L1.2,10.5L1.2,10.5L1.2,10.5z"/>
			<path class="st73" d="M0.6,12.6c0-0.1,0-0.3,0-0.4c0-0.2,0.1-0.4,0.2-0.5C0.9,11.6,1,11.5,1,11.4c0.1-0.3,0.1-0.5,0.1-0.8h0
				c0,0.3-0.1,0.5-0.1,0.8c0,0.1-0.1,0.3-0.2,0.4c-0.1,0.1-0.2,0.3-0.2,0.5C0.6,12.3,0.6,12.5,0.6,12.6c0,0.1,0,0.3,0.1,0.3h0
				C0.6,12.9,0.6,12.7,0.6,12.6"/>
		</g>
	</g>
	<g>
		<defs>
			<path id="SVGID_17_" d="M11.9,1.1C6.6,1.1,1.7,5.2,1,10.6c0,0.2,0,0.3,0,0.5c0,0.2,0,0.4-0.2,0.6c-0.2,0.2-0.3,0.4-0.3,1
				c0,0.8,0.3,2.5,1.2,4.3c0.9,1.7,2.4,3.1,4.2,4.1c-3.2-2.3-4.7-5.8-4.7-9C1.2,6,6,1.2,12,1.2h0L11.9,1.1L11.9,1.1z"/>
		</defs>
		<clipPath id="SVGID_18_">
			<use xlink:href="#SVGID_17_"  style="overflow:visible;"/>
		</clipPath>
		<g class="st133">
			
				<linearGradient id="SVGID_19_" gradientUnits="userSpaceOnUse" x1="-680.8457" y1="143.6277" x2="-680.6825" y2="143.6277" gradientTransform="matrix(0 121.54 -121.54 0 17462.7695 82751.0703)">
				<stop  offset="0" style="stop-color:#ECEEEB"/>
				<stop  offset="3.000000e-02" style="stop-color:#ECEEEB"/>
				<stop  offset="0.17" style="stop-color:#3B454A"/>
				<stop  offset="0.5" style="stop-color:#00161D"/>
				<stop  offset="0.59" style="stop-color:#061B21"/>
				<stop  offset="0.7" style="stop-color:#16272E"/>
				<stop  offset="0.83" style="stop-color:#313D42"/>
				<stop  offset="0.83" style="stop-color:#333E43"/>
				<stop  offset="0.97" style="stop-color:#485156"/>
				<stop  offset="1" style="stop-color:#485156"/>
			</linearGradient>
			<rect x="0.5" y="1.1" class="st134" width="11.5" height="20"/>
		</g>
	</g>
	<g>
		<defs>
			<path id="SVGID_20_" d="M11.4,1.2L11.4,1.2c5.5,0.1,10,4,10.6,9.3c0,0.3,0.2,0.5,0.4,0.7c0.2,0.2,0.2,0.4,0.2,0.9
				c0,5.9-4.7,10.6-10.6,10.6v0.1H12c6,0,10.8-4.8,10.8-10.8C22.8,6,18,1.1,12,1.1L11.4,1.2z"/>
		</defs>
		<clipPath id="SVGID_21_">
			<use xlink:href="#SVGID_20_"  style="overflow:visible;"/>
		</clipPath>
		<g class="st135">
			
				<linearGradient id="SVGID_22_" gradientUnits="userSpaceOnUse" x1="-681.0212" y1="144.4544" x2="-680.8566" y2="144.4544" gradientTransform="matrix(0 131.64 -131.64 0 19033.0801 89650.8203)">
				<stop  offset="0" style="stop-color:#333E43"/>
				<stop  offset="3.000000e-02" style="stop-color:#333E43"/>
				<stop  offset="0.17" style="stop-color:#2D383D"/>
				<stop  offset="0.5" style="stop-color:#00161D"/>
				<stop  offset="0.83" style="stop-color:#3B454A"/>
				<stop  offset="0.97" style="stop-color:#DEDFDB"/>
				<stop  offset="1" style="stop-color:#DEDFDB"/>
			</linearGradient>
			<rect x="11.4" y="1.1" class="st136" width="11.4" height="21.6"/>
		</g>
	</g>
	<g>
		<defs>
			<rect id="SVGID_23_" x="0.4" y="0.4" width="23.3" height="23.3"/>
		</defs>
		<clipPath id="SVGID_24_">
			<use xlink:href="#SVGID_23_"  style="overflow:visible;"/>
		</clipPath>
		<g class="st137">
			<path class="st2" d="M1.1,12C1.1,6,5.9,1.1,12,1.1c6,0,10.9,4.9,10.9,10.9S18.1,22.9,12,22.9c0,0,0,0,0,0C6,22.9,1.1,18,1.1,12
				 M4.4,4.5c-4.1,4.2-4.1,10.9,0.1,15s10.9,4.1,15-0.1s4.1-10.9-0.1-15c-2-2-4.7-3.1-7.5-3.1C9.2,1.3,6.4,2.5,4.4,4.5"/>
		</g>
	</g>
	<g>
		<defs>
			<path id="SVGID_25_" d="M0.5,12C0.5,5.7,5.7,0.5,12,0.5S23.5,5.7,23.5,12S18.3,23.5,12,23.5l0,0C5.7,23.5,0.5,18.3,0.5,12
				 M0.4,12c0,6.4,5.2,11.6,11.6,11.6S23.6,18.4,23.6,12S18.4,0.4,12,0.4c0,0,0,0,0,0C5.6,0.4,0.4,5.6,0.4,12"/>
		</defs>
		<clipPath id="SVGID_26_">
			<use xlink:href="#SVGID_25_"  style="overflow:visible;"/>
		</clipPath>
		<g class="st138">
			
				<linearGradient id="SVGID_27_" gradientUnits="userSpaceOnUse" x1="-678.4257" y1="146.8964" x2="-678.261" y2="146.8964" gradientTransform="matrix(99.6667 99.6667 -99.6667 99.6667 82261.0312 52979.6797)">
				<stop  offset="0" style="stop-color:#3B454A"/>
				<stop  offset="3.000000e-02" style="stop-color:#3B454A"/>
				<stop  offset="5.000000e-02" style="stop-color:#475055"/>
				<stop  offset="0.1" style="stop-color:#636B6F"/>
				<stop  offset="0.14" style="stop-color:#777E81"/>
				<stop  offset="0.19" style="stop-color:#83898C"/>
				<stop  offset="0.24" style="stop-color:#878D90"/>
				<stop  offset="0.5" style="stop-color:#6C7275"/>
				<stop  offset="0.64" style="stop-color:#707679"/>
				<stop  offset="0.78" style="stop-color:#7C8285"/>
				<stop  offset="0.93" style="stop-color:#909699"/>
				<stop  offset="0.97" style="stop-color:#989EA1"/>
				<stop  offset="0.97" style="stop-color:#989EA1"/>
				<stop  offset="1" style="stop-color:#989EA1"/>
			</linearGradient>
			<polygon class="st139" points="-11.1,12 12,-11.1 35.1,12 12,35.1 			"/>
		</g>
	</g>
	<g>
		<defs>
			<path id="SVGID_28_" d="M2,12C2,6.5,6.5,2,12,2s10,4.5,10,10s-4.5,10-10,10S2,17.5,2,12L2,12 M1.9,12c0,5.6,4.5,10.1,10.1,10.1
				S22.1,17.6,22.1,12S17.6,1.9,12,1.9S1.9,6.4,1.9,12C1.9,12,1.9,12,1.9,12"/>
		</defs>
		<clipPath id="SVGID_29_">
			<use xlink:href="#SVGID_28_"  style="overflow:visible;"/>
		</clipPath>
		<g class="st140">
			
				<linearGradient id="SVGID_30_" gradientUnits="userSpaceOnUse" x1="-686.7769" y1="151.1185" x2="-686.6122" y2="151.1185" gradientTransform="matrix(-98.705 -98.705 98.705 -98.705 -82684.3203 -52852)">
				<stop  offset="0" style="stop-color:#3B454A"/>
				<stop  offset="3.000000e-02" style="stop-color:#3B454A"/>
				<stop  offset="0.1" style="stop-color:#485155"/>
				<stop  offset="0.23" style="stop-color:#5C6367"/>
				<stop  offset="0.37" style="stop-color:#686E71"/>
				<stop  offset="0.5" style="stop-color:#6C7275"/>
				<stop  offset="0.64" style="stop-color:#707679"/>
				<stop  offset="0.78" style="stop-color:#7C8285"/>
				<stop  offset="0.93" style="stop-color:#909699"/>
				<stop  offset="0.97" style="stop-color:#989EA1"/>
				<stop  offset="0.97" style="stop-color:#989EA1"/>
				<stop  offset="1" style="stop-color:#989EA1"/>
			</linearGradient>
			<polygon class="st141" points="-8.2,12 12,-8.2 32.3,12 12,32.2 			"/>
		</g>
	</g>
	<g>
		<defs>
			<rect id="SVGID_31_" x="0.4" y="0.4" width="23.3" height="23.3"/>
		</defs>
		<clipPath id="SVGID_32_">
			<use xlink:href="#SVGID_31_"  style="overflow:visible;"/>
		</clipPath>
		<g class="st142">
			<path class="st143" d="M12,1.5v10.6l1.7-1l-1.3-9.2C12.3,1.8,12.2,1.6,12,1.5"/>
			<path class="st144" d="M12,1.5c0,0,0,10.6,0,10.6s1.7-1,1.7-1.1c0,0-1.3-9.1-1.3-9.2C12.3,1.8,12.2,1.6,12,1.5"/>
			<path class="st145" d="M12,1.5c0,0,0,10.6,0,10.6c0,0,1.7-1,1.7-1.1c0,0-1.3-9.1-1.3-9.1C12.3,1.8,12.2,1.6,12,1.5"/>
			<path class="st146" d="M12,1.5c0,0,0,10.6,0,10.6c0,0,1.7-1,1.6-1.2c0,0-1.3-9-1.3-9C12.3,1.7,12.2,1.6,12,1.5"/>
			<path class="st147" d="M12,1.5c0,0,0,10.6,0,10.6c0.1,0,1.6-1,1.6-1.3c0,0-1.2-8.9-1.2-8.9C12.3,1.7,12.2,1.6,12,1.5"/>
			<path class="st148" d="M12,1.5c0,0,0,10.6,0,10.6c0.1-0.1,1.6-1,1.6-1.4c0,0-1.2-8.8-1.2-8.8C12.3,1.7,12.2,1.6,12,1.5"/>
			<path class="st149" d="M12,1.5c0,0,0,10.6,0,10.6c0.1-0.1,1.6-1.1,1.6-1.5c0,0-1.2-8.7-1.2-8.7C12.3,1.7,12.2,1.6,12,1.5"/>
			<path class="st150" d="M12,1.5c0,0,0,10.5,0,10.5c0.1-0.1,1.6-1.1,1.6-1.5c0,0-1.2-8.6-1.2-8.7C12.3,1.7,12.2,1.6,12,1.5"/>
			<path class="st151" d="M12,1.5c0,0,0,10.5,0,10.5c0.1-0.1,1.6-1.1,1.5-1.6c0,0-1.2-8.6-1.2-8.6C12.3,1.7,12.2,1.6,12,1.5"/>
			<path class="st152" d="M12,1.5c0,0,0,10.5,0,10.5c0.1-0.1,1.6-1.1,1.5-1.7c0-0.1-1.1-8.5-1.1-8.5C12.3,1.7,12.2,1.6,12,1.5"/>
			<path class="st153" d="M12,1.5c0,0,0,10.5,0,10.5c0.2-0.1,1.5-1.1,1.5-1.8c0-0.1-1.1-8.4-1.1-8.4C12.3,1.7,12.2,1.6,12,1.5"/>
			<path class="st154" d="M12,1.5c0,0,0,10.5,0,10.5c0.2-0.1,1.5-1.1,1.5-1.9c0-0.1-1.1-8.3-1.1-8.3C12.3,1.7,12.2,1.6,12,1.5"/>
			<path class="st155" d="M12,1.5c0,0,0,10.5,0,10.5c0.2-0.1,1.5-1.1,1.4-1.9c0-0.1-1.1-8.2-1.1-8.2C12.3,1.7,12.1,1.6,12,1.5"/>
			<path class="st156" d="M12,1.5c0,0,0,10.5,0,10.5c0.2-0.1,1.5-1.1,1.4-2c0-0.1-1.1-8.1-1.1-8.2C12.3,1.7,12.1,1.6,12,1.5"/>
			<path class="st157" d="M12,1.5c0,0,0,10.5,0,10.5c0.2-0.2,1.5-1.1,1.4-2.1c0-0.1-1.1-8.1-1.1-8.1C12.3,1.7,12.1,1.6,12,1.5"/>
			<path class="st158" d="M12,1.5c0,0,0,10.5,0,10.5c0.2-0.2,1.5-1.2,1.4-2.2c0-0.1-1-8-1.1-8C12.3,1.7,12.1,1.6,12,1.5"/>
			<path class="st159" d="M12,1.5c0,0,0,10.5,0,10.5c0.3-0.2,1.4-1.2,1.4-2.3c0-0.1-1-7.9-1-7.9C12.3,1.7,12.1,1.6,12,1.5"/>
			<path class="st160" d="M12,1.5c0,0,0,10.5,0,10.5c0.3-0.2,1.4-1.2,1.3-2.3c0-0.1-1-7.8-1-7.8C12.3,1.7,12.1,1.6,12,1.5"/>
			<path class="st161" d="M12,1.5c0,0,0,10.5,0,10.5c0.3-0.2,1.4-1.2,1.3-2.4c0-0.1-1-7.7-1-7.8C12.3,1.7,12.1,1.6,12,1.5"/>
			<path class="st162" d="M12,1.5c0,0,0,10.5,0,10.5c0.3-0.2,1.4-1.2,1.3-2.5c0-0.1-1-7.6-1-7.7C12.2,1.7,12.1,1.6,12,1.5"/>
			<path class="st163" d="M12,1.5c0,0,0,10.5,0,10.5c0.3-0.2,1.4-1.2,1.3-2.6c0-0.1-1-7.6-1-7.6C12.2,1.7,12.1,1.6,12,1.5"/>
			<path class="st164" d="M12,1.5c0,0,0,10.5,0,10.5c0.3-0.2,1.4-1.2,1.2-2.7c0-0.1-0.9-7.5-0.9-7.5C12.2,1.7,12.1,1.6,12,1.5"/>
			<path class="st165" d="M12,1.5c0,0,0,10.5,0,10.5c0.8-0.7,1.3-1.7,1.2-2.7c0-0.1-0.9-7.4-0.9-7.4C12.2,1.7,12.1,1.6,12,1.5"/>
			<path class="st166" d="M12,1.5c0,0,0,10.5,0,10.5c0.8-0.7,1.3-1.7,1.2-2.8c0-0.1-0.9-7.3-0.9-7.3C12.2,1.7,12.1,1.6,12,1.5"/>
			<path class="st167" d="M12,1.5c0,0,0,10.5,0,10.5c0.4-0.3,1.3-1.3,1.2-2.9c0-0.1-0.9-7.2-0.9-7.3C12.2,1.7,12.1,1.6,12,1.5"/>
			<path class="st168" d="M12,1.5c0,0,0,10.5,0,10.5c0.4-0.3,1.3-1.3,1.2-3c0-0.1-0.9-7.1-0.9-7.2C12.2,1.7,12.1,1.6,12,1.5"/>
			<path class="st169" d="M12,1.5c0,0,0,10.5,0,10.5c0.4-0.3,1.3-1.3,1.1-3c0-0.1-0.9-7.1-0.9-7.1C12.2,1.7,12.1,1.6,12,1.5"/>
			<path class="st170" d="M12,1.5c0,0,0,10.5,0,10.5c0.4-0.3,1.3-1.3,1.1-3.1c0-0.2-0.8-7-0.8-7C12.2,1.7,12.1,1.6,12,1.5"/>
			<path class="st171" d="M12,1.5c0,0,0,10.5,0,10.5c0.4-0.3,1.2-1.3,1.1-3.2c0-0.2-0.8-6.9-0.8-6.9C12.2,1.7,12.1,1.6,12,1.5"/>
			<path class="st172" d="M12,1.5c0,0,0,10.4,0,10.4c0.5-0.3,1.2-1.3,1.1-3.3c0-0.2-0.8-6.8-0.8-6.9C12.2,1.7,12.1,1.6,12,1.5"/>
			<path class="st173" d="M12,1.5c0,0,0,10.4,0,10.4c0.5-0.3,1.2-1.3,1-3.4c0-0.2-0.8-6.7-0.8-6.8C12.2,1.7,12.1,1.6,12,1.5"/>
			<path class="st174" d="M12,1.5c0,0,0,10.4,0,10.4c0.5-0.3,1.2-1.3,1-3.4c0-0.2-0.8-6.6-0.8-6.7C12.2,1.7,12.1,1.6,12,1.5"/>
			<path class="st175" d="M12,1.5c0,0,0,10.4,0,10.4c0.5-0.4,1.2-1.4,1-3.5c0-0.2-0.8-6.6-0.8-6.6C12.2,1.7,12.1,1.6,12,1.5"/>
			<path class="st176" d="M12,1.5c0,0,0,10.4,0,10.4c0.5-0.4,1.2-1.4,1-3.6c0-0.2-0.7-6.5-0.7-6.5C12.2,1.7,12.1,1.6,12,1.5"/>
			<path class="st177" d="M12,1.5c0,0,0,10.4,0,10.4c0.5-0.4,1.1-1.4,1-3.7c0-0.2-0.7-6.4-0.7-6.4C12.2,1.7,12.1,1.6,12,1.5"/>
			<path class="st178" d="M12,1.5c0,0,0,10.4,0,10.4c0.6-0.4,1.1-1.4,0.9-3.8c0-0.2-0.7-6.3-0.7-6.4C12.2,1.7,12.1,1.6,12,1.5"/>
			<path class="st179" d="M12,1.5c0,0,0,10.4,0,10.4c0.6-0.4,1.1-1.4,0.9-3.8c0-0.2-0.7-6.2-0.7-6.3C12.2,1.7,12.1,1.6,12,1.5"/>
			<path class="st180" d="M12,1.5c0,0,0,10.4,0,10.4c0.6-0.4,1.1-1.4,0.9-3.9c0-0.2-0.7-6.1-0.7-6.2C12.2,1.7,12.1,1.6,12,1.5"/>
			<path class="st181" d="M12,1.5c0,0,0,10.4,0,10.4c0.6-0.4,1.1-1.4,0.9-4c0-0.2-0.7-6.1-0.7-6.1C12.2,1.7,12.1,1.6,12,1.5"/>
			<path class="st182" d="M12,1.5c0,0,0,10.4,0,10.4c0.6-0.4,1.1-1.4,0.8-4.1c0-0.2-0.6-6-0.6-6C12.2,1.7,12.1,1.6,12,1.5"/>
			<path class="st183" d="M12,1.5c0,0,0,10.4,0,10.4c0.6-0.4,1-1.4,0.8-4.2c0-0.2-0.6-5.9-0.6-6C12.2,1.7,12.1,1.6,12,1.5"/>
			<path class="st184" d="M12,1.5c0,0,0,10.4,0,10.4c0.7-0.5,1-1.5,0.8-4.2c0-0.2-0.6-5.8-0.6-5.9C12.2,1.7,12.1,1.6,12,1.5"/>
			<path class="st185" d="M12,1.5c0,0,0,10.4,0,10.4c0.7-0.5,1-1.5,0.8-4.3c0-0.2-0.6-5.7-0.6-5.8C12.2,1.7,12.1,1.6,12,1.5"/>
			<path class="st186" d="M12,1.5l0,10.4c0.7-0.5,1-1.5,0.8-4.4c0-0.2-0.6-5.6-0.6-5.7C12.2,1.7,12.1,1.6,12,1.5"/>
			<path class="st187" d="M12,1.5l0,10.4c0.7-0.5,1-1.5,0.7-4.5c0-0.3-0.6-5.6-0.6-5.6C12.2,1.7,12.1,1.6,12,1.5"/>
			<path class="st188" d="M12,1.5l0,10.4c0.7-0.5,1-1.5,0.7-4.5c0-0.3-0.5-5.5-0.5-5.5C12.2,1.7,12.1,1.6,12,1.5"/>
			<path class="st189" d="M12,1.5l0,10.4c0.7-0.5,0.9-1.5,0.7-4.6c0-0.3-0.5-5.4-0.5-5.5C12.2,1.7,12.1,1.6,12,1.5"/>
			<path class="st190" d="M12,1.5l0,10.4c0.7-0.5,0.9-1.5,0.7-4.7c0-0.3-0.5-5.3-0.5-5.4C12.2,1.7,12.1,1.6,12,1.5"/>
			<path class="st191" d="M12,1.5l0,10.4c0.8-0.5,0.9-1.5,0.6-4.8c0-0.3-0.5-5.2-0.5-5.3C12.2,1.7,12.1,1.6,12,1.5"/>
			<path class="st192" d="M12,1.5l0,10.4c0.8-0.5,0.9-1.5,0.6-4.9c0-0.3-0.5-5.1-0.5-5.2C12.2,1.7,12.1,1.6,12,1.5"/>
			<path class="st193" d="M12,1.5l0,10.3c0.8-0.6,0.9-1.6,0.6-4.9c0-0.3-0.5-5.1-0.5-5.1C12.2,1.7,12.1,1.6,12,1.5"/>
			<path class="st194" d="M12,1.5l0,10.3c0.8-0.6,0.9-1.6,0.6-5c0-0.3-0.4-5-0.4-5C12.1,1.7,12.1,1.6,12,1.5"/>
			<path class="st195" d="M12,1.5l0,10.3c0.8-0.6,0.8-1.6,0.6-5.1c0-0.3-0.4-4.9-0.4-5C12.1,1.7,12.1,1.6,12,1.5"/>
			<path class="st196" d="M12,1.5l0,10.3c0.8-0.6,0.8-1.6,0.5-5.2c0-0.3-0.4-4.8-0.4-4.9C12.1,1.7,12.1,1.6,12,1.5"/>
			<path class="st197" d="M12,1.5l0.1,10.3c0.9-0.6,0.8-1.6,0.5-5.3c0-0.3-0.4-4.7-0.4-4.8C12.1,1.7,12.1,1.6,12,1.5"/>
			<path class="st198" d="M12,1.5l0.1,10.3c0.9-0.6,0.8-1.6,0.5-5.3c0-0.3-0.4-4.6-0.4-4.7C12.1,1.7,12.1,1.6,12,1.5"/>
			<path class="st199" d="M12,1.5l0.1,10.3c0.9-0.6,0.8-1.6,0.5-5.4c0-0.3-0.3-4.6-0.4-4.6C12.1,1.7,12.1,1.6,12,1.5"/>
			<path class="st200" d="M12,1.5l0.1,10.3c0.9-0.6,0.8-1.6,0.4-5.5c0-0.3-0.3-4.5-0.3-4.6C12.1,1.7,12.1,1.6,12,1.5"/>
			<path class="st201" d="M12,1.5l0.1,10.3c0.9-0.6,0.7-1.6,0.4-5.6c0-0.3-0.3-4.4-0.3-4.5C12.1,1.7,12.1,1.6,12,1.5"/>
			<path class="st202" d="M12,1.5l0.1,10.3c0.9-0.7,0.7-1.7,0.4-5.7c0-0.3-0.3-4.3-0.3-4.4C12.1,1.7,12.1,1.6,12,1.5"/>
			<path class="st203" d="M12,1.5l0.1,10.3c1-0.7,0.7-1.7,0.4-5.7c0-0.3-0.3-4.2-0.3-4.3C12.1,1.7,12.1,1.6,12,1.5"/>
			<path class="st204" d="M12.1,1.8c0-0.1-0.1-0.2-0.1-0.3l0.1,10.3c1-0.7,0.7-1.7,0.4-5.8C12.4,5.7,12.2,1.9,12.1,1.8"/>
			<polygon class="st188" points="12,12 12,14 16.3,15.7 20.5,17.4 21.1,17.2 16.5,14.6 14.3,13.3 			"/>
			<path class="st205" d="M12,12L12,12c0,0.1,0,2,0,2c0,0,4.2,1.7,4.2,1.7l4.2,1.7l0.1,0l0.5-0.2l-1.4-0.8l-3.1-1.8l-2.3-1.3L12,12"
				/>
			<path class="st206" d="M12,12L12,12c0,0.1,0,2,0.1,2s4.2,1.7,4.2,1.7l4.1,1.7l0.1,0l0.5-0.2c0,0-1.4-0.8-1.4-0.8l-3.1-1.8
				l-2.3-1.3L12,12"/>
			<path class="st207" d="M12,12L12,12c0,0.1,0.1,2,0.1,2c0.1,0,4.2,1.7,4.2,1.7l4.1,1.7c0,0,0.1,0,0.1,0s0.5-0.2,0.5-0.2l-1.4-0.8
				l-3.1-1.8l-2.3-1.3L12,12"/>
			<path class="st208" d="M12,12L12,12c0,0.1,0.1,2,0.2,2c0.1,0.1,4.2,1.7,4.2,1.7l4.1,1.7c0,0,0.1,0,0.1,0c0,0,0.5-0.2,0.5-0.2
				l-1.4-0.8l-3.1-1.8l-2.3-1.3L12,12"/>
			<path class="st208" d="M12,12L12,12c0,0.1,0.1,2,0.2,2c0.1,0.1,4.1,1.7,4.1,1.7l4.1,1.6c0,0,0.1,0,0.1,0c0,0,0.5-0.2,0.5-0.2
				l-1.4-0.8l-3.1-1.8l-2.3-1.3L12,12"/>
			<path class="st209" d="M12,12L12,12c0,0.1,0.1,1.9,0.3,2s4.1,1.7,4.1,1.7l4.1,1.6c0,0,0.1,0,0.1,0c0,0,0.5-0.2,0.5-0.2l-1.4-0.8
				l-3.1-1.8l-2.3-1.3L12,12"/>
			<path class="st210" d="M12,12L12,12c0,0.2,0.2,1.9,0.3,2c0.1,0.1,4.1,1.7,4.1,1.7l4.1,1.6c0,0,0.1,0,0.1,0c0,0,0.5-0.2,0.5-0.2
				l-1.4-0.8l-3.1-1.8l-2.3-1.3L12,12"/>
			<path class="st183" d="M12,12L12,12c0,0.2,0.2,1.9,0.3,2c0.2,0.1,4,1.7,4,1.7l4.1,1.6c0,0,0.1,0,0.1,0c0,0,0.5-0.2,0.5-0.2
				l-1.4-0.8l-3.1-1.8l-2.3-1.3L12,12"/>
			<path class="st182" d="M12,12L12,12c0,0.2,0.2,1.9,0.4,2.1c0.2,0.1,4,1.7,4,1.7l4.1,1.6c0,0,0.1,0,0.1,0c0,0,0.5-0.2,0.5-0.2
				l-1.4-0.8l-3.1-1.8l-2.3-1.3L12,12"/>
			<path class="st211" d="M12,12L12,12c0,0.2,0.2,1.9,0.4,2.1c0.2,0.1,4,1.7,4,1.7l4,1.6c0,0,0.1,0,0.1,0c0,0,0.5-0.2,0.5-0.2
				l-1.4-0.8l-3.1-1.8l-2.3-1.3L12,12"/>
			<path class="st212" d="M12,12L12,12c0,0.2,0.3,1.9,0.5,2.1c0.2,0.1,3.9,1.7,3.9,1.7l4,1.6c0,0,0.1,0,0.1,0c0,0,0.5-0.2,0.5-0.2
				l-1.4-0.8l-3.1-1.8l-2.3-1.3L12,12"/>
			<path class="st212" d="M12,12L12,12c0,0.2,0.3,1.9,0.5,2.1s3.9,1.7,3.9,1.7l4,1.6c0,0,0.1,0,0.1,0c0,0,0.5-0.2,0.5-0.2l-1.4-0.8
				l-3.1-1.8l-2.3-1.3L12,12"/>
			<path class="st180" d="M12,12L12,12c0,0.2,0.3,1.9,0.6,2.1c0.3,0.2,3.9,1.7,3.9,1.7l4,1.6c0,0,0.1,0,0.1,0c0,0,0.5-0.2,0.5-0.2
				l-1.4-0.8l-3.1-1.8l-2.3-1.3L12,12"/>
			<path class="st213" d="M12,12L12,12c0,0.2,0.3,1.9,0.6,2.1s3.8,1.7,3.8,1.7l4,1.6c0,0,0.1,0,0.1,0c0,0,0.4-0.2,0.5-0.2l-1.4-0.8
				c-0.2-0.1-2.8-1.6-3.1-1.8l-2.3-1.3L12,12"/>
			<path class="st214" d="M12,12L12,12c0,0.2,0.4,1.9,0.7,2.1s3.8,1.7,3.8,1.7l4,1.6c0,0,0.1,0,0.1,0c0,0,0.4-0.2,0.5-0.2l-1.4-0.8
				l-3.1-1.8l-2.3-1.3L12,12"/>
			<path class="st215" d="M12,12L12,12c0,0.3,0.4,1.9,0.7,2.1c0.3,0.2,3.8,1.7,3.8,1.7l4,1.6c0,0,0.1,0,0.1,0c0,0,0.4-0.2,0.5-0.2
				l-1.4-0.8l-3.1-1.8c-0.2-0.1-2.1-1.2-2.3-1.3L12,12"/>
			<path class="st216" d="M12,12L12,12c0,0.3,0.4,1.9,0.7,2.1c0.3,0.2,3.8,1.7,3.8,1.7l4,1.6c0,0,0.1,0,0.1,0c0,0,0.4-0.2,0.5-0.2
				l-1.4-0.8l-3.1-1.8l-2.3-1.3L12,12"/>
			<path class="st216" d="M12,12L12,12c0,0.3,0.4,1.9,0.8,2.1s3.7,1.6,3.7,1.6l4,1.6c0,0,0.1,0,0.1,0c0,0,0.4-0.1,0.5-0.2l-1.4-0.8
				l-3.1-1.8l-2.3-1.3L12,12"/>
			<path class="st176" d="M12,12L12,12c0,0.3,0.4,1.9,0.8,2.1c0.4,0.3,3.7,1.6,3.7,1.6l3.9,1.6c0,0,0.1,0,0.1,0c0,0,0.4-0.1,0.5-0.2
				l-1.4-0.8l-3.1-1.8l-2.3-1.3L12,12"/>
			<path class="st217" d="M12,12L12,12c0.1,0.3,0.5,1.9,0.9,2.2c0.4,0.3,3.7,1.6,3.7,1.6l3.9,1.6c0,0,0.1,0,0.1,0
				c0.2-0.1,0.3-0.1,0.5-0.2l-1.4-0.8l-3.1-1.8l-2.3-1.3L12,12"/>
			<path class="st218" d="M12,12L12,12c0.1,0.3,0.5,1.9,0.9,2.2s3.6,1.6,3.6,1.6l3.9,1.6c0,0,0.1,0,0.1,0c0.2-0.1,0.3-0.1,0.5-0.2
				l-1.4-0.8l-3.1-1.8l-2.3-1.3L12,12"/>
			<path class="st219" d="M12,12L12,12c0.1,0.3,0.5,1.9,1,2.2s3.6,1.6,3.6,1.6l3.9,1.6c0,0,0.1,0,0.1,0c0.2,0,0.3-0.1,0.5-0.2
				l-1.4-0.8l-3.1-1.8l-2.3-1.3L12,12"/>
			<path class="st220" d="M12,12v0.1c0.1,0.2,0.5,1.8,1,2.1c0.5,0.3,3.6,1.6,3.6,1.6l3.9,1.6c0,0,0.1,0,0.1,0
				c0.2-0.1,0.3-0.1,0.5-0.2l-1.4-0.8l-3.1-1.8l-2.3-1.3L12,12"/>
			<path class="st221" d="M12,12v0.1c0.1,0.2,0.6,1.8,1,2.1c0.5,0.3,3.5,1.6,3.5,1.6l3.9,1.6c0,0,0.1,0,0.1,0c0.2,0,0.3-0.1,0.5-0.2
				c0,0-1.1-0.6-1.4-0.8l-3.1-1.8l-2.3-1.3L12,12"/>
			<path class="st221" d="M12,12v0.1c0.1,0.2,0.6,1.8,1.1,2.1c0.5,0.3,3.5,1.6,3.5,1.6l3.9,1.6c0,0,0.1,0,0.1,0
				c0.2,0,0.3-0.1,0.5-0.2l-1.4-0.8l-3.1-1.8l-2.3-1.3L12,12"/>
			<path class="st222" d="M12,12v0.1c0.1,0.3,0.6,1.8,1.1,2.1c0.5,0.3,3.5,1.6,3.5,1.6l3.9,1.6c0,0,0.1,0,0.1,0
				c0.2,0,0.3-0.1,0.5-0.2l-1.4-0.8l-3.1-1.8l-2.3-1.3C13.7,13,12,12,12,12"/>
			<path class="st223" d="M12,12v0.1c0.1,0.3,0.6,1.8,1.2,2.1s3.5,1.6,3.5,1.6l3.9,1.5c0,0,0.1,0,0.1,0c0.2,0,0.3-0.1,0.5-0.2
				l-1.4-0.8l-3.1-1.8l-2.3-1.3L12,12"/>
			<path class="st224" d="M12,12v0.1c0.1,0.3,0.7,1.7,1.2,2.1c0.6,0.4,3.4,1.6,3.4,1.6l3.8,1.5c0,0,0.1,0,0.1,0
				c0.2,0,0.3-0.1,0.5-0.2l-1.4-0.8l-3.1-1.8l-2.3-1.3L12,12"/>
			<path class="st225" d="M12,12v0.1c0.1,0.3,0.7,1.7,1.3,2.1c0.6,0.4,3.4,1.6,3.4,1.6l3.8,1.5c0,0,0.1,0,0.1,0
				c0.2,0,0.3-0.1,0.5-0.2l-1.4-0.8l-3.1-1.8l-2.3-1.3L12,12"/>
			<path class="st225" d="M12,12v0.1c0.1,0.3,0.7,1.7,1.3,2.1c0.6,0.4,3.4,1.6,3.4,1.6l3.8,1.5c0,0,0.1,0,0.1,0
				c0.2,0,0.3-0.1,0.5-0.2l-1.4-0.8l-3.1-1.8l-2.3-1.3L12,12"/>
			<path class="st226" d="M12,12v0.1c0.1,0.3,0.7,1.7,1.4,2.1c0.6,0.4,3.3,1.6,3.3,1.6l3.8,1.5c0,0,0.1,0,0.1,0
				c0.2,0,0.3-0.1,0.5-0.2l-1.4-0.8l-3.1-1.8l-2.3-1.3L12,12"/>
			<path class="st168" d="M12,12v0.1c0.1,0.3,0.7,1.7,1.4,2.2c0.6,0.4,3.3,1.6,3.3,1.6l3.8,1.5c0,0,0.1,0,0.1,0
				c0.2,0,0.3-0.1,0.5-0.2l-1.4-0.8l-3.1-1.8c-0.4-0.2-1.9-1.1-2.3-1.3L12,12"/>
			<path class="st227" d="M12,12v0.1c0.1,0.3,0.8,1.7,1.4,2.2c0.7,0.4,3.3,1.6,3.3,1.6l3.8,1.5c0,0,0.1,0,0.1,0
				c0.2,0,0.3-0.1,0.5-0.2l-1.4-0.8l-3.1-1.8l-2.3-1.3L12,12"/>
			<path class="st228" d="M12,12v0.1c0.1,0.3,0.8,1.7,1.5,2.2c0.7,0.5,3.2,1.6,3.2,1.6l3.8,1.5c0,0,0.1,0,0.1,0
				c0.2,0,0.3-0.1,0.5-0.2l-1.4-0.8l-3.1-1.8l-2.3-1.3L12,12"/>
			<path class="st229" d="M12,12v0.1c0.1,0.3,0.8,1.7,1.5,2.2s3.2,1.6,3.2,1.6l3.8,1.5c0,0,0.1,0,0.1,0c0.2,0,0.3-0.1,0.5-0.2
				l-1.4-0.8l-3.1-1.8l-2.3-1.3L12,12"/>
			<path class="st230" d="M12,12v0.1c0.1,0.4,0.8,1.7,1.6,2.2c0.7,0.5,3.2,1.6,3.2,1.6l3.7,1.5c0,0,0.1,0,0.1,0
				c0.2,0,0.3-0.1,0.5-0.2l-1.4-0.8l-3.1-1.8l-2.3-1.3L12,12"/>
			<path class="st230" d="M12,12v0.1c0.1,0.4,0.9,1.7,1.6,2.2c0.8,0.5,3.1,1.6,3.1,1.6l3.7,1.5c0,0,0.1,0,0.1,0
				c0.2,0,0.3-0.1,0.4-0.2l-1.4-0.8l-3.1-1.8l-2.3-1.3L12,12"/>
			<path class="st231" d="M12,12v0.1c0.1,0.4,0.9,1.7,1.7,2.2c0.8,0.5,3.1,1.6,3.1,1.6l3.7,1.5c0,0,0.1,0,0.1,0
				c0.2,0,0.3-0.1,0.4-0.2l-1.4-0.8l-3.1-1.8l-2.3-1.3L12,12"/>
			<path class="st232" d="M12,12v0.1c0.1,0.4,0.9,1.7,1.7,2.2s3.1,1.6,3.1,1.6l3.7,1.5c0,0,0.1,0,0.1,0c0.2,0,0.3-0.1,0.4-0.2
				l-1.4-0.8l-3.1-1.8l-2.3-1.3L12,12"/>
			<path class="st233" d="M12,12v0.1c0.1,0.4,0.9,1.7,1.7,2.2s3.1,1.6,3.1,1.6l3.7,1.5c0,0,0.1,0,0.1,0c0.2,0,0.3-0.1,0.4-0.2
				l-1.4-0.8l-3.1-1.8l-2.3-1.3L12,12"/>
			<path class="st234" d="M12,12v0.1c0.1,0.4,1,1.7,1.8,2.2c0.8,0.5,3,1.6,3,1.6l3.7,1.5c0,0,0.1,0,0.1,0c0.2,0,0.3-0.1,0.4-0.2
				l-1.4-0.8l-3.1-1.8l-2.3-1.3L12,12"/>
			<path class="st235" d="M12,12v0.1c0.1,0.4,1,1.7,1.8,2.2c0.8,0.6,3,1.6,3,1.6l3.7,1.5c0,0,0.1,0,0.1,0c0.2,0,0.3-0.1,0.4-0.2
				l-1.4-0.8l-3.1-1.8l-2.3-1.3L12,12"/>
			<path class="st236" d="M12,12v0.1c0.1,0.4,1,1.7,1.9,2.2c0.9,0.6,3,1.6,3,1.6l3.7,1.5c0,0,0.1,0,0.1,0c0.2,0,0.3-0.1,0.4-0.2
				l-1.4-0.8l-3.1-1.8l-2.3-1.3L12,12"/>
			<path class="st237" d="M12,12v0.1c0.1,0.4,1,1.7,1.9,2.3c0.9,0.6,2.9,1.5,2.9,1.5l3.7,1.5c0,0,0.1,0,0.1,0c0.2,0,0.3-0.1,0.4-0.2
				l-1.4-0.8l-3.1-1.8c-0.6-0.3-1.8-1-2.3-1.3L12,12"/>
			<path class="st238" d="M12,12v0.1c0.1,0.4,1.1,1.7,2,2.3c0.9,0.6,2.9,1.5,2.9,1.5l3.6,1.5c0,0,0.1,0,0.1,0c0.2,0,0.3-0.1,0.4-0.2
				l-1.4-0.8l-3.1-1.8l-2.3-1.3L12,12"/>
			<path class="st239" d="M12,12v0.1c0.1,0.5,1.1,1.7,2,2.3s2.9,1.5,2.9,1.5l3.6,1.5c0,0,0.1,0,0.1,0c0.2,0,0.3-0.1,0.4-0.2
				l-1.4-0.8l-3.1-1.8l-2.3-1.3L12,12"/>
			<path class="st240" d="M12,12v0.1c0.1,0.5,1.1,1.6,2,2.3C15,15,16.9,16,16.9,16l3.6,1.5c0,0,0.1,0,0.1,0c0.1,0,0.3-0.1,0.4-0.2
				l-1.4-0.8l-3.1-1.8l-2.3-1.3L12,12"/>
			<path class="st241" d="M12,12v0.1c0.1,0.5,1.1,1.6,2.1,2.3c1,0.6,2.8,1.5,2.8,1.5l3.6,1.4c0,0,0.1,0,0.1,0c0.2,0,0.3-0.1,0.4-0.2
				l-1.4-0.8l-3.1-1.8l-2.3-1.3L12,12"/>
			<path class="st242" d="M12,12v0.1c0.1,0.5,1.1,1.6,2.1,2.3c1,0.7,2.8,1.5,2.8,1.5l3.6,1.4c0,0,0.1,0,0.1,0c0.2,0,0.3-0.1,0.4-0.2
				l-1.4-0.8l-3.1-1.8l-2.3-1.3L12,12"/>
			<path class="st243" d="M12,12v0.1c0.1,0.5,1.2,1.6,2.2,2.3c1,0.7,2.8,1.5,2.8,1.5l3.6,1.4c0,0,0.1,0,0.1,0c0.2,0,0.3-0.1,0.4-0.2
				l-1.4-0.8l-3.1-1.8l-2.3-1.3L12,12"/>
			<path class="st244" d="M12,12v0.1c0.1,0.5,1.2,1.6,2.2,2.3c1,0.7,2.7,1.5,2.7,1.5l3.6,1.4c0,0,0.1,0,0.1,0c0.2,0,0.3-0.1,0.4-0.2
				l-1.4-0.8l-3.1-1.8l-2.3-1.3L12,12"/>
			<path class="st245" d="M12,12v0.1c0.1,0.5,1.2,1.6,2.3,2.3c1,0.7,2.7,1.5,2.7,1.5l3.6,1.4c0,0,0.1,0,0.1,0c0.2,0,0.3-0.1,0.4-0.2
				l-1.4-0.8l-3.1-1.8l-2.3-1.3L12,12"/>
			<path class="st246" d="M12,12v0.1c0.1,0.5,1.2,1.6,2.3,2.3C15.4,15.2,17,16,17,16l3.6,1.4c0,0,0.1,0,0.1,0c0.2,0,0.3-0.1,0.4-0.2
				l-1.4-0.8l-3.1-1.8l-2.3-1.3L12,12"/>
			<path class="st247" d="M12,12v0.1c0.1,0.5,1.3,1.6,2.4,2.3C15.4,15.2,17,16,17,16l3.5,1.4c0,0,0.1,0,0.1,0c0.2,0,0.3-0.1,0.4-0.2
				l-1.4-0.8l-3.1-1.8l-2.3-1.3L12,12"/>
			<path class="st247" d="M12,12v0.1c0.1,0.5,1.3,1.6,2.4,2.3S17,16,17,16l3.5,1.4c0,0,0.1,0,0.1,0c0.2,0,0.3-0.1,0.4-0.2l-1.4-0.8
				l-3.1-1.8l-2.3-1.3L12,12"/>
			<path class="st248" d="M12,12v0.1c0.1,0.6,1.3,1.6,2.4,2.4S17,16,17,16l3.5,1.4c0,0,0.1,0,0.1,0c0.1,0,0.3-0.1,0.4-0.2l-1.4-0.8
				l-3.1-1.8l-2.3-1.3L12,12"/>
			<path class="st249" d="M12,12v0.1c0.1,0.6,1.3,1.6,2.5,2.4S17,16,17,16l3.5,1.4c0,0,0.1,0,0.1,0c0.1,0,0.3-0.1,0.4-0.2
				c0,0-0.6-0.4-1.4-0.8l-3.1-1.8l-2.3-1.3L12,12"/>
			<path class="st250" d="M12,12v0.1c0.1,0.6,1.4,1.6,2.5,2.4C15.7,15.3,17,16,17,16l3.5,1.4c0,0,0.1,0,0.1,0c0.1,0,0.3-0.1,0.4-0.2
				c0,0-0.6-0.4-1.4-0.8c-0.8-0.5-2-1.2-3.1-1.8l-2.3-1.3L12,12"/>
			<path class="st251" d="M12,12v0.1c0.1,0.6,1.4,1.6,2.6,2.4s2.5,1.5,2.5,1.5l3.5,1.4c0,0,0.1,0,0.1,0c0.1,0,0.3-0.1,0.4-0.2
				c0,0-0.6-0.3-1.4-0.8l-3.1-1.8l-2.3-1.3L12,12"/>
			<path class="st252" d="M12,12v0.1c0.2,0.6,1.4,1.6,2.6,2.4s2.5,1.5,2.5,1.5l3.5,1.4c0,0,0.1,0,0.1,0c0.1,0,0.3-0.1,0.4-0.2
				c0,0-0.6-0.3-1.4-0.8l-3.1-1.8l-2.3-1.3L12,12"/>
			<path class="st253" d="M12,12v0.1c0.2,0.6,1.4,1.6,2.7,2.4c1.2,0.8,2.4,1.5,2.4,1.5l3.5,1.4c0.2,0,0.4-0.1,0.5-0.2l-1.4-0.8
				l-3.1-1.8L12,12"/>
			<path class="st73" d="M3.5,17.4c-0.2,0-0.4-0.1-0.5-0.2L12,12v2L3.5,17.4z"/>
			<path class="st254" d="M2.9,17.2L12,12c0,0,0,2-0.1,2c0,0-8.5,3.4-8.5,3.4C3.3,17.4,3.1,17.3,2.9,17.2"/>
			<path class="st255" d="M2.9,17.2L12,12c0,0,0,1.9-0.2,2c0,0-8.4,3.4-8.4,3.4C3.3,17.4,3.1,17.3,2.9,17.2"/>
			<path class="st256" d="M2.9,17.2L12,12c0,0,0,1.9-0.2,2c-0.1,0-8.3,3.4-8.3,3.4C3.3,17.4,3.1,17.3,2.9,17.2"/>
			<path class="st257" d="M2.9,17.2l9-5.2c0,0.1,0,1.9-0.3,2.1c-0.1,0-8.2,3.3-8.2,3.3C3.3,17.4,3.1,17.3,2.9,17.2"/>
			<path class="st258" d="M2.9,17.2l9-5.2c0,0.1,0,1.9-0.4,2.1c-0.1,0.1-8.2,3.3-8.2,3.3C3.3,17.4,3.1,17.3,2.9,17.2"/>
			<path class="st259" d="M2.9,17.2l9-5.2c0,0.1,0,1.9-0.5,2.1c-0.1,0.1-8.1,3.3-8.1,3.3C3.2,17.4,3.1,17.3,2.9,17.2"/>
			<path class="st260" d="M2.9,17.2c0,0,9-5.2,9-5.2c0,0.1,0,1.9-0.6,2.1c-0.1,0.1-8,3.3-8,3.3C3.2,17.4,3.1,17.3,2.9,17.2"/>
			<path class="st261" d="M2.9,17.2c0,0,9-5.2,9-5.2c0,0.1,0,1.8-0.6,2.1c-0.2,0.1-7.9,3.2-7.9,3.2C3.2,17.4,3.1,17.3,2.9,17.2"/>
			<path class="st262" d="M2.9,17.2l9-5.2c0,0.1,0,1.8-0.7,2.2c-0.2,0.1-7.9,3.2-7.9,3.2C3.2,17.4,3.1,17.3,2.9,17.2"/>
			<path class="st263" d="M2.9,17.2l9-5.2c0,0.2,0,1.8-0.8,2.2c-0.2,0.1-7.8,3.2-7.8,3.2C3.2,17.4,3.1,17.3,2.9,17.2"/>
			<path class="st264" d="M2.9,17.2c0,0,9-5.2,9-5.2c0,0.2,0,1.8-0.9,2.2c-0.2,0.1-7.7,3.1-7.7,3.1C3.2,17.4,3.1,17.3,2.9,17.2"/>
			<path class="st265" d="M2.9,17.2l9-5.2c0,0.2,0,1.8-0.9,2.2c-0.2,0.1-7.7,3.1-7.7,3.1C3.2,17.4,3.1,17.3,2.9,17.2"/>
			<path class="st266" d="M2.9,17.2l9-5.2c0,0.2-0.1,1.7-1,2.3c-0.3,0.1-7.6,3.1-7.6,3.1C3.2,17.4,3.1,17.3,2.9,17.2"/>
			<path class="st267" d="M2.9,17.2l9-5.2c0,0.2-0.1,1.7-1.1,2.3c-0.3,0.1-7.5,3.1-7.5,3.1C3.2,17.4,3.1,17.3,2.9,17.2"/>
			<path class="st268" d="M2.9,17.2l9-5.2c0,0.2-0.1,1.7-1.2,2.3c-0.3,0.2-7.4,3.1-7.4,3.1C3.2,17.4,3.1,17.3,2.9,17.2"/>
			<path class="st269" d="M2.9,17.2l9-5.2c0,0.2-0.1,1.7-1.3,2.3c-0.3,0.2-7.4,3-7.4,3C3.2,17.4,3.1,17.3,2.9,17.2"/>
			<path class="st270" d="M2.9,17.2c0,0,9-5.2,9-5.2c0,0.3-0.1,1.7-1.3,2.3c-0.3,0.2-7.3,3-7.3,3C3.2,17.4,3.1,17.3,2.9,17.2"/>
			<path class="st271" d="M2.9,17.2l9-5.2c0,1-0.5,1.9-1.4,2.4c-0.4,0.2-7.2,3-7.2,3C3.2,17.4,3.1,17.3,2.9,17.2"/>
			<path class="st272" d="M2.9,17.2l9-5.2c0,1-0.6,1.9-1.5,2.4c-0.4,0.2-7.1,3-7.1,3C3.2,17.3,3.1,17.3,2.9,17.2"/>
			<path class="st273" d="M2.9,17.2l9-5.2c0,0.3-0.1,1.6-1.6,2.4c-0.4,0.2-7.1,2.9-7.1,2.9C3.2,17.3,3.1,17.3,2.9,17.2"/>
			<path class="st274" d="M2.9,17.2l9-5.2c0,0.3-0.1,1.6-1.7,2.4c-0.4,0.2-7,2.9-7,2.9C3.2,17.3,3.1,17.3,2.9,17.2"/>
			<path class="st154" d="M2.9,17.2l9-5.2c0,0.3-0.1,1.6-1.7,2.4c-0.4,0.2-6.9,2.9-6.9,2.9C3.2,17.3,3.1,17.3,2.9,17.2"/>
			<path class="st275" d="M2.9,17.2l9-5.2c0,0.4-0.1,1.6-1.8,2.5c-0.5,0.2-6.8,2.9-6.8,2.9C3.2,17.3,3.1,17.3,2.9,17.2"/>
			<path class="st276" d="M2.9,17.2l9-5.2c0,0.4-0.1,1.6-1.9,2.5c-0.5,0.2-6.8,2.8-6.8,2.8C3.2,17.3,3.1,17.3,2.9,17.2"/>
			<path class="st277" d="M2.9,17.2l9-5.2c0,0.4-0.1,1.5-2,2.5c-0.5,0.3-6.7,2.8-6.7,2.8C3.2,17.3,3,17.3,2.9,17.2"/>
			<path class="st157" d="M2.9,17.2l9-5.2c0,0.4-0.1,1.5-2.1,2.5c-0.5,0.3-6.6,2.8-6.6,2.8C3.2,17.3,3,17.3,2.9,17.2"/>
			<path class="st278" d="M2.9,17.2l9-5.2c0,0.4-0.1,1.5-2.1,2.5c-0.5,0.3-6.5,2.8-6.5,2.8C3.2,17.3,3,17.3,2.9,17.2"/>
			<path class="st279" d="M2.9,17.2l9-5.2c0,0.4-0.1,1.5-2.2,2.6c-0.6,0.3-6.5,2.7-6.5,2.7C3.1,17.3,3,17.3,2.9,17.2"/>
			<path class="st280" d="M2.9,17.2l9-5.2c0,0.4-0.1,1.5-2.3,2.6c-0.6,0.3-6.4,2.7-6.4,2.7C3.1,17.3,3,17.3,2.9,17.2"/>
			<path class="st160" d="M2.9,17.2l9-5.2c0,0.5-0.1,1.4-2.4,2.6C9,15,3.2,17.3,3.2,17.3C3.1,17.3,3,17.3,2.9,17.2"/>
			<path class="st161" d="M2.9,17.2l9-5.2c0,0.5-0.1,1.4-2.4,2.6c-0.6,0.3-6.2,2.7-6.2,2.7C3.1,17.3,3,17.3,2.9,17.2"/>
			<path class="st281" d="M2.9,17.2l9-5.2c0,0.5-0.1,1.4-2.5,2.7c-0.6,0.3-6.2,2.6-6.2,2.6C3.1,17.3,3,17.3,2.9,17.2"/>
			<path class="st162" d="M3,17.2l9-5.2c0,0.5-0.1,1.4-2.6,2.7c-0.7,0.3-6.1,2.6-6.1,2.6C3.1,17.3,3,17.3,3,17.2"/>
			<path class="st163" d="M3,17.2l9-5.2c0,0.5-0.1,1.4-2.7,2.7c-0.7,0.3-6,2.6-6,2.6C3.1,17.3,3,17.3,3,17.2"/>
			<path class="st164" d="M3,17.2l9-5.2c0,0.5-0.1,1.4-2.8,2.7c-0.7,0.4-5.9,2.6-5.9,2.6C3.1,17.3,3,17.3,3,17.2"/>
			<path class="st282" d="M3,17.2l9-5.2c0,0.6-0.1,1.3-2.8,2.7c-0.7,0.4-5.9,2.5-5.9,2.5C3.1,17.3,3,17.3,3,17.2"/>
			<path class="st230" d="M3,17.2l9-5.2c0,0.6-0.1,1.3-2.9,2.8c-0.7,0.4-5.8,2.5-5.8,2.5C3.1,17.3,3,17.3,3,17.2"/>
			<path class="st229" d="M3,17.2l8.9-5.2c0,0.6-0.1,1.3-3,2.8c-0.7,0.4-5.7,2.5-5.7,2.5C3.1,17.3,3,17.3,3,17.2"/>
			<path class="st228" d="M3,17.2l8.9-5.2c0,0.6-0.2,1.3-3.1,2.8c-0.8,0.4-5.6,2.5-5.6,2.5C3.1,17.3,3,17.3,3,17.2"/>
			<path class="st283" d="M3,17.2l8.9-5.2c0,0.6-0.2,1.3-3.1,2.8c-0.8,0.4-5.6,2.4-5.6,2.4C3.1,17.3,3,17.3,3,17.2"/>
			<path class="st169" d="M3,17.2l8.9-5.2c0,0.6-0.2,1.2-3.2,2.8c-0.8,0.4-5.5,2.4-5.5,2.4C3.1,17.3,3,17.3,3,17.2"/>
			<path class="st284" d="M3,17.2l8.9-5.2c0,0.6-0.2,1.2-3.3,2.9c-0.8,0.4-5.4,2.4-5.4,2.4C3.1,17.3,3,17.3,3,17.2"/>
			<path class="st224" d="M3,17.2l8.9-5.2c0,0.7-0.2,1.2-3.4,2.9c-0.8,0.4-5.3,2.4-5.3,2.4C3.1,17.3,3,17.3,3,17.2"/>
			<path class="st223" d="M3,17.2l8.9-5.2c0,0.7-0.2,1.2-3.5,2.9c-0.9,0.5-5.3,2.3-5.3,2.3C3.1,17.3,3,17.3,3,17.2"/>
			<path class="st222" d="M3,17.2l8.9-5.2c0,0.7-0.2,1.2-3.6,2.9c-0.9,0.5-5.2,2.3-5.2,2.3C3.1,17.3,3,17.3,3,17.2"/>
			<path class="st221" d="M3,17.2l8.9-5.2c0,0.7-0.2,1.2-3.6,2.9c-0.9,0.5-5.1,2.3-5.1,2.3C3.1,17.3,3,17.3,3,17.2"/>
			<path class="st220" d="M3,17.2l8.9-5.2c0,0.7-0.2,1.1-3.7,3c-0.9,0.5-5,2.3-5,2.3C3.1,17.3,3,17.3,3,17.2"/>
			<path class="st285" d="M3,17.2l8.9-5.2c0,0.7-0.2,1.1-3.8,3c-0.9,0.5-5,2.2-5,2.2C3.1,17.3,3,17.3,3,17.2"/>
			<path class="st218" d="M3,17.2l8.9-5.2c0,0.8-0.2,1.1-3.9,3c-1,0.5-4.9,2.2-4.9,2.2C3.1,17.3,3,17.3,3,17.2"/>
			<path class="st217" d="M3,17.2l8.9-5.2c0,0.8-0.2,1.1-3.9,3c-1,0.5-4.8,2.2-4.8,2.2C3.1,17.3,3,17.3,3,17.2"/>
			<path class="st286" d="M3,17.2l8.9-5.2c0,0.8-0.2,1.1-4,3.1c-1,0.5-4.7,2.2-4.7,2.2C3,17.3,3,17.3,3,17.2"/>
			<path class="st216" d="M3,17.2l8.9-5.2c0,0.8-0.2,1-4.1,3.1c-1,0.5-4.7,2.1-4.7,2.1C3,17.3,3,17.3,3,17.2"/>
			<path class="st215" d="M3,17.2l8.9-5.2c0,0.8-0.2,1-4.2,3.1c-1,0.5-4.6,2.1-4.6,2.1C3,17.3,3,17.3,3,17.2"/>
			<path class="st287" d="M3,17.2l8.9-5.1c0,0.8-0.2,1-4.3,3.1c-1.1,0.6-4.5,2.1-4.5,2.1C3,17.3,3,17.3,3,17.2"/>
			<path class="st288" d="M3,17.2l8.9-5.1c0,0.8-0.2,1-4.3,3.1c-1.1,0.6-4.5,2.1-4.5,2.1C3,17.3,3,17.3,3,17.2"/>
			<path class="st289" d="M3,17.2l8.9-5.1c0,0.9-0.2,1-4.4,3.1c-1.1,0.6-4.4,2-4.4,2C3,17.3,3,17.2,3,17.2"/>
			<path class="st290" d="M3,17.2l8.9-5.1c0,0.9-0.2,1-4.5,3.2C6.2,15.9,3.1,17.3,3,17.2C3.1,17.3,3,17.2,3,17.2"/>
			<path class="st291" d="M3,17.2l8.9-5.1c0,0.9-0.2,0.9-4.6,3.2C6.1,15.9,3,17.3,3,17.2C3,17.3,3,17.2,3,17.2"/>
			<path class="st292" d="M3,17.2l8.9-5.1c0,0.9-0.2,0.9-4.7,3.2C6,15.9,3,17.3,3,17.2L3,17.2"/>
			<path class="st293" d="M3,17.2l8.9-5.1c0,0.9-0.2,0.9-4.7,3.2C5.9,16,3,17.3,3,17.2L3,17.2"/>
			<path class="st294" d="M3,17.2L3,17.2C3,17.3,5.8,16,7,15.4c4.6-2.4,4.8-2.3,4.8-3.3L3,17.2z"/>
		</g>
	</g>
	<g>
		<defs>
			<path id="SVGID_33_" d="M3,16.7c-0.1,0.2-0.1,0.3-0.1,0.5L12,12l-1.7-1L3,16.7z"/>
		</defs>
		<clipPath id="SVGID_34_">
			<use xlink:href="#SVGID_33_"  style="overflow:visible;"/>
		</clipPath>
		<g class="st295">
			
				<linearGradient id="SVGID_35_" gradientUnits="userSpaceOnUse" x1="-635.2686" y1="192.7333" x2="-635.1053" y2="192.7333" gradientTransform="matrix(5.3342 9.0557 9.0557 -5.3342 1650.2285 6794.0698)">
				<stop  offset="0" style="stop-color:#FFFFFF"/>
				<stop  offset="0.5" style="stop-color:#FFFFFF"/>
				<stop  offset="0.59" style="stop-color:#F9F9F9"/>
				<stop  offset="0.72" style="stop-color:#E9E9EA"/>
				<stop  offset="0.85" style="stop-color:#CECFD0"/>
				<stop  offset="0.92" style="stop-color:#BEC0C1"/>
				<stop  offset="1" style="stop-color:#BEC0C1"/>
			</linearGradient>
			<polygon class="st296" points="0.2,12.6 9.7,7 14.7,15.6 5.3,21.2 			"/>
		</g>
	</g>
	<g>
		<defs>
			<path id="SVGID_36_" d="M12,12l9.1,5.2c0-0.2,0-0.3-0.1-0.5L13.7,11L12,12z"/>
		</defs>
		<clipPath id="SVGID_37_">
			<use xlink:href="#SVGID_36_"  style="overflow:visible;"/>
		</clipPath>
		<g class="st297">
			
				<linearGradient id="SVGID_38_" gradientUnits="userSpaceOnUse" x1="-695.6668" y1="89.593" x2="-695.5036" y2="89.593" gradientTransform="matrix(-5.2632 8.9351 -8.9351 -5.2632 -2843.7957 6700.5679)">
				<stop  offset="0" style="stop-color:#FFFFFF"/>
				<stop  offset="0.55" style="stop-color:#FFFFFF"/>
				<stop  offset="0.63" style="stop-color:#F9F9F9"/>
				<stop  offset="0.73" style="stop-color:#E9E9EA"/>
				<stop  offset="0.84" style="stop-color:#CECFD0"/>
				<stop  offset="0.9" style="stop-color:#BEC0C1"/>
				<stop  offset="1" style="stop-color:#BEC0C1"/>
			</linearGradient>
			<polygon class="st298" points="9.3,15.6 14.3,7.1 23.8,12.6 18.7,21.2 			"/>
		</g>
	</g>
	<g>
		<defs>
			<path id="SVGID_39_" d="M11.8,1.7c-0.1,0.1-0.1,0.1-0.2,0.2L10.3,11l1.7,1V1.5C11.9,1.6,11.8,1.6,11.8,1.7"/>
		</defs>
		<clipPath id="SVGID_40_">
			<use xlink:href="#SVGID_39_"  style="overflow:visible;"/>
		</clipPath>
		<g class="st299">
			
				<linearGradient id="SVGID_41_" gradientUnits="userSpaceOnUse" x1="-622.6959" y1="170.0269" x2="-622.5312" y2="170.0269" gradientTransform="matrix(10.5684 0.1845 -0.1845 10.5684 6622.4756 -1675.286)">
				<stop  offset="0" style="stop-color:#FFFFFF"/>
				<stop  offset="0.58" style="stop-color:#FFFFFF"/>
				<stop  offset="0.66" style="stop-color:#F9F9F9"/>
				<stop  offset="0.75" style="stop-color:#E9E9EA"/>
				<stop  offset="0.87" style="stop-color:#CECFD0"/>
				<stop  offset="0.92" style="stop-color:#BEC0C1"/>
				<stop  offset="1" style="stop-color:#BEC0C1"/>
			</linearGradient>
			<polygon class="st300" points="10.1,12 10.3,1.5 12.2,1.5 12,12 			"/>
		</g>
	</g>
	<g>
		<defs>
			<path id="SVGID_42_" d="M13.5,11.1l-1.2,0.8c0,0-0.1,0.1,0,0c0.3-0.1,0.5-0.2,0.8-0.3c0.3-0.1,0.6,0.1,0.8,0.3c0,0,7.1,5,7.2,5
				c0-0.1,0-0.2-0.1-0.2L13.7,11L13.5,11.1z M3,16.7C3,16.8,3,16.9,3,16.9c0,0,7.4-5.3,7.7-5.4c0.2-0.1,0.3-0.1,0.5,0l-0.4-0.3
				L10.3,11L3,16.7z M11.7,1.8C11.6,1.8,11.6,1.9,11.7,1.8L10.3,11l1.1,0.6c-0.3-0.2-0.5-0.4-0.5-0.5c0-0.1,0-0.2,0-0.3
				C10.9,10.6,11.8,1.7,11.7,1.8C11.7,1.7,11.7,1.8,11.7,1.8"/>
		</defs>
		<clipPath id="SVGID_43_">
			<use xlink:href="#SVGID_42_"  style="overflow:visible;"/>
		</clipPath>
		<g class="st301">
			
				<radialGradient id="SVGID_44_" cx="-650.5706" cy="168.0383" r="0.683" gradientTransform="matrix(15.92 0 0 15.92 10368.9805 -2663.2)" gradientUnits="userSpaceOnUse">
				<stop  offset="0" style="stop-color:#C5C7C7"/>
				<stop  offset="1" style="stop-color:#B8BBBD"/>
			</radialGradient>
			<rect x="3" y="1.7" class="st302" width="18.1" height="15.2"/>
		</g>
	</g>
	<g>
		<defs>
			<rect id="SVGID_45_" x="0.4" y="0.4" width="23.3" height="23.3"/>
		</defs>
		<clipPath id="SVGID_46_">
			<use xlink:href="#SVGID_45_"  style="overflow:visible;"/>
		</clipPath>
		<g class="st303">
			<path class="st294" d="M11.8,11.8c0,0-1.1-0.8-1.2-0.9c-0.1-0.1-0.1-0.2-0.1-0.3c0-0.3,1.1-8.9,1.1-8.9s0,0-0.1,0.1l0,0L10.3,11
				L3,16.7c0,0,0,0.1,0,0.1l7.5-5.7l1.2,0.6L11.8,11.8z"/>
			<path class="st294" d="M13.7,11l7.3,5.7c0,0,0,0.1,0,0.1c0,0-7.2-5.5-7.5-5.7L13.7,11z"/>
		</g>
	</g>
	<g>
		<defs>
			<path id="SVGID_47_" d="M12,13.8c0,0,0,0.2,0,0.2S12,13.8,12,13.8l0.1-1.7h-0.2L12,13.8z"/>
		</defs>
		<clipPath id="SVGID_48_">
			<use xlink:href="#SVGID_47_"  style="overflow:visible;"/>
		</clipPath>
		<g class="st304">
			
				<linearGradient id="SVGID_49_" gradientUnits="userSpaceOnUse" x1="-700.1686" y1="203.8777" x2="-700.0053" y2="203.8777" gradientTransform="matrix(0 -11.37 11.37 0 -2306.0901 -7946.8999)">
				<stop  offset="0" style="stop-color:#273338"/>
				<stop  offset="0.76" style="stop-color:#FFFFFF"/>
				<stop  offset="1" style="stop-color:#FFFFFF"/>
			</linearGradient>
			<rect x="11.9" y="12.1" class="st305" width="0.2" height="1.9"/>
		</g>
	</g>
	<g>
		<defs>
			<rect id="SVGID_50_" x="0.4" y="0.4" width="23.3" height="23.3"/>
		</defs>
		<clipPath id="SVGID_51_">
			<use xlink:href="#SVGID_50_"  style="overflow:visible;"/>
		</clipPath>
		<g class="st306">
			<path class="st2" d="M13,11.4l-1,0.5h-0.1l-1-0.5c-0.2-0.1-0.3-0.2-0.5-0.2c0.1,0.1,0.3,0.2,0.4,0.3l0.9,0.6l0.1,0.1h0.1l0.1-0.1
				L13,11.4c0.2,0,0.3-0.1,0.5-0.2C13.3,11.2,13.2,11.3,13,11.4"/>
			<path class="st2" d="M2.9,17.2L2.9,17.2l8.8-5.3c0,0,0.1-0.1,0.1-0.2l0-10.2l0,0c0,0,0,0,0,0l0,0l0.1,10.3c0,0.1,0.1,0.1,0.1,0.1
				l8.8,5.2v0.1l0,0l-8.9-5.1c-0.1,0-0.1,0-0.2,0L2.9,17.2L2.9,17.2z"/>
		</g>
	</g>
</g>
</svg>
