<?xml version="1.0" encoding="utf-8"?>
<!-- Generator: Adobe Illustrator 25.2.1, SVG Export Plug-In . SVG Version: 6.00 Build 0)  -->
<svg version="1.1" id="Capa_1" xmlns="http://www.w3.org/2000/svg" xmlns:xlink="http://www.w3.org/1999/xlink" x="0px" y="0px"
	 viewBox="0 0 24 24" style="enable-background:new 0 0 24 24;" xml:space="preserve">
<style type="text/css">
	.st0{fill:#E2E2E2;}
</style>
<path class="st0" d="M13.8,16.2c0.1,0.1,0.2,0.1,0.3,0.1v1.3c-0.1,0-0.1,0-0.2,0c-1.1,0-2.3-0.4-3.2-1.1c0.6-0.5,1-1.2,1.4-1.9
	c0.3,0,0.5,0,0.8,0c0.2,0,0.3,0,0.5,0c0.1,0,0.2,0,0.2-0.2c0-0.1,0-0.2-0.1-0.3V14h0.1l0,0c0,0.1,0.1,0.2,0.1,0.2
	c0.1,0.1,0.1,0.2,0.2,0.3c0.1,0,0.1,0.1,0.2,0.1c0.2,0.1,0.3,0.1,0.4,0.3l0.1,0.1c0.1,0.1,0.1,0.2,0,0.4s-0.3,0.3-0.5,0.3
	c-0.1,0-0.3,0-0.3-0.2c0,0,0,0,0-0.1l-0.1-0.1c0-0.1-0.1-0.1-0.2-0.1c-0.1,0-0.3,0-0.4,0.1H13c0.1,0.1,0.1,0.2,0.2,0.3
	c0,0,0.1,0.1,0.2,0.1c0.1,0,0.1,0,0.2,0.1C13.7,16,13.7,16.1,13.8,16.2L13.8,16.2L13.8,16.2z M14.3,15.2c-0.1,0-0.2,0-0.3,0.1
	c0,0.1,0,0.2,0.1,0.3c0,0.1,0.1,0.1,0.1,0.1l0,0l0,0h0.1c0.1,0,0.1-0.1,0.1-0.2C14.4,15.3,14.3,15.2,14.3,15.2L14.3,15.2z
	 M17.6,13.5c0-0.1-0.1-0.2-0.2-0.2l-0.2-0.2h-0.1H17l-0.1,0.1c0,0-0.1,0.1-0.1,0c0,0-0.1,0-0.1-0.1c0,0,0,0,0-0.1s0.1-0.3,0.2-0.4
	l0,0H17c0.1,0.1,0.3,0.3,0.4,0.4C17.5,13.1,17.6,13.3,17.6,13.5c0,0,0,0,0,0.1c0,0,0,0-0.1,0h-0.1C17.6,13.5,17.6,13.5,17.6,13.5
	L17.6,13.5z M17.2,14.3h0.1l0,0c0,0,0,0,0,0.1c0,0.2,0,0.3-0.3,0.3c-0.1,0-0.1,0-0.1-0.1s0-0.2,0.1-0.3
	C17.1,14.4,17.2,14.4,17.2,14.3L17.2,14.3z M23.4,6.3L22.1,10h-1.7v2.2c0,3-2.4,5.4-5.4,5.5h-0.3V16h0.1c0.1,0,0.2-0.1,0.2-0.2
	c0-0.1,0.1-0.1,0.2-0.1c0.1,0,0.2,0,0.2-0.2s0-0.3,0.1-0.4c0-0.1,0-0.2-0.1-0.3c-0.1-0.2-0.2-0.4-0.3-0.5c-0.1-0.2-0.1-0.1-0.2,0
	l0.1,0.2l0.2,0.3c0,0,0,0.1,0.1,0.1c0,0.2,0,0.4-0.1,0.5h-0.1c0,0,0,0,0-0.1v-0.1c0-0.1,0-0.3-0.1-0.4c-0.1-0.1-0.2-0.3-0.3-0.4
	c-0.1-0.1-0.1-0.3,0-0.4l0,0l0,0c0.1-0.1,0.1-0.1,0.2-0.1c0.1-0.1,0.1-0.2,0.2-0.3c0-0.1,0.1-0.2,0.1-0.2c0-0.2,0.1-0.4,0-0.6v-0.1
	v-0.1h0.1l0,0v0.1c0,0.2,0.1,0.4,0,0.5c0,0.2-0.1,0.4-0.1,0.6v0.1h0.1h0.2c0.2,0,0.4-0.1,0.5-0.3l0.2-0.2h0.1c0,0,0.1,0.1,0,0.1
	c0,0.1,0,0.1-0.1,0.2c0,0.1-0.1,0.2-0.1,0.2c-0.1,0.2-0.2,0.3-0.3,0.5c0,0.1-0.1,0.2-0.1,0.3s0,0.1,0.1,0.1s0.1,0,0.1,0.1V15v0.1
	c0,0.1,0.2,0.2,0.3,0.2l0,0c0.1,0,0.1-0.1,0.2-0.1l0.1-0.1c0.1-0.1,0.3-0.1,0.5-0.2h0.2c0.1,0,0.2,0,0.3-0.1l0.1-0.1
	c0.1-0.1,0.2-0.1,0.2,0l0.2,0.1c0.1,0.1,0.2,0.1,0.3,0.2c0.1,0.1,0.2,0.1,0.4,0.1h0.1c0,0,0,0-0.1-0.1c-0.1,0-0.1-0.1-0.2-0.1
	c-0.1-0.1-0.2-0.1-0.2-0.2c-0.1-0.1-0.2-0.2-0.2-0.3S18,14.3,18,14.2v-0.1c0,0,0-0.1,0.1-0.1l0,0l0,0c0,0,0.1,0,0.1,0.1l0.3,0.3
	c0.1,0.1,0.1,0.1,0.2,0.2c0.1,0.1,0.2,0.1,0.3,0.2c0.1,0,0.2,0,0.3,0l-0.1-0.1c-0.3-0.1-0.5-0.3-0.7-0.6c-0.1-0.2-0.2-0.4-0.3-0.6
	c-0.1-0.2-0.2-0.5-0.3-0.7c-0.1-0.2-0.2-0.6-0.3-0.9c-0.1-0.2-0.2-0.4-0.3-0.5c-0.2-0.2-0.4-0.4-0.6-0.5c-0.2-0.2-0.5-0.3-0.7-0.4
	c-0.4-0.2-0.8-0.4-1.2-0.6H15h-0.1h-0.1V6.3H23.4z M14.9,10.9C14.8,10.8,14.8,10.8,14.9,10.9c-0.1-0.1-0.1-0.2-0.1-0.2l0.1-0.1H15
	c0,0,0.1,0,0.1,0.1c0.2,0.1,0.4,0.3,0.5,0.5c0,0.1,0.1,0.2,0.1,0.3v0.1h-0.1c-0.1-0.2-0.3-0.4-0.5-0.5L14.9,10.9L14.9,10.9z
	 M10.2,16.1c-0.1,0.1-0.2,0.2-0.3,0.2c-0.1,0.1-0.2,0.2-0.3,0.2c-1,0.7-2.1,1.1-3.3,1.1c-3.1,0-5.7-2.5-5.7-5.6s2.5-5.7,5.6-5.7
	c1.2,0,2.4,0.4,3.4,1.1c-0.9,0.9-1.5,1.9-1.8,3.1c-0.8-0.8-2.1-0.9-3-0.1s-0.9,2.1-0.1,3c0.8,0.8,2.1,0.9,3,0.1l0.1-0.1
	C7.9,13.3,8,13.1,8.1,13c0.2-0.3,0.3-0.7,0.3-1c0-1.6,0.6-3.1,1.8-4.1c0.1-0.1,0.2-0.2,0.3-0.2c0.1-0.1,0.2-0.2,0.3-0.2
	c1-0.7,2.1-1.1,3.3-1.1v3.5c0,0,0,0-0.1,0s-0.1,0-0.2,0c-0.5,0.1-1,0.3-1.3,0.7c-0.1,0.1-0.2,0.3-0.3,0.4c-0.2,0.3-0.3,0.7-0.3,1
	C11.9,13.6,11.3,15,10.2,16.1L10.2,16.1z"/>
</svg>
