<?xml version="1.0" encoding="utf-8"?>
<!-- Generator: Adobe Illustrator 25.2.1, SVG Export Plug-In . SVG Version: 6.00 Build 0)  -->
<svg version="1.1" id="Capa_1" xmlns="http://www.w3.org/2000/svg" xmlns:xlink="http://www.w3.org/1999/xlink" x="0px" y="0px"
	 width="24px" height="24px" viewBox="0 0 24 24" style="enable-background:new 0 0 24 24;" xml:space="preserve">
<style type="text/css">
	.st0{fill:#FFD600;}
	.st1{fill:#EA0029;}
</style>
<g>
	<circle class="st0" cx="12" cy="12" r="4.6"/>
	<path class="st0" d="M23.9,15.1L23.9,15.1L23.9,15.1c0-0.1,0-0.1,0-0.1l0,0c0-0.1,0-0.1,0-0.2c-0.1-0.1-0.2-0.2-0.3-0.2
		c0,0,0-0.1,0-0.1c-0.1-0.1-0.2-0.2-0.3-0.2c0,0-0.1,0-0.1,0l0,0C23.1,14,23.1,14,23,14c-0.1,0-0.2,0.1-0.3,0.2c0,0,0-0.1,0-0.2
		c0,0,0-0.1-0.1-0.2l0,0c0,0,0,0,0,0c0-0.2-0.2-0.3-0.3-0.3c-0.1,0-0.1,0-0.2,0c-0.1,0-0.1,0-0.2,0c0,0,0,0,0,0c0,0,0-0.1,0-0.1
		c0.1-0.2,0.1-0.4,0-0.6c0.1,0,0.1,0,0.2,0c0.2,0,0.4,0,0.5-0.1h0c0.3-0.2,0.6-0.5,0.6-1v0c0-0.4-0.3-0.8-0.7-1.1
		c0.1,0,0.2-0.1,0.3-0.1c0.3-0.2,0.4-0.6,0.3-1l0,0c0-0.1-0.1-0.2-0.3-0.2c-0.1,0-0.1,0-0.2,0.1l0,0c0,0,0,0-0.1,0.1
		c-0.1,0-0.2,0.1-0.3,0.1c-0.1,0-0.2,0-0.2,0.1C22,9.6,21.7,9.8,21.6,10c-0.1,0.2,0,0.4,0.1,0.5l0,0c0.1,0.2,0.3,0.3,0.4,0.5
		c0.2,0.2,0.4,0.4,0.4,0.6c0,0,0,0.1-0.1,0.2c-0.1,0-0.1,0-0.2,0c-0.1,0-0.2,0-0.3-0.1h0c-0.2-0.1-0.3-0.2-0.5-0.3
		c-0.3-0.2-0.5-0.3-0.8-0.5c-0.1-0.1-0.3-0.1-0.4-0.1c-0.2,0-0.3-0.1-0.4-0.2l0,0c0,0-0.1-0.1-0.1-0.1c-0.2-0.1-0.3-0.2-0.5-0.3
		c-0.1,0-0.1,0-0.2,0c-0.1,0-0.1,0-0.2,0c0,0-0.1,0-0.1-0.1l0,0c-0.1-0.1-0.3-0.2-0.4-0.3c-0.3-0.1-0.5-0.2-0.8-0.3
		c0,0-0.1-0.1-0.1-0.1c0-0.1-0.1-0.1-0.2-0.2c-0.2-0.2-0.5-0.3-0.8-0.3h-0.1c-0.2,0-0.3,0.1-0.5,0.2c-0.2,0.2-0.5,0.4-0.8,0.6
		c-0.4,0.3-0.8,0.6-1.1,1c-0.4,0.4-0.5,0.9-0.6,1.3c0,0.1,0,0.1-0.1,0.2c0,0.1-0.1,0.2-0.1,0.3c-0.1,0.6-0.3,1.1-0.8,1.5
		c-0.1,0.1-0.1,0.2-0.1,0.3c0,0.1,0.1,0.2,0.2,0.2c0.1,0,0.1,0,0.2,0c0,0.1,0,0.1,0.1,0.2c0.1,0.1,0.1,0.1,0.2,0.1h0
		c0.4,0,0.6-0.2,0.9-0.4c0.1,0.1,0.2,0.1,0.3,0.2l0,0h0c0.1,0,0.2,0,0.4,0c0.1,0,0.2,0.1,0.3,0.1c0.1,0,0.2,0.1,0.3,0.1l0,0h0
		c0.2,0,0.4-0.2,0.4-0.3l0,0l0,0c0,0,0,0,0-0.1l0,0l0,0.1c0,0.1,0.1,0.2,0.1,0.3C15.9,15,16,15,16.1,15l0,0c0,0,0.1,0,0.1,0h0l0,0
		c0.1,0.1,0.1,0.1,0.2,0.1c0.1,0,0.2,0.1,0.3,0.1c0.1,0,0.2,0.1,0.4,0.1h0c0.1,0,0.2,0.1,0.3,0.1c0.1,0,0.2,0,0.3-0.1
		c0.1-0.1,0.2-0.2,0.2-0.3c0,0,0,0,0.1,0c0.2-0.1,0.3-0.4,0.3-0.4c0,0,0,0,0-0.1c0-0.1,0.1-0.1,0.1-0.2c0-0.2-0.1-0.3-0.3-0.3h0
		c0,0-0.3,0-0.4,0h0c0,0-0.1,0-0.1,0l0,0c0,0-0.1-0.1-0.1-0.1c0,0,0,0,0,0l0.1,0c0.1,0,0.1,0,0.2,0c0.2,0,0.4,0,0.6-0.1
		c0.2,0,0.3,0,0.5,0h0c0.1,0,0.1,0,0.2,0s0.2,0,0.2,0h0.1c0.1,0,0.2,0,0.2,0c0,0,0,0.1,0,0.1l0,0c0,0.3,0.2,0.5,0.4,0.6l0,0
		c0.1,0.1,0.3,0.2,0.5,0.2c0.1,0,0.2,0,0.2,0c0.3-0.1,0.6,0,0.8,0.2l0,0c0,0,0.1,0,0.1,0.1c0.1,0.1,0.1,0.1,0.2,0.1
		c0.1,0,0.1,0,0.2,0l0,0c0.1,0,0.2,0,0.3-0.1l0,0l0,0c0,0.1,0.1,0.1,0.2,0.2c0.1,0.1,0.3,0.2,0.4,0.1c0.1,0,0.1,0,0.1,0h0.1l0.1,0
		c0,0,0,0,0.1,0c0,0,0.1,0,0.1,0c0,0,0,0,0.1,0l0.3-0.1c0.1,0,0.1-0.1,0.2-0.1C24,15.3,24,15.2,23.9,15.1z M15.7,13.8L15.7,13.8
		C15.7,13.7,15.7,13.7,15.7,13.8c-0.1-0.1-0.1-0.2-0.1-0.2c0.1,0,0.2,0,0.2,0L15.7,13.8z"/>
	<path class="st0" d="M11.8,14.1L11.7,14c-0.1-0.1-0.2-0.2-0.3-0.3c0-0.1-0.1-0.1-0.1-0.2c0-0.1-0.1-0.1-0.2-0.2l0,0
		c-0.2-0.4-0.3-0.9-0.3-1.4c0-0.2-0.1-0.3-0.2-0.5l0,0c-0.2-0.4-0.5-0.7-0.8-1c0,0,0,0-0.1-0.1l0,0l-1-0.8l0,0
		C8.6,9.4,8.5,9.3,8.3,9.3C8,9.2,7.7,9.2,7.5,9.3l0,0c-0.1,0-0.2,0.1-0.2,0.1C7.1,9.5,7,9.6,6.9,9.6l0,0c-0.1,0-0.2,0.1-0.3,0.1
		C6.3,9.8,6,9.9,5.8,10.1l-0.1,0.1c-0.1,0-0.1,0.1-0.1,0.1h0c-0.3,0-0.6,0.1-0.9,0.3l0,0c-0.1,0.1-0.3,0.3-0.5,0.3
		c-0.1,0-0.2,0-0.3,0h0c-0.1,0-0.2,0-0.4,0.1c-0.3,0.1-0.5,0.3-0.8,0.4c-0.1,0.1-0.2,0.1-0.2,0.1l-0.1,0c-0.2,0.1-0.4,0.3-0.7,0.3h0
		c-0.1,0-0.3-0.1-0.3-0.2c0-0.2,0-0.3,0.1-0.4c0.1-0.1,0.2-0.2,0.3-0.2c0.2-0.1,0.3-0.3,0.4-0.4c0.2-0.3,0.2-0.6,0-0.9
		C2.2,9.6,1.9,9.5,1.7,9.4h0l0,0h0l-0.1,0l-0.1,0c-0.1,0-0.2-0.1-0.2-0.1C1.1,9.2,1.1,9.2,1,9.1L0.8,9L0.7,9.2
		C0.6,9.3,0.6,9.5,0.6,9.7v0c0.1,0.3,0.3,0.6,0.6,0.8h0l0,0c0.1,0,0.1,0,0.2,0c-0.2,0.1-0.3,0.3-0.5,0.4c-0.3,0.3-0.3,0.8-0.2,1.1
		c0.2,0.4,0.5,0.7,0.9,0.7c0.1,0,0.1,0,0.2,0c0.1,0,0.2,0,0.3,0l0,0c0,0.1,0,0.2,0,0.3c0,0.1,0.1,0.3,0.1,0.4v0
		c-0.1,0-0.2,0.1-0.2,0.1c-0.1,0-0.1,0-0.2,0H1.9c-0.1,0-0.1,0-0.2,0.1c-0.1,0.1-0.1,0.2-0.2,0.3c0,0.1,0,0.1-0.1,0.2
		c0,0,0,0.1-0.1,0.1c0-0.1-0.1-0.1-0.1-0.2l0,0l0,0C1.1,14,1,14,0.9,14.1l0,0l0,0c-0.1,0.1-0.2,0.1-0.2,0.2
		c-0.1,0.1-0.1,0.1-0.1,0.2c0,0,0,0-0.1,0c-0.2,0.1-0.3,0.2-0.3,0.4c0,0.1,0,0.1,0,0.2l0,0c-0.1,0.1-0.1,0.3,0,0.4
		c0.1,0.1,0.3,0.1,0.4,0.2h0h0h0c0,0,0,0,0.1,0h0.1c0,0,0.1,0,0.1,0c0.1,0,0.2,0,0.3,0c0.1,0,0.2,0,0.3-0.1c0.1-0.1,0.2-0.2,0.3-0.3
		c0,0,0-0.1,0-0.1l0,0c0,0,0.1,0,0.1,0c0.2,0,0.4-0.1,0.6-0.2c0,0,0.1-0.1,0.1-0.1c0,0,0.1-0.1,0.1-0.1c0,0,0.1,0,0.1,0
		c0.1,0,0.2,0,0.3,0c0.2,0.1,0.4,0,0.6-0.1c0.1-0.1,0.2-0.1,0.3-0.1l0,0c0,0,0.1,0,0.1-0.1c0.2-0.1,0.3-0.3,0.4-0.5
		c0-0.1,0.1-0.2,0.1-0.3h0c0.1,0,0.2,0,0.3,0c0.1,0,0.1,0,0.2,0h0h0.1c0.1,0,0.2,0,0.4,0c0.1,0,0.2,0,0.3,0H6c0,0,0.1,0,0.1,0
		c0.1,0,0.2,0,0.3-0.1c0,0,0.1,0.1,0.1,0.1h0c-0.1,0-0.2,0-0.2,0.1c-0.1,0-0.2,0-0.3,0c-0.1,0-0.2,0-0.4,0.1c-0.1,0-0.2,0.1-0.2,0.2
		c0,0.1,0,0.2,0,0.3c0.1,0.1,0.1,0.2,0.2,0.3l0,0C5.7,14.9,5.9,15,6,14.9H6h0l0,0c0.1,0.1,0.1,0.2,0.2,0.3c0.2,0.1,0.4,0.2,0.6,0.1
		c0.3-0.1,0.6-0.2,0.9-0.3h0.1h0.1C8,15,8.1,15,8.2,14.9l0,0l0,0c0.1-0.1,0.1-0.1,0.1-0.2l0,0v0C8.5,14.8,8.7,15,8.8,15h0
		c0.2,0,0.3-0.1,0.5-0.1h0l0.1,0l0,0c0.1-0.1,0.3-0.1,0.5,0h0h0c0.2,0,0.4-0.1,0.5-0.2c0.2,0.3,0.6,0.4,0.9,0.4h0h0.1h0
		c0.1,0,0.2-0.1,0.2-0.2c0,0,0,0,0-0.1l0.1,0c0.1,0,0.2-0.1,0.2-0.2C12,14.3,11.9,14.2,11.8,14.1z M8.6,13.5L8.6,13.5
		c-0.1,0.1-0.2,0.2-0.2,0.2c0-0.1-0.1-0.1-0.1-0.2C8.4,13.5,8.5,13.5,8.6,13.5L8.6,13.5C8.6,13.5,8.6,13.5,8.6,13.5z"/>
	<path class="st1" d="M0.5,14.7L0.5,14.7c-0.1,0-0.1,0.1-0.2,0.2c0,0.2,0,0.3-0.1,0.3c0,0,0,0.1,0,0.1c0.1,0,0.2,0.1,0.3,0.1l0,0
		c0,0,0-0.1,0.1-0.2c0-0.1,0.1-0.2,0.1-0.3c0,0,0,0,0,0C0.6,14.8,0.5,14.7,0.5,14.7z M0.8,14.7C0.8,14.7,0.8,14.7,0.8,14.7
		c0.1,0,0.1,0,0.2,0c0.1-0.1,0.2-0.2,0.3-0.3c0,0,0-0.1-0.1-0.1h0c0,0-0.1,0-0.1,0l-0.1,0c-0.1,0-0.1,0.1-0.2,0.1c0,0,0,0.1,0,0.1
		C0.7,14.6,0.7,14.6,0.8,14.7C0.7,14.6,0.7,14.7,0.8,14.7L0.8,14.7z M11.7,14.3l-0.1-0.1c-0.2-0.1-0.3-0.3-0.4-0.4
		c0-0.1-0.1-0.1-0.1-0.2c0,0-0.1-0.1-0.1-0.1c0,0-0.1,0-0.1-0.1c-0.2-0.5-0.3-1-0.4-1.5c0-0.1-0.1-0.3-0.1-0.4
		c-0.2-0.4-0.5-0.7-0.8-1c0,0,0,0-0.1-0.1l0,0l-1-0.8C8.5,9.6,8.4,9.5,8.2,9.5c-0.1,0-0.2,0-0.3,0c-0.1,0-0.3,0-0.4,0.1
		c-0.1,0-0.2,0.1-0.2,0.1C7.2,9.7,7.1,9.8,6.9,9.8c-0.1,0-0.2,0.1-0.3,0.1C6.4,10,6.2,10.1,6,10.2c-0.1,0-0.1,0.1-0.1,0.1
		c-0.2,0.2-0.2,0.2-0.3,0.2c-0.3,0-0.6,0.1-0.8,0.3c-0.2,0.2-0.4,0.3-0.6,0.4c-0.1,0-0.2,0-0.3,0.1c-0.1,0-0.2,0-0.3,0.1
		c-0.2,0.1-0.5,0.2-0.7,0.4c-0.1,0.1-0.2,0.1-0.2,0.1l-0.1,0c-0.3,0.1-0.5,0.3-0.8,0.3h0c-0.2,0-0.4-0.2-0.5-0.4
		c-0.1-0.2,0-0.5,0.2-0.7C1.6,11,1.7,11,1.8,10.9c0.1-0.1,0.3-0.2,0.4-0.4c0.1-0.2,0.1-0.4,0-0.6C2,9.8,1.7,9.7,1.6,9.7h0
		c0,0,0,0,0,0c-0.1,0-0.1,0-0.2,0C1.2,9.6,1,9.4,0.9,9.3C0.8,9.4,0.8,9.5,0.8,9.7c0,0.3,0.2,0.5,0.4,0.6l0,0c0.1,0,0.1,0,0.2,0h0.1
		c0,0,0.1,0,0.1,0c0,0,0.1,0.1,0.1,0.1c0,0,0,0.1-0.1,0.1l-0.1,0.1c-0.2,0.2-0.4,0.3-0.5,0.5C0.9,11.3,0.9,11.7,1,12
		c0.1,0.3,0.4,0.5,0.8,0.6c0.1,0,0.1,0,0.2,0c0.2,0,0.3,0,0.5-0.1h0c0,0,0,0,0,0c0,0.1,0,0.2,0,0.2c0,0.1,0,0.2,0,0.3
		c0,0.1,0.1,0.2,0.1,0.3c0,0,0,0.1,0,0.1c0,0,0,0.1,0,0.1c-0.1,0.1-0.3,0.2-0.4,0.2c-0.1,0-0.1,0-0.2,0H1.9c0,0,0,0-0.1,0
		c0,0.1-0.1,0.2-0.1,0.2c0,0.1-0.1,0.1-0.1,0.2c-0.1,0.1-0.2,0.2-0.3,0.3c0,0-0.1,0-0.1,0.1l0,0c0,0.1-0.1,0.2-0.2,0.2
		c-0.1,0-0.1,0.1-0.2,0.1l0,0l0,0c-0.1,0.1-0.2,0.3-0.2,0.4c0,0,0,0,0,0.1v0h0c0.1,0,0.1,0,0.2,0c0.1,0,0.1,0,0.2,0
		c0.1,0,0.1,0,0.2,0c0.1,0,0.1-0.1,0.2-0.2c0-0.1,0.1-0.1,0.1-0.2c0,0,0.1,0,0.1,0c0,0,0.1,0,0.1,0c0,0,0.1,0,0.1,0
		c0.2,0,0.3-0.1,0.4-0.2c0,0,0.1-0.1,0.1-0.1c0,0,0.1-0.1,0.2-0.1c0.1,0,0.2-0.1,0.3,0c0.1,0,0.2,0,0.4,0c0.1,0,0.1,0,0.2,0
		c0.1,0,0.2,0,0.3-0.1c0.1-0.1,0.2-0.1,0.3-0.1c0,0,0.1,0,0.1-0.1c0.1-0.1,0.2-0.2,0.3-0.4c0-0.1,0.1-0.3,0.1-0.3v0l-0.2-0.1v0
		c-0.1,0.1-0.1,0.2-0.2,0.3c-0.3,0.4-0.7,0.4-1.1,0.4H2.9c-0.4,0-0.8,0.1-1.1,0.5c0,0,0,0,0,0c0,0,0,0,0,0c0,0,0,0,0,0
		c0,0,0-0.1,0-0.1c0.3-0.4,0.8-0.5,1.2-0.5c0.2,0,0.5-0.1,0.7-0.2c0.2-0.1,0.4-0.3,0.5-0.6c0-0.1,0.1-0.3,0.1-0.4
		c0-0.1,0-0.2,0.1-0.3c0,0,0,0,0,0c0,0,0,0,0,0c0,0,0,0,0,0c0,0.2-0.1,0.5,0,0.8c0,0.1,0.1,0.1,0.3,0.1c0.1,0,0.2,0,0.3,0
		c0.1,0,0.1,0,0.2,0c0,0,0.1,0,0.1,0c0.1,0,0.2,0,0.4,0c0.1,0,0.2,0,0.3,0H6c0,0,0.1,0,0.1,0c0.1,0,0.1,0,0.2-0.1c0,0,0-0.1,0-0.1v0
		c0,0,0,0,0,0c0-0.1-0.1-0.2,0-0.2c0,0,0,0,0,0c0,0,0,0,0,0c0,0,0,0,0,0.1c0,0.1,0.1,0.2,0.1,0.2c0.1,0.2,0.3,0.3,0.5,0.4
		c0.2,0.1,0.3,0.3,0.3,0.5c0,0.1-0.1,0.2-0.2,0.2c-0.1,0.1-0.3,0.1-0.4,0.1c-0.1,0-0.1,0-0.1-0.1c-0.1-0.1-0.1-0.1-0.2-0.3
		c0-0.1-0.1-0.1-0.1-0.2c-0.1-0.1-0.2-0.1-0.3-0.1c-0.1,0-0.2,0-0.3,0.1c0,0,0,0-0.1,0c0,0,0,0.1,0,0.1c0.1,0.1,0.1,0.2,0.2,0.3
		l0,0.1c0,0,0,0,0.1,0h0h0.1c0,0,0.1,0,0.1,0c0,0,0,0.1,0.1,0.1c0,0.1,0.1,0.2,0.2,0.2c0.1,0.1,0.2,0.1,0.3,0.1c0,0,0.1,0,0.1,0
		c0.3-0.1,0.6-0.2,0.9-0.3h0.1h0.1c0.1,0,0.2,0,0.3-0.1c0.1-0.1,0.2-0.3,0.2-0.4c0.1-0.1,0.1-0.2,0-0.3c-0.1-0.2-0.2-0.4-0.3-0.6
		l0,0h0c0,0,0,0-0.1,0c0,0-0.1,0-0.1,0l0,0c0,0-0.1,0-0.1,0.1l0,0L8,14.1c0,0.1,0,0.1,0,0.2c0,0.1-0.1,0.2-0.2,0.4c0,0,0,0,0,0
		c0,0,0,0,0,0c0-0.1,0.1-0.3,0.1-0.4c-0.1-0.2-0.2-0.4-0.3-0.6v0c0-0.1-0.1-0.1-0.1-0.2c0,0,0-0.1,0.1-0.1c0,0,0.1,0,0.1,0
		c0.1,0,0.2-0.1,0.3-0.1c0.1-0.2,0.2-0.4,0.3-0.7c0,0,0,0,0,0c0,0,0,0,0,0c0,0.3,0,0.5-0.2,0.8c0,0,0,0,0,0.1c0,0,0,0,0,0
		c0.1,0,0.3,0,0.4-0.1c0.1,0,0.2,0,0.4,0l0.1,0c0,0,0,0,0,0c-0.1,0.1-0.2,0.2-0.2,0.4c0,0-0.1,0.1-0.1,0.1c-0.1,0.1-0.2,0.2-0.2,0.3
		c0,0,0,0.1,0,0.1c0,0,0,0,0,0c0,0,0,0,0.1,0c0,0,0,0,0.1,0c0,0,0,0,0,0l-0.1,0.2c0,0.1,0,0.2,0,0.2c0,0,0,0.1,0,0.1
		c0,0.1,0.1,0.1,0.2,0.1c0.1,0,0.3,0,0.4-0.1l0.1,0c0.2-0.1,0.4-0.1,0.6,0c0.2,0,0.3-0.1,0.5-0.3c0.1,0,0.1,0,0.2,0.1
		c0.2,0.2,0.5,0.3,0.8,0.3h0h0c0,0,0,0,0,0c0,0,0,0-0.1-0.1l-0.2-0.1c-0.1-0.1-0.3-0.2-0.3-0.3c0-0.1-0.1-0.3-0.2-0.4c0,0,0,0,0-0.1
		c0,0,0-0.1-0.1-0.1l0,0c0.2,0.1,0.3,0.2,0.4,0.5c0.1,0.2,0.3,0.3,0.6,0.4C11.7,14.4,11.7,14.4,11.7,14.3
		C11.7,14.4,11.8,14.4,11.7,14.3C11.8,14.3,11.8,14.3,11.7,14.3L11.7,14.3z M8.3,11.5C8.3,11.5,8.3,11.5,8.3,11.5
		C8.3,11.5,8.3,11.5,8.3,11.5c-0.1-0.2-0.1-0.3-0.2-0.5c0,0,0-0.1-0.1-0.1c0-0.1-0.1-0.1,0-0.2c0,0,0,0,0.1,0c0,0,0,0,0,0
		c0.1,0,0.1,0.1,0.1,0.2C8.4,11.1,8.3,11.5,8.3,11.5z M9.9,14c0,0,0,0.1,0,0.1c-0.1,0-0.1,0-0.2,0c-0.1,0-0.1,0-0.1,0
		c0,0,0-0.1,0-0.1c0-0.1,0.1-0.2,0.2-0.2c0,0,0.1,0,0.1,0C9.9,13.9,9.9,14,9.9,14z M10.4,13c0,0,0,0.1,0,0.1c0,0,0,0-0.1,0
		c0,0,0-0.1,0-0.1c0-0.1,0-0.1,0-0.2c0-0.1-0.2-0.3-0.3-0.3c0,0-0.1,0.1-0.1,0.1c-0.1,0.1-0.1,0.1-0.1,0.1s0,0,0,0c0,0,0-0.1,0-0.2
		c0-0.1,0-0.1,0.1-0.2c0,0,0-0.1,0.1-0.1c0,0,0.1-0.1,0.1-0.1c0.1,0,0.1,0,0.1,0.1c0,0,0.1,0.1,0.1,0.1c0,0,0.1,0.1,0.1,0.1
		c0.1,0.1,0.1,0.2,0.1,0.3C10.4,12.9,10.4,12.9,10.4,13z M6.6,14.3c0,0,0.1,0.1,0.1,0.1c0,0.1,0.1,0.1,0.1,0.2c0,0,0,0,0.1,0
		c0.1,0,0.2,0,0.3-0.1c0,0,0-0.1,0-0.1c0,0,0,0,0,0c0,0,0-0.1,0-0.1c0-0.1,0-0.1-0.1-0.1c-0.1,0-0.2,0-0.4,0c0,0,0,0-0.1,0
		C6.5,14.2,6.5,14.2,6.6,14.3C6.5,14.2,6.6,14.3,6.6,14.3z"/>
	<path class="st1" d="M23.7,15.1C23.7,15.1,23.7,15.1,23.7,15.1c0-0.1,0-0.2,0-0.2c0-0.1,0-0.1,0-0.2c0-0.1-0.1-0.1-0.1-0.1
		c0,0,0,0-0.1,0c-0.1,0-0.1,0.1-0.1,0.2c0,0.1,0.1,0.3,0.1,0.4c0,0,0,0.1,0.1,0.1h0l0.3-0.1c0,0,0,0,0,0
		C23.8,15.3,23.8,15.2,23.7,15.1z M23.4,14.5c-0.1-0.1-0.1-0.1-0.2-0.2c0,0-0.1,0-0.1-0.1l0,0c0,0,0,0-0.1,0c-0.1,0-0.1,0.1-0.2,0.1
		c0,0,0.1,0.1,0.2,0.2l0,0c0,0,0.1,0.1,0.1,0.1l0,0c0.1,0,0.1,0,0.1-0.1C23.3,14.6,23.4,14.6,23.4,14.5z M17.3,14.1c0,0-0.1,0-0.1,0
		h-0.1h-0.1c0,0-0.1,0-0.1,0l0,0l0,0c0,0.1-0.1,0.2-0.1,0.3c0,0.1,0.1,0.1,0.2,0.1c0,0,0.1,0,0.1,0c0,0,0.1,0,0.1-0.1
		C17.4,14.4,17.4,14.3,17.3,14.1C17.4,14.2,17.4,14.2,17.3,14.1C17.4,14.1,17.4,14.1,17.3,14.1L17.3,14.1z M23.2,14.9L23.2,14.9
		L23.2,14.9c-0.2,0-0.2-0.1-0.3-0.2c0,0-0.1-0.1-0.1-0.1c0,0-0.1-0.1-0.1-0.1c0,0-0.1-0.1-0.1-0.1c0-0.1,0-0.1-0.1-0.2
		c0-0.1,0-0.1,0-0.2c0,0,0,0,0,0c0-0.1-0.1-0.2-0.2-0.2c0,0-0.1,0-0.1,0c-0.1,0-0.2,0-0.3-0.1c-0.1-0.1-0.1-0.2,0-0.3
		c0,0,0-0.1,0-0.1c0.1-0.2,0.1-0.3,0-0.5c0,0,0,0,0-0.1c0-0.1,0-0.1,0-0.2c0,0,0,0,0.1,0c0,0,0.1,0,0.1,0l0,0c0.1,0,0.2,0,0.3,0
		c0.2,0,0.3,0,0.4-0.1c0.3-0.1,0.5-0.4,0.5-0.8c0-0.4-0.3-0.7-0.7-1l0,0c-0.1,0-0.1-0.1-0.1-0.2c0-0.1,0.1-0.1,0.2-0.1l0.1,0h0
		c0.1,0,0.2-0.1,0.3-0.1c0.3-0.2,0.3-0.6,0.3-0.7c0,0,0,0,0,0c0,0,0-0.1,0-0.1c0,0,0,0,0,0c0,0,0,0,0,0c0,0-0.1,0.1-0.1,0.1
		c-0.1,0.1-0.2,0.1-0.3,0.1c-0.1,0-0.1,0-0.2,0.1c-0.3,0.1-0.5,0.3-0.5,0.4c0,0.1,0,0.2,0,0.4c0.1,0.2,0.2,0.3,0.4,0.4
		c0.2,0.2,0.4,0.4,0.5,0.7c0,0.2-0.1,0.3-0.2,0.4c-0.1,0.1-0.2,0.1-0.3,0.1c-0.2,0-0.3,0-0.5-0.1c-0.2-0.1-0.3-0.2-0.5-0.3
		c-0.2-0.2-0.5-0.3-0.8-0.4c-0.1-0.1-0.3-0.1-0.4-0.1c-0.2,0-0.4-0.1-0.5-0.2c-0.1,0-0.1-0.1-0.2-0.1c-0.1-0.1-0.3-0.2-0.4-0.2
		c-0.1,0-0.1,0-0.2,0c-0.1,0-0.2,0-0.3-0.1l-0.1-0.1c-0.1-0.1-0.3-0.2-0.4-0.3c-0.2-0.1-0.5-0.2-0.8-0.2c-0.1,0-0.2-0.1-0.2-0.2
		c0,0-0.1-0.1-0.1-0.1c-0.2-0.2-0.4-0.3-0.6-0.3c0,0,0,0-0.1,0c-0.1,0-0.2,0.1-0.3,0.2c-0.2,0.2-0.5,0.4-0.8,0.6
		c-0.4,0.3-0.8,0.6-1.1,0.9c-0.3,0.3-0.5,0.8-0.6,1.2c0,0.1,0,0.1-0.1,0.2c0,0.1-0.1,0.2-0.1,0.3c-0.2,0.6-0.3,1.2-0.9,1.6
		c0,0,0,0,0,0.1c0,0,0,0,0,0c0.2,0.1,0.4,0,0.5-0.2c0.2-0.2,0.2-0.4,0.4-0.6c0,0,0,0,0,0c0,0,0,0,0,0c0,0.1-0.1,0.2-0.1,0.2
		c-0.1,0.1-0.1,0.1-0.1,0.2c-0.1,0.2-0.2,0.3-0.4,0.4c0,0,0,0,0,0c0,0,0,0,0,0c0,0,0,0.1,0.1,0.1l0,0c0.3,0,0.6-0.2,0.8-0.5
		c0,0,0,0,0,0c0,0,0,0,0,0c0,0,0.1,0,0.1,0.1c0.1,0.1,0.2,0.1,0.3,0.2l0,0c0.1,0,0.2,0,0.4,0c0,0,0.1,0,0.1,0c0.1,0,0.2,0.1,0.4,0.1
		c0.1,0,0.2,0.1,0.3,0.1l0,0c0.1,0,0.2-0.1,0.3-0.2c0-0.1,0-0.1,0-0.2c0,0,0-0.1,0-0.1c0,0,0.1,0,0.1,0c0,0,0.1,0,0.1,0
		c0,0,0.1,0,0.1-0.1c0,0,0,0,0,0c0-0.1-0.1-0.2-0.1-0.3c-0.1-0.1-0.1-0.1-0.1-0.2c0-0.1-0.1-0.2-0.2-0.3C15.1,13.2,15,13.1,15,13
		c0,0,0,0,0,0c0,0,0,0,0,0c0,0,0.1,0.1,0.1,0.1c0.1,0.1,0.3,0.2,0.4,0.2c0.2,0,0.3,0,0.5,0c0,0,0.1,0,0.1-0.1c0,0,0,0,0,0
		c-0.1-0.1-0.1-0.3-0.2-0.4c-0.1-0.2-0.1-0.5,0-0.7c0,0,0,0,0,0l0,0c0,0,0,0,0,0.1v0c0,0.3,0,0.6,0.2,0.9c0.1,0.1,0.1,0.1,0.2,0.2
		c0.1,0,0.1,0.1,0.1,0.1c0,0.1,0,0.1,0,0.2l-0.2,0.4c-0.1,0.1-0.1,0.2-0.1,0.3c0,0.1,0,0.2,0,0.3v0c0,0,0,0,0,0
		c-0.1-0.1-0.1-0.3-0.1-0.4c0-0.1,0.2-0.4,0.3-0.5c0,0,0-0.1,0-0.1c-0.1,0-0.1-0.1-0.2-0.1h0c0,0-0.1,0-0.1,0.1l0,0L15.8,14l0,0
		c0,0.1,0,0.1,0,0.2c0,0.1,0,0.2,0.1,0.2c0,0,0,0,0,0.1c0,0.1,0,0.2,0.1,0.2c0,0,0.1,0,0.1,0c0,0,0,0,0.1,0c0,0,0.1,0,0.1,0
		c0,0,0.1,0,0.1,0.1c0,0,0.1,0.1,0.1,0.1c0.1,0,0.2,0.1,0.3,0.1c0.1,0,0.3,0.1,0.4,0.1c0.1,0,0.1,0,0.2,0c0.1,0,0.1,0,0.2-0.1
		c0.1-0.1,0.1-0.2,0.2-0.3c0-0.1,0.1-0.1,0.1-0.1c0,0,0.1,0,0.1,0c0.1-0.1,0.2-0.2,0.2-0.3c0,0,0-0.1,0-0.1c0,0,0,0,0-0.1
		c0,0,0-0.1-0.1-0.1c0,0,0,0,0,0h0c0,0-0.3,0-0.4,0c-0.1,0-0.2,0.1-0.2,0.2c0,0,0,0.1-0.1,0.1c0,0.1-0.1,0.1-0.2,0.1
		c0,0-0.1,0-0.1,0c-0.2,0-0.4-0.1-0.4-0.3c0,0,0-0.1,0-0.1c0.1-0.1,0.2-0.2,0.3-0.3c0.2,0,0.3-0.2,0.4-0.3c0,0,0-0.1,0-0.1
		c0,0,0-0.1,0.1-0.1c0,0,0.1,0,0.1,0c0,0.1,0,0.2-0.1,0.3c0,0,0,0,0,0.1v0h0c0,0,0.1,0,0.1,0c0.2,0,0.3,0,0.5-0.1
		c0.2,0,0.3-0.1,0.5-0.1h0.1c0.1,0,0.2,0,0.2,0c0.1,0,0.1,0,0.2,0c0,0,0.1,0,0.1,0c0.2,0,0.4-0.1,0.4-0.3c0-0.1,0-0.4,0-0.7
		c0,0,0,0,0,0l0,0c0,0,0,0,0,0c0,0,0,0,0.1,0c0.1,0.2,0.1,0.5,0.2,0.7c0,0.2,0.1,0.4,0.2,0.6c0.2,0.2,0.4,0.4,0.7,0.4
		c0.1,0,0.1,0,0.2,0c0,0,0.1,0,0.1,0c0.4,0,0.7,0.2,1,0.5c0,0,0,0,0,0c0,0,0,0,0,0c0,0,0,0,0,0l0,0c-0.2-0.2-0.4-0.3-0.7-0.4
		c-0.1,0-0.1,0-0.2,0c-0.1,0-0.2,0-0.2,0c-0.1,0-0.1,0-0.2,0c-0.1,0-0.2,0-0.3,0c-0.3-0.1-0.6-0.5-0.7-0.7c0,0,0,0,0,0c0,0,0,0,0,0
		c0,0,0,0,0,0.1c0,0.1,0,0.2,0,0.3c0,0.2,0.1,0.4,0.3,0.6c0.1,0.1,0.3,0.2,0.4,0.2c0,0,0.1,0,0.1,0c0.1,0,0.2,0,0.2,0
		c0.3,0,0.5,0.1,0.8,0.3c0,0,0.1,0.1,0.1,0.1c0,0,0.1,0.1,0.2,0.1c0,0,0.1,0,0.1,0c0.1,0,0.1,0,0.2-0.1c0,0,0.1,0,0.1,0
		c0.1,0,0.1,0.1,0.2,0.1c0,0.1,0.1,0.1,0.1,0.2c0.1,0.1,0.2,0.1,0.3,0.1c0,0,0.1,0,0.1,0l0.1,0l0,0v0C23.3,15.2,23.2,15,23.2,14.9z
		 M14.6,14.1C14.6,14.2,14.5,14.2,14.6,14.1c-0.1,0-0.2,0-0.2,0c-0.1-0.1-0.1-0.1-0.1-0.2c0,0,0-0.1,0-0.1c0,0,0,0,0,0
		c0.1,0,0.1,0,0.2,0.1C14.5,14,14.6,14.1,14.6,14.1z M14.7,12.8C14.6,12.8,14.6,12.8,14.7,12.8c-0.1,0-0.1,0-0.2,0
		c0,0,0-0.1-0.1-0.1h0c0,0-0.1,0-0.1,0.1c0,0-0.1,0.1-0.1,0.1C14.1,12.9,14,13,14,13.1c0,0,0,0,0,0.1c0,0,0,0.1,0,0.1l0,0h0
		c0,0,0,0,0,0c0,0,0,0,0,0c0-0.2,0-0.4,0.2-0.5c0.1-0.1,0.2-0.2,0.2-0.3c0,0,0.1-0.1,0.1-0.1s0.1,0,0.1,0.1
		C14.6,12.5,14.6,12.6,14.7,12.8C14.7,12.7,14.7,12.8,14.7,12.8z M16.3,10.5c0,0-0.1,0.1-0.1,0.1c-0.1,0.1-0.3,0.3-0.4,0.4
		c0,0.1-0.1,0.1-0.1,0.2c0,0,0,0,0,0c0,0,0,0,0,0c0-0.1,0-0.2,0-0.3c0.1-0.2,0.3-0.4,0.5-0.6c0,0,0.1,0,0.1,0c0,0,0.1,0,0.1,0.1
		C16.3,10.4,16.3,10.5,16.3,10.5L16.3,10.5z"/>
</g>
</svg>
