<?xml version="1.0" encoding="UTF-8"?>
<svg xmlns="http://www.w3.org/2000/svg" xmlns:xlink="http://www.w3.org/1999/xlink" width="150px" height="150px" viewBox="0 0 150 150" version="1.1">
<g id="surface1">
<path style=" stroke:none;fill-rule:nonzero;fill:rgb(0.784314%,2.352941%,34.901961%);fill-opacity:1;" d="M 86.25 101.25 C 86.875 101.875 87.5 101.875 88.125 101.875 L 88.125 110 C 87.5 110 87.5 110 86.875 110 C 80 110 72.5 107.5 66.875 103.125 C 70.625 100 73.125 95.625 75.625 91.25 C 77.5 91.25 78.75 91.25 80.625 91.25 C 81.875 91.25 82.5 91.25 83.75 91.25 C 84.375 91.25 85 91.25 85 90 C 85 89.375 85 88.75 84.375 88.125 L 84.375 87.5 L 85 87.5 C 85 88.125 85.625 88.75 85.625 88.75 C 86.25 89.375 86.25 90 86.875 90.625 C 87.5 90.625 87.5 91.25 88.125 91.25 C 89.375 91.875 90 91.875 90.625 93.125 L 91.25 93.75 C 91.875 94.375 91.875 95 91.25 96.25 C 90.625 97.5 89.375 98.125 88.125 98.125 C 87.5 98.125 86.25 98.125 86.25 96.875 C 86.25 96.875 86.25 96.875 86.25 96.25 L 85.625 95.625 C 85.625 95 85 95 84.375 95 C 83.75 95 82.5 95 81.875 95.625 L 81.25 95.625 C 81.875 96.25 81.875 96.875 82.5 97.5 C 82.5 97.5 83.125 98.125 83.75 98.125 C 84.375 98.125 84.375 98.125 85 98.75 C 85.625 100 85.625 100.625 86.25 101.25 Z M 89.375 95 C 88.75 95 88.125 95 87.5 95.625 C 87.5 96.25 87.5 96.875 88.125 97.5 C 88.125 98.125 88.75 98.125 88.75 98.125 L 89.375 98.125 C 90 98.125 90 97.5 90 96.875 C 90 95.625 89.375 95 89.375 95 Z M 110 84.375 C 110 83.75 109.375 83.125 108.75 83.125 L 107.5 81.875 L 106.25 81.875 L 105.625 82.5 C 105.625 82.5 105 83.125 105 82.5 C 105 82.5 104.375 82.5 104.375 81.875 C 104.375 81.875 104.375 81.875 104.375 81.25 C 104.375 80.625 105 79.375 105.625 78.75 L 106.25 78.75 C 106.875 79.375 108.125 80.625 108.75 81.25 C 109.375 81.875 110 83.125 110 84.375 C 110 84.375 110 84.375 110 85 C 110 85 110 85 109.375 85 L 108.75 85 C 110 84.375 110 84.375 110 84.375 Z M 107.5 89.375 L 108.125 89.375 C 108.125 89.375 108.125 89.375 108.125 90 C 108.125 91.25 108.125 91.875 106.25 91.875 C 105.625 91.875 105.625 91.875 105.625 91.25 C 105.625 90.625 105.625 90 106.25 89.375 C 106.875 90 107.5 90 107.5 89.375 Z M 146.25 39.375 L 138.125 62.5 L 127.5 62.5 L 127.5 76.25 C 127.5 95 112.5 110 93.75 110.625 L 91.875 110.625 L 91.875 100 L 92.5 100 C 93.125 100 93.75 99.375 93.75 98.75 C 93.75 98.125 94.375 98.125 95 98.125 C 95.625 98.125 96.25 98.125 96.25 96.875 C 96.25 95.625 96.25 95 96.875 94.375 C 96.875 93.75 96.875 93.125 96.25 92.5 C 95.625 91.25 95 90 94.375 89.375 C 93.75 88.125 93.75 88.75 93.125 89.375 L 93.75 90.625 L 95 92.5 C 95 92.5 95 93.125 95.625 93.125 C 95.625 94.375 95.625 95.625 95 96.25 L 94.375 96.25 C 94.375 96.25 94.375 96.25 94.375 95.625 L 94.375 95 C 94.375 94.375 94.375 93.125 93.75 92.5 C 93.125 91.875 92.5 90.625 91.875 90 C 91.25 89.375 91.25 88.125 91.875 87.5 C 92.5 86.875 92.5 86.875 93.125 86.875 C 93.75 86.25 93.75 85.625 94.375 85 C 94.375 84.375 95 83.75 95 83.75 C 95 82.5 95.625 81.25 95 80 L 95 78.75 L 95.625 78.75 L 95.625 79.375 C 95.625 80.625 96.25 81.875 95.625 82.5 C 95.625 83.75 95 85 95 86.25 L 95 86.875 L 96.875 86.875 C 98.125 86.875 99.375 86.25 100 85 L 101.25 83.75 L 101.875 83.75 C 101.875 83.75 102.5 84.375 101.875 84.375 C 101.875 85 101.875 85 101.25 85.625 C 101.25 86.25 100.625 86.875 100.625 86.875 C 100 88.125 99.375 88.75 98.75 90 C 98.75 90.625 98.125 91.25 98.125 91.875 C 98.125 92.5 98.125 92.5 98.75 92.5 C 99.375 92.5 99.375 92.5 99.375 93.125 L 99.375 94.375 C 99.375 95 100.625 95.625 101.25 95.625 C 101.875 95.625 101.875 95 102.5 95 L 103.125 94.375 C 103.75 93.75 105 93.75 106.25 93.125 L 107.5 93.125 C 108.125 93.125 108.75 93.125 109.375 92.5 L 110 91.875 C 110.625 91.25 111.25 91.25 111.25 91.875 L 112.5 92.5 C 113.125 93.125 113.75 93.125 114.375 93.75 C 115 94.375 115.625 94.375 116.875 94.375 L 117.5 94.375 C 117.5 94.375 117.5 94.375 116.875 93.75 C 116.25 93.75 116.25 93.125 115.625 93.125 C 115 92.5 114.375 92.5 114.375 91.875 C 113.75 91.25 113.125 90.625 113.125 90 C 113.125 89.375 112.5 89.375 112.5 88.75 L 112.5 88.125 C 112.5 88.125 112.5 87.5 113.125 87.5 C 113.125 87.5 113.75 87.5 113.75 88.125 L 115.625 90 C 116.25 90.625 116.25 90.625 116.875 91.25 C 117.5 91.875 118.125 91.875 118.75 92.5 C 119.375 92.5 120 92.5 120.625 92.5 L 120 91.875 C 118.125 91.25 116.875 90 115.625 88.125 C 115 86.875 114.375 85.625 113.75 84.375 C 113.125 83.125 112.5 81.25 111.875 80 C 111.25 78.75 110.625 76.25 110 74.375 C 109.375 73.125 108.75 71.875 108.125 71.25 C 106.875 70 105.625 68.75 104.375 68.125 C 103.125 66.875 101.25 66.25 100 65.625 C 97.5 64.375 95 63.125 92.5 61.875 L 93.75 61.875 L 92.5 61.875 L 92.5 39.375 Z M 93.125 68.125 C 92.5 67.5 92.5 67.5 93.125 68.125 C 92.5 67.5 92.5 66.875 92.5 66.875 L 93.125 66.25 L 93.75 66.25 C 93.75 66.25 94.375 66.25 94.375 66.875 C 95.625 67.5 96.875 68.75 97.5 70 C 97.5 70.625 98.125 71.25 98.125 71.875 L 98.125 72.5 L 97.5 72.5 C 96.875 71.25 95.625 70 94.375 69.375 Z M 63.75 100.625 C 63.125 101.25 62.5 101.875 61.875 101.875 C 61.25 102.5 60.625 103.125 60 103.125 C 53.75 107.5 46.875 110 39.375 110 C 20 110 3.75 94.375 3.75 75 C 3.75 55.625 19.375 39.375 38.75 39.375 C 46.25 39.375 53.75 41.875 60 46.25 C 54.375 51.875 50.625 58.125 48.75 65.625 C 43.75 60.625 35.625 60 30 65 C 24.375 70 24.375 78.125 29.375 83.75 C 34.375 88.75 42.5 89.375 48.125 84.375 L 48.75 83.75 C 49.375 83.125 50 81.875 50.625 81.25 C 51.875 79.375 52.5 76.875 52.5 75 C 52.5 65 56.25 55.625 63.75 49.375 C 64.375 48.75 65 48.125 65.625 48.125 C 66.25 47.5 66.875 46.875 67.5 46.875 C 73.75 42.5 80.625 40 88.125 40 L 88.125 61.875 C 88.125 61.875 88.125 61.875 87.5 61.875 C 86.875 61.875 86.875 61.875 86.25 61.875 C 83.125 62.5 80 63.75 78.125 66.25 C 77.5 66.875 76.875 68.125 76.25 68.75 C 75 70.625 74.375 73.125 74.375 75 C 74.375 85 70.625 93.75 63.75 100.625 Z M 63.75 100.625 "/>
</g>
</svg>
