<?xml version="1.0" encoding="utf-8"?>
<!-- Generator: Adobe Illustrator 25.2.1, SVG Export Plug-In . SVG Version: 6.00 Build 0)  -->
<svg version="1.1" id="Capa_1" xmlns="http://www.w3.org/2000/svg" xmlns:xlink="http://www.w3.org/1999/xlink" x="0px" y="0px"
	 width="24px" height="24px" viewBox="0 0 24 24" style="enable-background:new 0 0 24 24;" xml:space="preserve">
<style type="text/css">
	.st0{fill-rule:evenodd;clip-rule:evenodd;fill:#1D1D1B;}
	.st1{fill-rule:evenodd;clip-rule:evenodd;fill:#FFEC00;}
	.st2{fill:#1D1D1B;}
	.st3{fill:#FFFFFF;}
	.st4{fill-rule:evenodd;clip-rule:evenodd;fill:#009540;}
	.st5{fill-rule:evenodd;clip-rule:evenodd;fill:#FFFFFF;}
	.st6{fill-rule:evenodd;clip-rule:evenodd;fill:#E20613;}
</style>
<g>
	<path class="st0" d="M12,2.3c-5.4,0-8.7,1.9-8.7,1.9l0.1,4.4c0,2,0.7,10.6,8.6,15.2c7.9-4.7,8.6-13.2,8.6-15.2l0.1-4.4
		C20.7,4.2,17.4,2.3,12,2.3z"/>
	<path class="st1" d="M20.3,4.5c0,0-2.8-1.8-8.3-1.8S3.7,4.5,3.7,4.5l0.1,4.1c0,1.6,0.3,10.1,8.3,14.7c7.9-4.6,8.3-13.1,8.3-14.7
		L20.3,4.5z"/>
	<path class="st2" d="M11.8,3.4c0,0.1,0,0.1,0,0.1c0,0-0.1,0.1-0.1,0.1c0,0,0.1,0.1,0.1,0.1c0,0,0.1,0,0.1,0.1c0.1,0,0.1,0.1,0.1,0
		c0-0.1,0-0.1,0-0.1C12,3.6,11.9,3.6,11.8,3.4C11.8,3.5,11.8,3.4,11.8,3.4z"/>
	<path class="st2" d="M11.4,13.1c0,0,0.1,0.1,0.2,0.1c0.1,0.1,0.2,0.1,0.3,0.2c0.1,0.1,0.1,0.1,0.2,0.2c0.1,0.1,0.2,0.2,0.2,0.2
		c0-0.1-0.1-0.2-0.2-0.3c-0.1-0.1-0.2-0.2-0.3-0.2s-0.1-0.1-0.3-0.2c-0.1-0.1-0.2-0.2-0.3-0.3l-0.2-0.1l-0.3-0.2l-0.3-0.3l-0.2-0.3
		c0,0-0.2-0.2-0.2-0.3c0,0-0.1-0.2-0.2-0.3c-0.1-0.1-0.2-0.3-0.2-0.3c-0.1-0.1-0.2,0-0.4-0.1c-0.1,0-0.2-0.1-0.3-0.2c0,0,0,0,0,0
		c0,0,0,0,0,0L9,10.6l-0.1,0c0,0-0.1,0-0.1-0.1c-0.1,0-0.2-0.1-0.2-0.1l-0.2-0.2l-0.1-0.1c0,0-0.1,0-0.1-0.1c0,0,0,0,0,0H8
		c0,0-0.1,0-0.1,0c0,0.1,0,0,0,0.3c0,0.1,0,0.5,0.1,0.7c0,0.1,0.1,0.3,0.2,0.4c0,0,0,0.1,0,0.1c0,0,0,0.1,0,0.1
		c0,0.2,0.4,0.1,0.4,0.4c0,0.2,0,0.4,0,0.6c0,0-0.1,0.1-0.2,0.2c-0.1,0-0.2-0.2-0.4-0.4C8,12.4,7.9,12.2,7.9,12c0,0,0-0.1-0.1-0.1
		c0-0.1-0.1-0.1-0.1-0.2c-0.1-0.1,0-0.2,0-0.3c0-0.1,0-0.1,0-0.2s0-0.4,0-0.4l0-0.2c0,0,0-0.1,0-0.2c0-0.2-0.1-0.3-0.1-0.5V9.8
		c0,0,0-0.1,0-0.1c0,0,0-0.1,0-0.1c0,0,0.1-0.1,0.1-0.1c0,0,0.1-0.1,0.1-0.1c0,0,0.1-0.1,0.1-0.1c0.1,0,0.1,0,0.2,0
		c0.1,0,0.1,0,0.2,0c0.2,0,0.4,0.1,0.6,0.1c0.1,0,0.2,0.1,0.2,0.1C9.1,9.6,9.1,9.5,9,9.4C8.9,9.4,8.9,9.3,8.8,9.2
		C8.7,9.2,8.7,9.1,8.6,9.1c0-0.1-0.2-0.3-0.2-0.3L8.4,8.7c0,0,0,0-0.1-0.1l0,0c0,0-0.1,0-0.1,0c-0.1,0-0.1,0.1-0.1,0.1
		C8,8.8,7.9,9,7.8,9.1C7.7,9.2,7.5,9.4,7.4,9.6C7.3,9.8,7.3,10,7.2,10.1c0,0,0,0.1-0.1,0.1c-0.1,0.1,0.1,0.2,0.1,0.4
		C7.2,10.8,6.6,11,6.6,11c-0.1,0,0-0.4,0-0.5c0-0.1,0.1-0.2,0.1-0.3c0,0,0,0,0-0.1c0,0,0-0.1,0-0.1c0,0,0-0.1,0-0.1
		c0,0,0-0.1,0.1-0.1C6.8,9.7,7,9.4,7.2,9.2C7.2,9,7.3,8.9,7.4,8.8c0.1-0.2,0.2-0.4,0.2-0.4s0.1-0.1,0.1-0.2L7.8,8
		C7.9,8,7.9,7.9,8,7.8c0-0.1,0.1-0.1,0.2-0.1c0.1,0,0.2,0,0.3,0c0.1,0,0.2,0.1,0.3,0.2c0,0,0.1,0.1,0.1,0.1l0,0.1l0,0l0.1,0l0.2,0.1
		l0.4,0.3c0,0,0.1,0.1,0.1,0.1c0,0,0.1-0.1,0.3-0.3c0.1-0.1,0.3-0.2,0.4-0.2c0.1,0,0.1-0.1,0.2-0.1c0.1-0.1,0.1-0.2,0.2-0.3
		c0.1-0.1,0.1-0.1,0.2-0.2c0,0,0,0,0.2-0.2c0.1-0.1,0.2-0.2,0.3-0.4l0.1-0.2c0,0,0.2-0.3,0.2-0.5c0-0.1,0-0.1,0-0.2c0,0,0-0.1,0-0.1
		c0-0.1-0.1,0-0.1,0c-0.1,0-0.2,0-0.4,0c-0.1,0-0.2-0.1-0.3-0.1c-0.1,0-0.2,0-0.3,0c0,0-0.1,0-0.1,0c-0.1,0-0.1,0-0.1,0.1
		c-0.1,0-0.1,0-0.2,0c0,0-0.1,0-0.1,0c0,0-0.1,0-0.1,0l0,0c0,0,0,0,0,0c0,0,0,0,0,0l0.1,0l0.1,0l0.1,0c0,0,0.1,0,0.1,0
		c0,0,0,0,0-0.1c0,0-0.1,0-0.1,0l-0.1,0l-0.1,0l-0.2,0c-0.1,0-0.1,0-0.2,0h0c0,0,0,0,0,0c0,0,0,0,0-0.1c0-0.1,0-0.1,0-0.2
		c0,0,0-0.1,0-0.1c0,0,0,0,0-0.1l0.1-0.1L10,5c0,0,0.1-0.1,0.1-0.1c0.1,0,0.1-0.1,0.2-0.1c0.1,0,0.1,0,0.2,0c0.1,0,0.1,0,0.2-0.1
		c0,0,0.3-0.1,0.4-0.2c0.1-0.1,0.3-0.2,0.4-0.2c0.1,0,0.1,0,0.2-0.1c0,0,0,0,0,0c0,0,0,0-0.1,0c0,0-0.1,0-0.1,0s0.1,0,0.1,0s0,0,0,0
		c0,0,0,0-0.1,0c-0.1,0-0.1,0-0.2,0c-0.1,0-0.1,0-0.2,0c-0.1,0-0.1,0-0.2,0c0,0,0,0,0,0C11,4,11.1,4,11.2,4c0,0,0.1,0,0.1,0
		c0,0,0.1,0,0.1,0c0,0-0.1,0-0.1,0c-0.1,0-0.1,0-0.1-0.1c0,0,0,0,0.1,0c0,0,0.1,0,0.1,0c0,0,0.1,0,0.1,0c0.1,0,0.1,0,0.2,0l0.2,0.1
		c0,0,0.1,0,0.1,0c0.1,0,0.1,0,0.2,0c0.1,0,0-0.1,0-0.1c0-0.1,0-0.1,0-0.2c0-0.1,0.1-0.2,0.1-0.2c0,0,0.1,0.1,0.1,0.1
		c0.2,0.1,0.3,0.3,0.5,0.4c0,0,0.1,0,0.3,0c0.2,0,0.3,0.1,0.4,0.3c0,0,0.1,0,0.1,0h0.4c0.1,0,0.1,0,0.2,0c0.1,0,0.3,0.2,0.2,0.2
		c-0.1,0-0.1,0-0.2,0c-0.1,0-0.1,0-0.2,0c-0.1,0-0.4,0.1-0.3,0.1h0.1c0.1,0,0.1,0,0.2,0.1c0.1,0,0.2,0.1,0.3,0.1
		c0,0,0.1,0.1,0.1,0.1c0.1,0,0.1,0,0.2,0c0.1,0,0.1,0,0.2,0.1c0.1,0.1,0.2,0.1,0.2,0.2c0,0,0.1,0,0.1,0.1c0,0,0,0,0,0
		c0,0-0.1,0-0.1,0c0,0-0.1,0-0.1-0.1c-0.1,0-0.1-0.1-0.2-0.1c0,0-0.1,0-0.1,0c-0.1,0-0.1,0-0.1,0c-0.1,0-0.1,0-0.2,0
		c-0.1,0-0.1-0.1-0.2-0.1c-0.1,0-0.3-0.1-0.3,0c0,0,0.1,0.1,0.1,0.1s0.1,0,0.1,0.1c0,0,0.1,0,0.1,0.1l0,0c0,0,0,0.1,0.1,0.1
		c0,0,0.1,0.1,0.2,0.1c0.1,0,0.1,0,0.2,0c0.2,0,0.3,0.1,0.4,0.3c0.1,0.1,0,0.1,0,0.1c0,0,0,0,0,0s-0.1-0.1-0.1-0.1l0,0
		c0,0-0.1,0-0.1-0.1c-0.1,0-0.1,0-0.1,0c-0.1,0-0.2,0-0.3,0c-0.1,0-0.1,0-0.2-0.1l-0.1-0.1c0,0-0.1-0.1-0.1-0.1
		C14,5.7,14,5.7,14,5.7l0.1,0.1c0,0,0.1,0.1,0.1,0.1c0,0,0.1,0,0.1,0.1h0.1l0.1,0c0.1,0,0.1,0.1,0.2,0.1c0,0,0,0,0,0l0,0h0.1
		c0.1,0,0,0,0,0v0l0,0c0,0-0.1,0-0.1,0c0,0-0.1,0-0.1,0l-0.1,0l-0.1,0l-0.1,0c0,0-0.1,0-0.1,0c0,0-0.1,0-0.1,0C14,6,14,5.9,13.9,5.9
		c-0.1,0-0.1,0-0.2,0C13.6,6,13.9,6,14,6c0.2,0.1,0.3,0.2,0.3,0.3c0,0.1,0.1,0.1,0.1,0.1c0.1,0,0.1,0.1,0.2,0.1c0,0,0,0.1,0.1,0.1
		c0.1,0.1,0.2,0.1,0.2,0.2c0,0.1-0.1,0-0.2,0c-0.1,0-0.2-0.1-0.3-0.2c-0.1,0-0.1,0-0.2,0c-0.1,0-0.2-0.1-0.3-0.1
		c-0.1,0-0.2-0.1-0.2,0c0,0,0,0,0,0c0,0,0,0,0,0.1c0,0,0,0,0.1,0.1c0.1,0.1,0.1,0.1,0.2,0.1c0.1,0.1,0.2,0.1,0.2,0.2
		c0,0,0,0.1,0.1,0.1c0,0,0,0.1,0,0.1c0,0,0,0.1,0.1,0.1c0.1,0.1,0.2,0.1,0.3,0.1c0,0,0,0,0.1,0.1c0,0,0,0,0,0c-0.1,0-0.1,0-0.2,0
		c-0.1,0-0.2,0-0.2-0.1c-0.1,0-0.1-0.1-0.2-0.1l-0.1,0c0,0-0.1,0-0.1,0l-0.1,0c-0.1,0-0.1,0-0.2-0.1c0,0-0.1,0-0.1,0
		c-0.1,0.1,0.1,0.1,0.2,0.2c0,0,0.1,0.1,0.1,0.1c0,0,0,0.1,0.1,0.1c0,0,0,0,0.1,0c0,0,0.1,0,0.1,0.1c0.1,0.1,0.1,0.2,0.2,0.2
		l0.1,0.1l0,0.1v0l0,0c0,0,0,0.1,0.1,0.1c0,0,0,0,0,0s0,0,0,0c0,0,0,0-0.1,0s-0.1,0-0.1-0.1c0,0-0.1-0.1-0.1-0.1c0,0-0.1,0-0.1,0
		c0,0-0.1,0-0.1-0.1L14,7.8c-0.1,0-0.1-0.1-0.2-0.1c-0.1,0,0,0,0,0c0,0,0.1,0.1,0.1,0.1c0.1,0,0.2,0.1,0.1,0.1C14,8,14,8,14,8
		c0,0-0.1,0-0.1-0.1c0,0-0.1,0-0.1-0.1c-0.1,0-0.1,0,0,0.1c0,0,0,0,0.1,0.1l0.1,0h0L14,8c0.1,0,0.1,0,0.2,0.1c0,0,0.1,0.1,0.1,0.1
		c0.1,0,0.1,0.1,0.2,0.1c0,0,0,0,0,0c0,0,0,0,0,0c0,0,0,0,0,0c0,0,0,0,0,0c0,0,0,0,0,0h0c0,0,0,0-0.1,0c-0.1,0-0.1,0-0.2,0
		c-0.1,0-0.1,0-0.2-0.1c0,0-0.1-0.1-0.2-0.1c-0.1,0-0.1,0-0.2,0l-0.1,0c-0.1,0,0,0,0,0h0.1c0.1,0,0.1,0,0.2,0c0.1,0,0.1,0.1,0.2,0.1
		c0,0,0.1,0.1,0.1,0.1l0,0l0,0v0c0,0,0,0,0,0h0l-0.1-0.1c0,0-0.1,0-0.1-0.1c0,0-0.1,0-0.1,0c-0.1,0-0.1,0-0.2,0c-0.1,0-0.1,0-0.2,0
		c-0.1,0-0.3-0.1-0.3-0.1c0,0,0.1,0.1,0.2,0.1c0.1,0,0.2,0.1,0.2,0.1c0.1,0,0.1,0,0.2,0.1C13.9,8.8,14,8.9,14.1,9
		c0.1,0.1,0.1,0.1,0.2,0.1c0.1,0,0.1,0,0.2,0c0.1,0,0.2-0.1,0.2-0.1s0,0,0,0c0,0,0,0,0,0c0,0,0,0,0,0c0,0-0.1,0.1-0.1,0.1
		c-0.1,0-0.2,0-0.3,0c-0.1,0-0.2,0-0.3-0.1l-0.1-0.1l-0.1,0c-0.1,0-0.2,0-0.3-0.1c-0.1,0-0.1,0-0.2,0s0,0,0,0c0,0,0.1,0.1,0.1,0.1
		c0.1,0,0.1,0,0.2,0.1c0.1,0,0.1,0.1,0.2,0.1c0,0,0.1,0.1,0.1,0.1l0.1,0.1c0,0,0,0,0,0c0,0,0,0.1,0,0.1c0,0,0,0,0,0l0,0l0,0l-0.1,0
		c0,0-0.1-0.1-0.1-0.1c-0.1,0-0.1,0-0.2-0.1c0,0-0.1,0-0.1,0c0,0,0,0,0.1,0c0,0,0.1,0,0.1,0.1c0,0,0.1,0.1,0.1,0.1
		c0,0,0.1,0.1,0.1,0.1c0,0,0.1,0.1,0.1,0.1C14,9.8,14,9.8,14,9.8c0,0,0,0,0,0h0l0,0c0,0-0.1,0-0.1-0.1l-0.1-0.1l-0.1-0.1l-0.1-0.1
		c0,0-0.1,0-0.1-0.1c0,0-0.1,0-0.1,0c0,0-0.1,0-0.1,0c-0.1,0-0.1-0.1-0.2-0.1c0,0-0.1,0-0.1,0c0,0.1,0,0.1-0.1,0.2
		c0,0.3,0,0.5,0.2,0.8c0.2,0.3,0.4,0.6,0.7,0.9c0.1,0,0.1,0.1,0.2,0.1c0.2,0.2,0.4,0.3,0.6,0.5c0.2,0.2,0.3,0.3,0.4,0.5
		c0.1,0.1,0.2,0.2,0.2,0.4c0.1,0.1,0.1,0.3,0.1,0.4c0,0,0,0,0,0.1c0,0,0,0,0,0h0.1c0.1,0,0.1,0,0.2,0c0.1,0,0.2-0.1,0.3-0.1
		c0.1,0,0.2-0.1,0.2-0.2c0,0,0,0,0.1-0.2c0.1-0.1,0.2-0.3,0.2-0.4c0-0.2,0.1-0.3,0.1-0.5c0-0.2,0-0.3,0-0.5c0,0,0-0.4-0.1-0.5
		s-0.1-0.3-0.1-0.3s0-0.2-0.1-0.3s0-0.3,0-0.3c0-0.1,0-0.2,0-0.3c0.1-0.2,0.2-0.5,0.3-0.7c0.1-0.1,0.2-0.2,0.3-0.3
		c0.1-0.1,0.3-0.2,0.3-0.2s-0.1,0.1-0.1,0.1C17.1,8.7,17,8.9,16.9,9c-0.1,0.1-0.2,0.3-0.2,0.5c0,0.1,0,0.2,0,0.3c0,0,0,0,0,0
		c0.2-0.1,0.3-0.3,0.4-0.4c0.2-0.2,0.3-0.5,0.4-0.5s0.1,0.1,0,0.1c0,0.1-0.1,0.2-0.1,0.3c-0.1,0.1-0.1,0.2-0.2,0.3
		C17.1,9.8,17.1,9.9,17,10c-0.1,0.1-0.1,0.3,0,0.4c0,0,0,0.1,0.1,0.1c0.1,0,0.3-0.2,0.4-0.4c0.1-0.1,0.1-0.3,0.2-0.4
		s0.1,0.1,0.1,0.2c0,0.2-0.1,0.3-0.2,0.5c-0.1,0.1-0.1,0.2-0.1,0.4c0,0.1,0,0.2,0,0.3c0,0.1,0,0.3,0,0.4c0,0.1,0,0.3,0.1,0.4
		c0,0.3,0,0.6-0.2,0.9c-0.1,0.1-0.1,0.2-0.2,0.3c-0.1,0.1-0.1,0.1-0.2,0.2c-0.1,0.1-0.2,0.1-0.3,0.2c0,0-0.1,0.1-0.2,0.1
		c0,0,0,0,0,0c0,0,0,0,0,0l0,0.1c0,0.1,0,0.2,0.1,0.3c0,0.1,0,0.2,0,0.2c0,0.1,0,0-0.1,0.2c0,0.2,0.1,0.2,0,0.4
		c0,0.1-0.1-0.1-0.1-0.2c-0.1-0.1-0.1-0.3-0.1-0.4c0-0.1,0-0.1,0-0.2c0-0.1-0.1-0.2-0.1-0.2c0-0.1-0.1-0.1-0.1-0.1c0,0,0,0,0,0.1
		c0,0,0,0.1,0,0.1L16,14c0,0.1,0,0.1,0,0.2c0,0.1,0,0.2,0,0.3c0,0.1-0.1,0.2-0.1,0.3c-0.1,0.1-0.1,0.2-0.2,0.3
		c-0.1,0.1-0.1,0.2-0.2,0.3c-0.1,0.2,0,0.2,0,0.3s-0.1-0.1-0.1-0.2c0-0.1,0-0.1,0-0.2c0-0.1,0.1-0.1,0.1-0.2l0.1-0.2
		c0.1-0.1,0.1-0.3,0.2-0.4c0-0.1,0-0.2,0-0.4c0,0,0-0.1,0-0.1c0,0-0.1,0-0.1,0.1c0,0.1,0,0.1,0,0.2s-0.1,0.1-0.1,0.2
		c0,0.1,0,0.1,0,0.2c0,0.1,0,0,0,0c0-0.1,0-0.1,0-0.2c0-0.1,0-0.1,0-0.2c0-0.1,0-0.2,0.1-0.3c0-0.1,0-0.2,0-0.3
		c0-0.1-0.1-0.2-0.1-0.2s0,0-0.1,0c-0.1,0-0.1,0.1-0.1,0.1c0,0.1,0,0.1,0,0.2c-0.1,0.2-0.1,0.4-0.3,0.6c-0.1,0.2-0.2,0.3-0.4,0.5
		c-0.1,0.1-0.4,0.3-0.4,0.3l-0.3,0.2c-0.1,0.1-0.1,0.2-0.2,0.3c-0.1,0.1-0.1,0.3,0,0.4c0,0.1,0.1,0.1,0.1,0.2c0,0.1,0.1,0.1,0.1,0.2
		c0,0,0,0.1,0,0.1c0,0,0,0.1,0,0.1c0,0.1,0,0.1,0,0.2c0,0-0.1,0.1-0.1,0.1c0,0-0.1,0-0.1,0.1c-0.4,0.2-0.7,0.5-1,0.9
		c-0.1,0.1,0,0.1-0.1,0.2c-0.1,0.1-0.2,0.1-0.3,0.2c-0.1,0.1,0.2,0.3-0.1,0.4c-0.3,0.1-0.7,0.1-1,0c0-0.1,0.1-0.3,0.2-0.3
		c0.2-0.3,0.5-0.3,0.5-0.5c0,0,0-0.1,0.2-0.2c0.3-0.2,0.6-0.5,0.9-0.8c0.1-0.1,0.1-0.2,0.2-0.3c0-0.1,0-0.1,0-0.2L13,16.5l-0.2-0.3
		l-0.1-0.3c0-0.1-0.1-0.4-0.1-0.4c0-0.1-0.1-0.3-0.1-0.4c0-0.3,0-0.5,0.1-0.7c0.1-0.4,0.3-0.5,0.4-0.9c0-0.1,0-0.3,0-0.3
		c-0.1,0-0.1,0.2-0.1,0.2c-0.1,0.4-0.3,0.5-0.4,0.9c-0.1,0.2-0.1,0.4-0.1,0.7c0,0.1,0,0.3,0,0.4c0,0.1,0,0.2,0.1,0.2
		c0,0.1,0.1,0.2,0.1,0.2c0,0.1,0.1,0.2,0.1,0.3c0,0,0,0.1,0,0.1c0,0.1,0,0.1,0,0.1c0,0.1,0,0.1-0.1,0.2c-0.1,0-0.2,0-0.4-0.1
		c0,0-1-0.3-1.6-0.2c-0.1,0-0.2,0-0.3,0.1c-0.1,0-0.2-0.1-0.3-0.1c0,0,0,0-0.1,0c-0.2,0.1,0,0.3-0.5,0.2c-0.3-0.1-0.6-0.2-0.5-0.3
		s0.2-0.2,0.4-0.2c0.2-0.1,0.4-0.1,0.6-0.1c0.1,0,0.2-0.1,0.3-0.1c0.1,0,0.2,0,0.3,0l0.4,0h0.8c0.1,0,0.1,0,0.2,0
		c0.1,0,0.1-0.1,0.1-0.2c0,0,0-0.1,0-0.1l0,0L12,15.3L11.9,15l-0.2-0.3c0,0-0.1-0.2-0.2-0.4c-0.1-0.1-0.1-0.3-0.1-0.4
		c0-0.1-0.1-0.3-0.1-0.4C11.4,13.4,11.4,13.2,11.4,13.1z"/>
	<path class="st3" d="M16.8,12.8c0.1-0.2,0.2-0.5,0.2-0.7c0-0.2,0-0.4-0.1-0.5l0,0c0,0,0,0,0,0c0,0,0,0.1,0,0.1V12
		c0,0.1,0,0.3-0.1,0.4c-0.1,0.4-0.4,0.5-0.5,0.7C16.2,13.3,16.6,13.1,16.8,12.8z"/>
	<path class="st3" d="M14.9,13.5C14.9,13.5,14.9,13.5,14.9,13.5c-0.1,0.2-0.1,0.2-0.1,0.3c0,0.1-0.1,0.2,0,0.3
		C15,14.1,15.1,13.6,14.9,13.5C15,13.5,15,13.5,14.9,13.5z"/>
	<path class="st3" d="M13.7,16.9C13.7,16.9,13.7,16.9,13.7,16.9C13.6,16.9,13.6,16.9,13.7,16.9c-0.1,0.1-0.1,0.1-0.1,0.1
		C13.7,17,13.7,16.9,13.7,16.9C13.7,16.9,13.7,16.9,13.7,16.9z"/>
	<path class="st3" d="M12.6,17.7C12.6,17.7,12.5,17.7,12.6,17.7C12.6,17.7,12.6,17.7,12.6,17.7C12.6,17.7,12.6,17.7,12.6,17.7
		c0,0,0.2-0.1,0.3-0.2s0.3-0.3,0.3-0.3c0,0,0,0,0,0c0,0,0,0-0.1,0c0,0,0,0-0.1,0c0,0-0.1,0.1-0.1,0.1l-0.2,0.2l-0.1,0.1l-0.1,0.1
		L12.6,17.7L12.6,17.7L12.6,17.7L12.6,17.7L12.6,17.7C12.6,17.7,12.6,17.7,12.6,17.7z"/>
	<path class="st3" d="M12.2,17.9C12.2,17.9,12.2,17.9,12.2,17.9c-0.1,0-0.1,0-0.1,0.1c0,0,0,0,0,0.1s0.1,0,0.1,0
		C12.2,18,12.2,18,12.2,17.9C12.2,18,12.2,18,12.2,17.9L12.2,17.9z"/>
	<path class="st3" d="M11.6,18.6C11.6,18.6,11.5,18.5,11.6,18.6c-0.1,0-0.1,0-0.2,0c0,0,0,0.1-0.1,0.1c0,0,0,0.1,0,0.1
		C11.5,18.8,11.4,18.7,11.6,18.6C11.5,18.7,11.6,18.7,11.6,18.6C11.6,18.6,11.6,18.6,11.6,18.6z"/>
	<path class="st3" d="M9.3,15.9C9.3,15.9,9.2,15.9,9.3,15.9C9.2,16,9.2,16,9.3,15.9C9.3,16,9.3,16,9.3,15.9
		C9.4,16,9.4,15.9,9.3,15.9C9.4,15.9,9.4,15.9,9.3,15.9z"/>
	<path class="st3" d="M10.5,15.9C10.5,15.9,10.5,15.8,10.5,15.9c-0.1,0-0.1,0-0.1,0C10.4,15.9,10.4,15.9,10.5,15.9
		C10.5,15.9,10.5,15.9,10.5,15.9z"/>
	<path class="st3" d="M11.7,15.9c0,0-0.1,0-0.1,0c-0.1,0-0.2,0-0.3,0c-0.2,0-0.4,0-0.4,0h0c0,0,0,0.1,0.1,0.1c0.1,0,0.2,0.1,0.3,0.1
		c0.1,0,0.1,0,0.2,0C11.5,16,11.6,16,11.7,15.9C11.7,16,11.7,15.9,11.7,15.9z"/>
	<path class="st3" d="M12.4,15.7C12.4,15.7,12.4,15.7,12.4,15.7c-0.1,0-0.1,0-0.1,0.1c0,0,0,0,0,0C12.3,15.8,12.3,15.8,12.4,15.7
		C12.4,15.8,12.4,15.7,12.4,15.7z"/>
	<path class="st3" d="M11.8,7.7c0.2-0.2,0.3-0.4,0.5-0.6c0.1-0.2,0.2-0.7,0.1-0.6c0,0.1-0.1,0.3-0.2,0.5C12,7.3,11.9,7.5,11.8,7.7
		C11.8,7.7,11.7,7.8,11.8,7.7z"/>
	<path class="st3" d="M10.7,8.4C10.7,8.4,10.7,8.4,10.7,8.4C10.7,8.5,10.7,8.5,10.7,8.4c0.1,0,0.2,0,0.3,0c0.1,0,0.2,0,0.3,0l0.1,0
		l0.1,0c0,0,0.1,0,0.1,0c0,0-0.2-0.2-0.4-0.2C11,8.3,10.8,8.3,10.7,8.4L10.7,8.4z"/>
	<path class="st3" d="M9.3,9.5c0,0,0.1-0.2,0.2-0.3C9.6,9.1,9.8,9,9.8,9s0.1-0.1,0,0C9.6,9,9.5,9.1,9.5,9.2C9.4,9.3,9.3,9.5,9.3,9.5
		z"/>
	<path class="st3" d="M8.6,8.6c0,0.1,0,0.1,0.1,0.2C8.8,8.9,8.8,9,8.8,9c0,0-0.1-0.2-0.1-0.2L8.6,8.6L8.6,8.6L8.6,8.6L8.6,8.6
		C8.6,8.6,8.6,8.6,8.6,8.6L8.6,8.6z"/>
	<path class="st3" d="M8.3,7.9c0,0-0.1,0-0.1,0.1S8.3,8,8.3,7.9C8.3,8,8.4,8,8.3,7.9C8.4,7.9,8.4,7.9,8.3,7.9z"/>
	<path class="st3" d="M6.7,10.5c0,0-0.1,0.1-0.1,0.1c0,0,0,0.1,0,0.1c0,0,0.1-0.1,0.1-0.1C6.7,10.6,6.7,10.6,6.7,10.5z"/>
	<path class="st3" d="M8.4,12.5c0,0-0.1-0.1-0.1,0s0.1,0.2,0.1,0.2c0,0,0,0,0.1,0C8.4,12.7,8.4,12.6,8.4,12.5
		C8.4,12.6,8.4,12.5,8.4,12.5z"/>
	<path class="st3" d="M7.7,10.4C7.6,10.4,7.6,10.4,7.7,10.4L7.7,10.4c0,0.1,0,0.1,0,0.1c0,0.1,0,0.1,0,0.2c0,0.1,0,0.1,0,0.2
		c0,0,0,0.1,0.1,0.1c0,0,0,0,0,0c0,0,0,0,0,0s-0.1-0.3-0.1-0.3L7.7,10.4C7.7,10.4,7.7,10.4,7.7,10.4L7.7,10.4z"/>
	<path class="st3" d="M7.8,9.4C7.8,9.4,7.7,9.4,7.8,9.4C7.7,9.6,7.7,9.6,7.7,9.6c0,0,0,0,0.1-0.1C7.8,9.5,7.8,9.5,7.8,9.4
		C7.8,9.5,7.8,9.4,7.8,9.4z"/>
	<path class="st3" d="M9,10.3C9,10.3,9,10.4,9,10.3c-0.2,0-0.3-0.1-0.4-0.2c-0.1,0-0.2-0.1-0.2-0.1c0,0,0,0,0,0c0,0,0.1,0,0.1,0
		l0.2,0.1c0.1,0,0.1,0,0.1,0.1C8.8,10.2,8.9,10.3,9,10.3L9,10.3z"/>
	<path class="st3" d="M11.7,12.6c0,0.1-0.3-0.2-0.5-0.3c-0.5-0.4-1.1-1.1-1-1.2c0.1-0.1,0.3,0.3,0.7,0.7
		C11.2,12.2,11.7,12.6,11.7,12.6z"/>
	<path class="st3" d="M13.1,12.3C13,12.4,13,12.5,13,12.6c0.1,0.1,0.1-0.2,0.1-0.2c0.1-0.1,0.1-0.1,0.2-0.1
		C13.5,12.2,13.2,12.1,13.1,12.3z"/>
	<path class="st3" d="M12.5,9.9c-0.1,0-0.1,0.1-0.1,0.2c0.1,0.3,0.2,0.6,0.4,0.9c0.1,0.2,0.5,0.4,0.5,0.4c-0.2-0.2-0.4-0.4-0.5-0.6
		c-0.1-0.2-0.2-0.4-0.3-0.7C12.5,10,12.5,9.9,12.5,9.9z"/>
	<path class="st3" d="M11.1,4.8c-0.1,0.1-0.3,0.1-0.4,0.2c0,0,0,0,0,0C10.9,4.9,11,4.9,11.1,4.8c0.1,0,0.2,0,0.3-0.1c0,0,0-0.1,0,0
		C11.3,4.7,11.2,4.7,11.1,4.8z"/>
	<path class="st3" d="M13,4.2C13,4.2,13,4.2,13,4.2c-0.1,0-0.1,0-0.1,0C12.9,4.2,13,4.2,13,4.2c0,0.1,0.1,0.1,0.1,0.1
		C13.1,4.2,13.1,4.2,13,4.2C13,4.2,13,4.2,13,4.2z"/>
	<path class="st3" d="M12.1,5.8c0.1,0,0.2,0,0.2-0.1c0,0,0.1-0.1,0.1-0.1s0-0.1,0-0.1C12.3,5.7,12.1,5.8,12.1,5.8z"/>
	<path class="st3" d="M12.1,5.4c0.1-0.1-0.2,0.1-0.3,0.2c-0.1,0-0.2,0.1-0.2,0.1s0,0,0,0s0.2,0,0.3,0c0,0,0.1-0.1,0.1-0.2
		C12.1,5.5,12.1,5.4,12.1,5.4z"/>
	<path class="st3" d="M12.1,5.9c0.1,0,0.2,0,0.3,0c0.1,0,0.1-0.1,0.1-0.1s0-0.1,0-0.1C12.4,5.9,12.1,5.9,12.1,5.9z"/>
	<path class="st3" d="M7.8,8.4C7.8,8.4,7.7,8.4,7.8,8.4C7.6,8.5,7.4,8.8,7.5,8.9c0,0,0.2-0.3,0.3-0.4C7.8,8.5,7.8,8.4,7.8,8.4
		C7.8,8.4,7.8,8.4,7.8,8.4z"/>
	<path class="st3" d="M12.7,14.6c0,0.1,0,0.3,0,0.4c0.1,0.1,0-0.2,0.1-0.3c0-0.1,0-0.2,0.1-0.2C13,14.3,12.8,14.3,12.7,14.6z"/>
	<path class="st3" d="M11.9,4.6c0,0-0.1,0-0.1,0c0,0-0.1,0-0.1,0.1c0,0,0,0,0,0.1c0,0,0.1,0,0.2,0c0,0,0.1,0,0.1,0.1
		c0,0,0.1,0.1,0.1,0.1c0,0,0-0.1,0-0.1c0-0.1,0-0.1-0.1-0.2C12,4.6,11.9,4.6,11.9,4.6z"/>
	<path class="st3" d="M10.6,5.5C10.6,5.5,10.6,5.5,10.6,5.5C10.6,5.5,10.6,5.5,10.6,5.5C10.6,5.5,10.6,5.5,10.6,5.5
		C10.6,5.6,10.7,5.6,10.6,5.5C10.7,5.6,10.7,5.5,10.6,5.5C10.7,5.4,10.6,5.5,10.6,5.5z"/>
	<path class="st3" d="M10,5.2C10,5.2,10,5.2,10,5.2C9.9,5.3,9.9,5.3,9.9,5.4c0,0,0,0.1,0,0.1c0,0,0.1,0,0.1-0.1l0.1,0
		c0,0,0.1,0,0.1-0.1C10.2,5.2,10.1,5.2,10,5.2z"/>
	<path class="st3" d="M12,4.5C12,4.5,11.9,4.5,12,4.5C11.9,4.6,12,4.6,12,4.5C12,4.6,12,4.6,12,4.5c0.1,0.1,0.1,0.1,0.1,0.1
		c0,0,0,0,0,0C12.1,4.6,12.1,4.6,12,4.5C12,4.5,12,4.5,12,4.5z"/>
	<path class="st3" d="M13.1,4.9C13.1,5,13.1,5,13.1,4.9c0,0.1-0.1,0.2,0.1,0.1c0,0,0.1,0,0.1-0.1c0.1,0,0.1,0,0.1,0c0,0,0,0,0.1,0
		c0,0,0,0,0,0c-0.1,0-0.1,0-0.2,0C13.2,4.9,13.2,4.9,13.1,4.9z"/>
	<path class="st3" d="M13.2,4.5C13.2,4.5,13.1,4.5,13.2,4.5c-0.1,0-0.1,0.1-0.1,0.1C13.1,4.6,13.1,4.6,13.2,4.5
		c0,0.1,0.1,0.1,0.1,0.1C13.3,4.6,13.3,4.5,13.2,4.5C13.2,4.5,13.2,4.5,13.2,4.5z"/>
	<path class="st3" d="M13.4,5.3C13.4,5.3,13.3,5.3,13.4,5.3c-0.1,0-0.1,0-0.1,0C13.3,5.4,13.3,5.4,13.4,5.3c0,0.1,0.1,0.1,0.1,0.1
		C13.5,5.4,13.5,5.3,13.4,5.3C13.4,5.3,13.4,5.3,13.4,5.3z"/>
	<path class="st3" d="M13.4,5.6C13.4,5.6,13.3,5.6,13.4,5.6c-0.1,0-0.1,0.1-0.1,0.1c0,0,0.1,0,0.1,0.1c0,0,0.1,0,0.1,0
		C13.5,5.7,13.5,5.6,13.4,5.6C13.4,5.6,13.4,5.6,13.4,5.6z"/>
	<path class="st3" d="M13.4,5.9c0,0-0.1,0-0.1,0c0,0,0,0.1,0,0.1c0,0,0.1,0,0.1,0.1c0,0,0.2,0.1,0.1,0C13.5,5.9,13.5,5.9,13.4,5.9
		C13.5,5.9,13.5,5.9,13.4,5.9z"/>
	<path class="st3" d="M13.4,6.2c0,0-0.1,0-0.1,0c0,0,0,0.1,0,0.1c0,0,0.1,0,0.1,0.1c0,0,0.2,0.1,0.1,0C13.5,6.3,13.5,6.3,13.4,6.2
		C13.5,6.2,13.5,6.2,13.4,6.2z"/>
	<path class="st3" d="M13.4,6.9C13.4,6.9,13.3,6.9,13.4,6.9c-0.1,0-0.1,0.1-0.1,0.1c0,0,0.1,0,0.1,0.1c0,0,0.2,0.1,0.1,0
		C13.5,7,13.5,6.9,13.4,6.9C13.4,6.9,13.4,6.9,13.4,6.9z"/>
	<path class="st3" d="M13.4,6.5c0,0-0.1,0-0.1,0c-0.1,0,0,0.1,0,0.1c0,0,0.1,0.1,0.1,0.1c0.1,0,0.2,0.1,0.2,0
		C13.5,6.7,13.5,6.6,13.4,6.5C13.5,6.6,13.4,6.6,13.4,6.5z"/>
	<path class="st3" d="M13.4,7.2C13.3,7.2,13.3,7.2,13.4,7.2c-0.1,0-0.1,0-0.1,0C13.3,7.2,13.3,7.3,13.4,7.2c0,0.1,0.1,0.1,0.1,0.1
		C13.4,7.3,13.4,7.2,13.4,7.2C13.4,7.2,13.4,7.2,13.4,7.2z"/>
	<path class="st3" d="M13.3,7.5C13.3,7.5,13.3,7.5,13.3,7.5C13.2,7.5,13.2,7.5,13.3,7.5C13.2,7.5,13.3,7.6,13.3,7.5
		C13.3,7.6,13.4,7.6,13.3,7.5C13.4,7.5,13.4,7.5,13.3,7.5C13.3,7.5,13.3,7.5,13.3,7.5z"/>
	<path class="st3" d="M13.2,7.7C13.2,7.7,13.2,7.7,13.2,7.7C13.1,7.8,13.2,7.8,13.2,7.7C13.2,7.8,13.2,7.8,13.2,7.7
		C13.3,7.8,13.3,7.8,13.2,7.7C13.3,7.8,13.3,7.8,13.2,7.7C13.3,7.7,13.3,7.7,13.2,7.7z"/>
	<path class="st3" d="M13.2,8C13.2,8,13.1,8,13.2,8C13.1,8,13.1,8,13.2,8C13.1,8,13.1,8,13.2,8C13.2,8,13.3,8.1,13.2,8
		C13.2,8,13.2,8,13.2,8C13.2,8,13.2,8,13.2,8z"/>
	<path class="st3" d="M13.1,8.2C13.1,8.2,13.1,8.2,13.1,8.2C13,8.2,13,8.2,13.1,8.2C13.1,8.3,13.1,8.3,13.1,8.2
		C13.1,8.3,13.2,8.3,13.1,8.2C13.2,8.2,13.1,8.2,13.1,8.2C13.1,8.2,13.1,8.2,13.1,8.2z"/>
	<path class="st3" d="M13,8.5C13,8.4,13,8.4,13,8.5C12.9,8.5,13,8.5,13,8.5C13,8.5,13,8.5,13,8.5C13,8.5,13.1,8.5,13,8.5
		C13.1,8.5,13,8.5,13,8.5L13,8.5z"/>
	<path class="st3" d="M12.9,8.7C12.9,8.7,12.9,8.7,12.9,8.7C12.9,8.7,12.9,8.7,12.9,8.7C12.9,8.7,12.9,8.7,12.9,8.7
		C12.9,8.7,13,8.7,12.9,8.7C13,8.7,13,8.7,12.9,8.7L12.9,8.7z"/>
	<path class="st3" d="M6.8,9.8c0,0,0,0.1,0,0.1C6.8,10,6.9,9.9,6.8,9.8C6.9,9.9,7,9.8,6.9,9.7C6.9,9.7,6.9,9.8,6.8,9.8z"/>
	<path class="st2" d="M10.4,17.8C10.4,17.8,10.4,17.8,10.4,17.8C10.3,17.8,10.3,17.8,10.4,17.8c-0.1,0-0.2,0.1-0.2,0.1
		c-0.1,0-0.1,0-0.2,0l-0.1,0c-0.1,0-0.2-0.1-0.3-0.1c-0.2,0-0.3,0.1-0.5,0.2c-0.1,0.1-0.1,0.1-0.1,0.2c0,0.1,0,0.2,0,0.3
		c0.1,0.1,0.2,0.2,0.3,0.3c0.1,0.1,0.2,0.1,0.2,0.1L9.8,19l0.2,0.1c0,0,0.3,0.1,0.4,0.4s-0.1,0.6-0.6,0.6c-0.5,0-0.7-0.2-0.8-0.3
		c0-0.1-0.1-0.2,0-0.3l0,0h0c0,0,0.1,0,0.1,0c0.1,0,0.2-0.1,0.2-0.2c0-0.1-0.1-0.2-0.2-0.2c-0.1,0-0.3,0.1-0.3,0.5
		c0,0.2,0.1,0.5,0.3,0.6c0.2,0.1,0.3,0.1,0.5,0.1c0.2,0,0.4-0.1,0.5-0.1c0.2-0.1,0.4-0.4,0.4-0.7c0-0.2-0.1-0.5-0.3-0.6
		c-0.1,0-0.1-0.1-0.2-0.1l-0.3-0.2l-0.2-0.1l-0.1-0.1l-0.1-0.1c0,0-0.2-0.1-0.1-0.3c0.1-0.2,0.4-0.1,0.4-0.1
		c0.3,0.1,0.5,0.2,0.7,0.4l0.1,0.1v0l0.1,0c0-0.1-0.1-0.2-0.1-0.4C10.4,18,10.4,17.8,10.4,17.8z"/>
	<path class="st2" d="M13.1,19.4c0,0,0.1,0.1,0.1,0.1c0.1,0,0.2-0.1,0.2-0.2v0c0-0.1-0.1-0.2-0.2-0.2c-0.1,0-0.3,0-0.3,0.2
		c-0.1,0.1-0.1,0.3-0.1,0.4c0.1,0.2,0.2,0.4,0.4,0.5c0.2,0.1,0.5,0.1,0.7,0c0.2-0.1,0.4-0.2,0.5-0.3c0.1-0.2,0.3-0.4,0.3-0.6
		l0.1-0.2H15c0.1,0,0.2,0,0.2-0.1c0.1-0.1,0.1-0.1,0.2-0.2l0,0l-0.1,0c0,0.1-0.1,0.1-0.2,0.1c-0.1,0-0.1,0-0.2,0l0.1-0.2
		c0,0,0.1-0.2,0.1-0.3l0.2-0.2c0.2,0,0.3,0,0.5-0.1c0.1,0,0.3-0.1,0.4-0.1l0.3-0.1l0.1,0l0-0.1c-0.2,0.1-0.5,0.1-0.7,0.1
		c-0.2,0-0.4,0-0.7,0l-0.5-0.1c-0.1,0-0.2,0-0.2,0c-0.1,0-0.2,0-0.3,0c-0.1,0-0.2,0.1-0.3,0.1c-0.1,0.1-0.3,0.3-0.2,0.5
		c0.1,0.3,0.6,0.1,0.6-0.1l0-0.1v-0.1l0,0l0,0.1c0,0-0.2,0.1-0.3,0.1c-0.1,0-0.1-0.1,0-0.2l0,0c0.1-0.1,0.2-0.1,0.2-0.1
		c0.1,0,0.3,0,0.4,0l0.3,0.1l0.2,0h0.1L15,18.2c-0.1,0.1-0.2,0.2-0.2,0.3c-0.1,0.2-0.1,0.3-0.1,0.3v0c-0.1,0-0.1,0-0.2,0.1
		c0,0-0.1,0.1-0.1,0.1l0,0.1l0,0c0,0,0.1-0.1,0.1-0.1c0,0,0.1,0,0.1,0c0,0-0.1,0.2-0.1,0.3c-0.1,0.1-0.1,0.3-0.2,0.4
		c-0.1,0.1-0.3,0.2-0.4,0.3c-0.2,0-0.4-0.1-0.5-0.2c-0.1-0.1-0.1-0.2-0.1-0.3C13.1,19.5,13.1,19.4,13.1,19.4z"/>
	<polygon class="st4" points="3.3,2.4 3.3,1.8 12,0.2 20.7,1.8 20.7,2.4 12,0.8 	"/>
	<polygon class="st5" points="3.3,2.4 3.3,2.9 12,1.3 20.7,2.9 20.7,2.4 12,0.8 	"/>
	<path class="st6" d="M12,2.3c5.4,0,8.7,1.9,8.7,1.9l0-1.3L12,1.3L3.3,2.9l0,1.3C3.3,4.2,6.6,2.3,12,2.3z"/>
</g>
</svg>
