<svg width="325.511" height="145.551" xmlns="http://www.w3.org/2000/svg">
 <defs>
  <linearGradient id="a" x1="0.28898" y1="-1.00221" x2="0.71096" y2="2.00139">
   <stop offset="0" stop-color="#396"/>
   <stop offset="1" stop-color="#004f32"/>
   <stop offset="1" stop-color="#004f32"/>
  </linearGradient>
 </defs>
 <g>
  <title>Layer 1</title>
  <g stroke="null" id="svg_5">
   <path stroke="null" d="m163.75413,98.03956c-0.47802,0 -0.82909,0.37175 -0.83311,0.38011c-0.02089,0.01754 -8.48296,8.41414 -8.48296,8.41414c-3.12035,3.13191 -7.26342,1.82117 -7.70608,1.66829c0,0 -36.17087,-10.26037 -36.17569,-10.26371c-6.9027,-2.16535 -8.27408,-4.50113 -9.33053,-7.33814c0,0 -0.61379,-1.76353 -2.11612,-2.2255c0,0 -44.21599,-13.49754 -44.22,-13.49754c-1.80441,-0.57893 -2.79739,-1.10857 -3.50678,-2.53711c0,0 -2.42703,-4.44349 -2.43506,-4.45602c-0.53827,-1.06513 -1.51358,-1.17791 -1.56982,-1.18627c-3.3445,-0.46949 -4.32463,-2.40846 -4.73918,-3.23383l-1.97231,-3.60224c-0.617,-1.11609 -1.49912,-1.21049 -1.52643,-1.21383c-1.90162,-0.12531 -2.80623,-0.62404 -3.59274,-1.96653c0,0 -1.92813,-3.33491 -1.93616,-3.35162c-0.948,-1.82117 -0.62021,-3.12439 -0.18317,-3.89797c0.92229,-1.58642 2.60779,-1.70672 3.28424,-1.73178l105.72888,0c2.99342,0 5.41242,0.94317 7.20075,2.80861c1.28462,1.33079 2.16914,3.06758 2.62707,5.15942c0.00803,0.04929 0.13256,0.4862 1.03717,0.4862l20.89769,0c0.90542,0 1.02914,-0.43608 1.03717,-0.4862c0.45793,-2.09184 1.34246,-3.82863 2.62707,-5.15942c1.78834,-1.86545 4.20653,-2.80861 7.20156,-2.80861l105.72888,0c0.67645,0.02423 2.36115,0.14536 3.28264,1.73095c0.43785,0.77358 0.76482,2.0768 -0.18317,3.89797c-0.00803,0.01671 -1.93616,3.35162 -1.93616,3.35162c-0.78652,1.34249 -1.69033,1.84122 -3.59274,1.96653c-0.02651,0.00334 -0.91024,0.09774 -1.52643,1.21383l-1.97231,3.60224c-0.41455,0.82537 -1.39468,2.76433 -4.73837,3.23383c-0.05624,0.00835 -1.03155,0.12113 -1.57062,1.18627c-0.00803,0.01253 -2.43426,4.45602 -2.43426,4.45602c-0.70939,1.42853 -1.70238,1.95901 -3.50598,2.53711c-0.00321,0 -44.22,13.49754 -44.22,13.49754c-1.50233,0.46198 -2.11612,2.2255 -2.11612,2.2255c-1.05565,2.83701 -2.42703,5.17279 -9.33053,7.33814c-0.00402,0.00334 -36.17569,10.26371 -36.17569,10.26371c-0.44267,0.15288 -4.58573,1.46362 -7.70608,-1.66829c0,0 -8.46127,-8.39743 -8.48376,-8.41414c-0.00321,-0.00835 -0.35429,-0.38011 -0.83231,-0.38011l-0.00241,0l0,0.00084z" id="svg_1"/>
   <path stroke="null" fill="#FFF" d="m177.16185,56.41414c0.37036,-1.70338 1.07734,-3.10017 2.09282,-4.15694c1.40593,-1.46445 3.36458,-2.20963 5.81009,-2.20963l48.57034,0c-1.66944,1.29905 -2.54593,2.94227 -2.60458,3.05171a78.74072,81.87828 0 0 1 -2.10086,3.81527l-51.93894,0c0.10765,-0.19632 0.17192,-0.5004 0.17112,-0.5004zm115.00479,-3.76431l-1.89599,3.27894c-0.35429,0.60817 -0.57362,0.88302 -2.03096,0.97909l-57.52087,0.00835a82.71427,86.01016 0 0 0 1.65819,-3.05589c0.01607,-0.03091 2.05346,-3.80691 5.67111,-3.80691l52.69412,-0.00501c0.55273,0.02423 1.27096,0.08855 1.65096,0.741c0.04579,0.08772 0.15425,0.26983 0.15425,0.59815c0,0.29072 -0.08918,0.70424 -0.38081,1.26229zm-7.03445,6.50024l-2.00847,3.66657c-0.27395,0.54217 -0.69654,1.38008 -2.03819,1.8621c-1.12153,0.29155 -3.35334,0.1061 -4.12619,0.00835l-48.92544,-3.38002c0.63227,-0.97491 1.21954,-1.91306 1.75299,-2.8036l55.76788,0c-0.14622,0.19298 -0.28922,0.40266 -0.42258,0.6466zm-8.31746,8.07747c0.01285,-0.01587 -1.92411,3.5304 -2.32661,4.26638c-0.09882,0.13784 -0.64994,0.76021 -2.44149,0.51293l-46.88243,-6.5395c0.64271,-0.87383 1.25168,-1.74097 1.82288,-2.57888l49.80193,3.436c0.07311,0.00919 0.28279,0.03342 0.58246,0.06098a4.19127,4.35828 0 0 0 -0.55675,0.84208zm-16.12397,9.46256c-1.76504,0.4862 -5.21719,-0.06433 -6.41585,-0.3233l-32.215,-6.88536c0.70537,-0.8613 1.38182,-1.71507 2.02373,-2.5605l47.08167,6.57125l-10.47455,3.19791zm-15.96891,4.87288c-2.26555,0.63073 -5.22201,-0.3893 -5.25013,-0.39765l-0.03535,-0.0117s-0.00402,-0.00418 -0.00803,-0.00418l-21.56209,-6.91627a84.32024,87.68013 0 0 0 3.04082,-3.37501l33.05936,7.0658c0.0723,0.0117 0.74956,0.15705 1.69997,0.29573l-10.94454,3.34327zm-16.8438,5.14439c-1.53045,0.43274 -3.78716,-0.4862 -4.53592,-0.87884c0,0 -5.76992,-2.80861 -11.6949,-5.69074a78.97129,82.11804 0 0 0 4.98983,-4.63312l22.36066,7.17524c0.04338,0.01671 0.4499,0.15455 1.07252,0.29991l-12.19219,3.72755zm-3.45135,3.50868c-0.65155,1.73596 -1.33201,3.52455 -5.91855,5.31648c-1.89358,0.61151 -4.14547,-1.12946 -4.16476,-1.14867c-0.00803,-0.00835 -5.11436,-3.80858 -10.92927,-8.13511a75.66777,78.68288 0 0 0 6.9027,-5.00571l12.35528,6.01404c0.06829,0.03592 1.34246,0.70508 2.88576,1.00415c-0.73751,0.87383 -1.07172,1.77689 -1.13117,1.95483zm-17.28245,8.68564l-1.72166,0.48537c-1.45011,0.36089 -3.21917,-1.1328 -3.78475,-1.7535c0,0 -2.77891,-3.0066 -6.34997,-6.88369a72.16259,75.03804 0 0 0 6.69542,-3.60558l11.45147,8.5194c0.0466,0.0401 0.70055,0.54969 1.6614,0.98326c-2.54352,0.72011 -7.95192,2.25391 -7.95192,2.25474zm-15.13982,4.29395c-1.2091,0.19799 -2.61181,-1.86545 -3.01832,-2.63485l-3.45376,-6.07836a70.92377,73.74985 0 0 0 8.25962,-3.05171l6.7364,7.30974c0.05945,0.06098 0.80499,0.86547 1.88635,1.50121l-10.41028,2.95397zm-11.46513,3.24887c-0.81383,0.19465 -1.50073,0.10944 -2.09122,-0.26148c-1.26694,-0.80616 -1.68872,-2.65991 -1.71202,-2.76851l-1.76183,-6.60968a76.06384,79.09473 0 0 0 9.03006,-1.88132l3.6538,6.43174c0.12533,0.22973 0.86685,1.57389 1.97794,2.51288l-9.09675,2.57637zm-7.43052,-2.39843s-4.89905,-4.86119 -6.56045,-6.50525c2.33143,-0.08438 4.63233,-0.26232 6.89145,-0.538l1.80119,6.75838c0.05142,0.23475 0.41133,1.71674 1.41155,2.89466c-1.38022,-0.40851 -1.79878,-0.83373 -3.54374,-2.60979zm-8.5882,-8.05157l0,-20.59091l3.16052,0l5.34413,20.04957c-2.78132,0.33165 -5.61567,0.51377 -8.50465,0.54134zm-10.03912,-0.54134l5.34734,-20.04957l3.16133,0l0,20.58841c-2.8946,-0.02506 -5.72815,-0.21052 -8.50867,-0.53883zm-1.40352,9.89948a5.01635,5.21623 0 0 1 -2.22458,1.30406c1.00745,-1.18209 1.35772,-2.66743 1.41075,-2.898l1.802,-6.74668c2.25912,0.27067 4.56002,0.44861 6.89065,0.52964c-1.86627,1.84456 -7.87881,7.81098 -7.87881,7.81098zm-2.30733,-1.95066c0,0.02005 -0.41535,1.95483 -1.71523,2.78104c-0.58969,0.37092 -1.27417,0.45696 -2.088,0.26148l-9.09755,-2.57721c1.11108,-0.944 1.86064,-2.28732 1.98919,-2.53376c-0.00402,0.00418 1.5409,-2.7117 3.63693,-6.40667a75.13271,78.12651 0 0 0 9.03569,1.87714l-1.76102,6.59798zm-15.26916,-0.20634l-10.40948,-2.95481c1.07975,-0.63908 1.82851,-1.4444 1.88555,-1.50455c0,0 2.97574,-3.23132 6.73559,-7.3064a71.56889,74.42068 0 0 0 8.25721,3.05589l-3.4393,6.05915c-0.41856,0.78444 -1.82128,2.84871 -3.02957,2.65072zm-13.42057,-3.80858l-9.67197,-2.74011a8.58338,8.9254 0 0 0 1.67747,-0.9958c-0.00803,0.00835 5.40358,-4.0191 11.4354,-8.50603a72.90412,75.80911 0 0 0 6.69944,3.60475l-6.35398,6.88369c-0.56478,0.6207 -2.33464,2.11439 -3.78636,1.7535zm-13.0944,-3.8537c-4.56806,-1.79277 -5.25254,-3.57634 -5.90168,-5.30812a6.2391,6.48771 0 0 0 -1.13679,-1.96319a11.95359,12.4299 0 0 0 2.90906,-1.01668c-0.01285,0.00418 6.17804,-3.00242 12.3352,-6.00234a73.99913,76.94776 0 0 0 6.89788,5.00571l-10.9124,8.11924c-0.03535,0.03676 -2.29769,1.78525 -4.19127,1.16538zm-9.35463,-8.82599c-0.46114,-0.14285 -5.58755,-1.70839 -12.19541,-3.72755a10.83045,11.26201 0 0 0 1.091,-0.30826c-0.01928,0.00835 18.11958,-5.81103 22.34379,-7.16689a79.67184,82.84651 0 0 0 4.98983,4.62978l-11.67481,5.68238c-0.77205,0.40433 -3.02395,1.32327 -4.5544,0.89054zm-16.83497,-5.14104a12996.38435,13514.24801 0 0 1 -10.9598,-3.34661a26.44909,27.503 0 0 0 1.70639,-0.29991c-0.00321,0.00501 23.33918,-4.98566 33.05936,-7.06079a91.51698,95.16363 0 0 0 3.0376,3.37501l-21.58619,6.92462c-0.04901,0.01504 -2.99261,1.03172 -5.25736,0.40767zm-15.9657,-4.87121a4211.78054,4379.6063 0 0 0 -10.48901,-3.20292l47.08809,-6.57125c0.64271,0.84125 1.31595,1.69502 2.02052,2.55799l-32.21901,6.8887c-1.19544,0.25814 -4.63233,0.80867 -6.40058,0.32748zm-11.36631,-4.68742c-1.78111,0.24728 -2.34027,-0.36423 -2.4431,-0.50959l-2.34348,-4.29061a4.04344,4.20456 0 0 0 -0.54309,-0.82036c0.30047,-0.0284 50.39403,-3.49782 50.39403,-3.49782a89.48119,93.04673 0 0 0 1.81806,2.57804l-46.88243,6.54034zm-9.03971,-7.32979c-1.34326,-0.48119 -1.76906,-1.31909 -2.04382,-1.8621c-0.82106,-1.45192 -1.90162,-3.62229 -2.43265,-4.314l55.77672,0a86.28291,89.72101 0 0 0 1.75379,2.8036l-48.93267,3.38002c-0.76804,0.09858 -3.00065,0.28404 -4.12137,-0.00752zm-7.14211,-7.76336c-1.34326,-0.10442 -1.62927,-0.26983 -2.05185,-0.99162c0.00482,0.00501 -1.75299,-3.03333 -1.89278,-3.27309c-0.29163,-0.55805 -0.38804,-0.97157 -0.37518,-1.26312c0.03214,-0.74518 0.51979,-1.31909 1.802,-1.33998l52.69653,0.00501c3.56704,0 5.6703,3.80775 5.6703,3.80775a80.36276,83.56495 0 0 0 1.66221,3.05505l-57.51123,0zm103.15724,-6.86781c2.45033,0 4.40336,0.74518 5.81089,2.21047c1.01628,1.05594 1.72085,2.45273 2.09604,4.15694c0,0 0.07552,0.29155 0.17192,0.50124l-51.93814,0c-0.79375,-1.35502 -2.10246,-3.81527 -2.10246,-3.81527c-0.05704,-0.1086 -0.93514,-1.75267 -2.60538,-3.05171l48.56713,-0.00167zm75.21064,10.54775l0,-2.09267l10.32673,0a85.4731,88.87892 0 0 1 -1.71362,2.6833l-8.61311,-0.59063zm0,3.8278l0,-2.17621l7.54059,0.51795c-0.55675,0.80449 -1.15286,1.62569 -1.77388,2.46443l-5.76671,-0.80616zm0,4.12102l0,-2.51789l4.66366,0.65161c-0.62584,0.80616 -1.28381,1.619 -1.9691,2.4402c-1.20267,-0.25814 -2.12978,-0.45279 -2.69456,-0.57392zm0,1.62318l1.52242,0.32246a67.28764,69.96883 0 0 1 -1.52242,1.6967l0,-2.01916zm-15.73192,5.23712l12.60353,0c-1.28462,1.32745 -4.3166,3.8963 -4.41622,3.98235c-3.06412,-1.49453 -6.05271,-2.94311 -8.18731,-3.98235zm-13.08074,0l9.47193,0l10.44724,5.0834a74.37512,77.33872 0 0 1 -6.69783,4.75843c-5.04205,-3.75512 -10.35405,-7.70906 -13.22133,-9.84183zm-7.70608,0l5.08142,0l14.40231,10.72485a69.84402,72.62707 0 0 1 -6.45441,3.39924c-4.74239,-5.13937 -10.45527,-11.33636 -13.02932,-14.12409zm-6.43673,0l4.31499,0l13.64632,14.79659a70.69802,73.5151 0 0 1 -7.93023,2.86542l-10.03108,-17.662zm-1.77789,0l10.28013,18.08973a73.87139,76.81493 0 0 1 -8.63721,1.76102l-5.29271,-19.85158l3.64979,0l0,0.00084zm-18.32846,0l3.64979,0l-5.29271,19.85158a74.64184,77.61608 0 0 1 -8.63721,-1.75684c3.85144,-6.77425 8.9907,-15.82496 10.28013,-18.09474zm-6.09369,0l4.3166,0l-10.03189,17.662a69.23987,71.99885 0 0 1 -7.93184,-2.87043c5.47187,-5.92883 12.05723,-13.06815 13.64713,-14.79157zm-7.20236,0l5.08142,0l-13.0245,14.12409a70.25856,73.05814 0 0 1 -6.46083,-3.39924c6.25035,-4.65401 12.76581,-9.50684 14.40392,-10.72485zm-23.89352,3.98235c-0.11488,-0.09691 -3.13401,-2.7351 -4.41622,-3.98235l12.60192,0l-8.18571,3.98235zm11.79693,-3.98235l9.46952,0l-13.22053,9.83849a73.35964,76.28278 0 0 1 -6.69542,-4.75509c4.96252,-2.41681 9.55869,-4.65067 10.44644,-5.0834zm-19.35358,-5.23712l0,2.00245a67.75682,70.45671 0 0 1 -1.50635,-1.68082c0.60495,-0.13116 1.11108,-0.23725 1.50635,-0.32163zm0,-4.14107l0,2.51706l-2.6817,0.57475a92.8265,96.52533 0 0 1 -1.96428,-2.4402l4.64598,-0.65161zm0,-3.77934l0,2.17621l-5.75064,0.80616a89.83951,93.41932 0 0 1 -1.76906,-2.46443l7.5197,-0.51795zm0,-1.65158l-8.59142,0.59063a77.31551,80.39628 0 0 1 -1.71523,-2.6833l10.30665,0l0,2.09267z" id="svg_2"/>
   <path stroke="null" fill="url(#a)" d="m111.39743,73.81299l-0.02249,-0.02423l0,-15.27861l104.74956,0l0,15.28613c-0.00321,0.00835 -0.00803,0.00835 -0.01125,0.01253l-104.71581,0.00418z" id="svg_3"/>
   <path stroke="null" fill="#FFF" d="m118.33467,60.11495l-0.43704,0l-4.47647,10.41325l1.21231,0l0.01928,-0.06015c0.36233,-1.2673 0.82909,-2.48113 1.2822,-3.64568l0.094,-0.24728l3.46179,0a52.7359,54.83725 0 0 1 1.45975,3.8963l0.02008,0.05681l1.67345,0l-4.30937,-10.41325zm-1.96669,5.66568c0.09159,-0.22973 1.26614,-3.09181 1.40593,-3.43098c0.13818,0.33917 1.33603,3.20125 1.43003,3.43098l-2.83595,0zm6.75809,4.00657l0.03696,0.0401c0.52863,0.59982 1.72085,0.87968 2.36196,0.87968c2.10005,0 3.57105,-1.40932 3.57105,-3.43098c0,-1.67665 -1.22034,-2.17037 -2.39972,-2.65573c-1.04762,-0.43357 -2.04382,-0.83373 -2.04382,-2.07179c0,-0.93982 0.7126,-1.619 1.68952,-1.619c0.78089,0 1.37058,0.42856 1.66944,1.213l0.02008,0.05597l0.26672,0l0.41856,-1.31408l-0.0466,-0.04511c-0.5704,-0.53466 -1.44851,-0.72429 -2.07354,-0.72429c-1.95785,0 -3.22078,1.13698 -3.22078,2.90218c0,1.79694 1.28863,2.31823 2.42301,2.78856c1.02592,0.41269 1.98838,0.8095 1.98838,2.04422c0,1.14533 -0.82106,2.04756 -1.86707,2.04756c-0.95844,0 -1.59392,-0.4294 -2.21333,-1.48116l-0.0241,-0.0401l-0.26672,0l-0.29002,1.41099zm13.87368,-9.45755l-7.36384,0l0,1.07265l0.0948,-0.00835a26.35911,27.40944 0 0 1 2.99342,-0.17878l0,9.34561l1.41476,0l0,-9.3406c1.00022,0 1.95544,0.05931 2.84881,0.17376l0.09962,0.0117l0,-1.07599l-0.08757,0zm5.07339,-0.2147c-3.12357,0 -5.30878,2.18958 -5.30878,5.31815c0,3.15614 2.12496,5.27304 5.28146,5.27304c3.26336,0 5.45982,-2.21047 5.45982,-5.49609c0.0008,-3.52121 -2.72991,-5.0951 -5.4325,-5.0951zm2.61502,8.77419c-0.69493,0.76439 -1.5666,1.15369 -2.60378,1.15369c-2.28644,0 -3.76547,-1.7393 -3.76547,-4.43096c0,-2.98237 1.4943,-4.83278 3.89401,-4.83278c1.13197,0 2.20048,0.51795 2.86086,1.38342c0.72546,0.96321 0.87328,1.96736 0.87328,3.1695c0.00402,0.06516 0.00803,0.13784 0.00803,0.20718c0,0.97825 -0.38322,2.36669 -1.26694,3.34995zm12.62602,-8.5595l-0.8773,0l0,7.54783l-0.01607,0c-0.05061,-0.06098 -6.70024,-7.54783 -6.70024,-7.54783l-0.67645,0l0,10.19855l0.96487,0l0,-7.89201l0.02008,0c0.05142,0.06098 6.06075,6.97809 6.06075,6.97809l0.75358,0.91476l0.55835,0l0,-10.19939l-0.08757,0zm15.8476,0l-0.34706,0l-2.37561,4.47941s-1.50314,2.84955 -1.63971,3.10518c-1.46538,-2.54212 -2.78534,-5.21707 -3.90848,-7.53613l-0.0233,-0.04845l-0.4989,0l-0.00803,0.08521c-0.13979,1.50622 -0.98335,7.64474 -1.3521,10.01226l-0.01928,0.10108l1.18901,0l0,-0.08772c0,-1.43689 0.24503,-3.57885 0.50533,-5.84946l0.15666,-1.40431c0.1663,0.33082 2.01168,3.97483 2.71625,5.47604l0.79776,1.70839l0.26672,0l0.02249,-0.05681c0.82026,-1.95985 1.97874,-4.19704 3.56382,-7.1435c0.22414,1.75684 0.5214,5.26552 0.68609,7.27632l0.00884,0.08187l1.50233,0l-0.01285,-0.10108c-0.33903,-2.47362 -0.70939,-5.74754 -1.14242,-10.01226l-0.00884,-0.08521l-0.07873,0l0,-0.00084zm6.72595,-0.2147l-0.44026,0l-4.47808,10.41325l1.21954,0l0.01607,-0.06015c0.36393,-1.279 0.83311,-2.49701 1.28863,-3.67158c0,0 0.05624,-0.14536 0.08355,-0.22222l3.4642,0a53.06047,55.17476 0 0 1 1.45734,3.8963l0.01928,0.05681l1.67506,0l-4.30535,-10.41241zm-1.9691,5.66568c0.09159,-0.22973 1.26694,-3.09181 1.40753,-3.43098l1.43003,3.43098l-2.83756,0zm10.5814,-0.29072c1.76986,-0.37175 2.82872,-1.42018 2.82872,-2.83701c0,-1.55718 -1.05163,-2.32241 -3.21837,-2.32241l-3.07376,0l0,10.19855l1.41155,0l0,-4.88875l0.41214,0a390.02811,405.56946 0 0 0 1.09823,1.3475c-0.00482,-0.00501 1.66221,2.23803 1.66221,2.23803l0.91265,1.30322l1.84859,0c0,-0.00084 -3.71406,-4.82443 -3.88196,-5.03913zm-2.05185,-0.58227l0,-3.85286c0.58165,-0.0284 1.48385,-0.0685 1.97312,0.01337c0.97933,0.16457 1.47662,0.75938 1.47662,1.75851c0,1.02503 -0.64673,1.77272 -1.73692,2.00078c-0.61298,0.12782 -1.35371,0.10442 -1.71282,0.0802zm13.04539,-4.57799l-7.36705,0l0,1.07265l0.09641,-0.00835a26.38,27.43116 0 0 1 2.9902,-0.17878l0,9.34561l1.42199,0l0,-9.3406c0.9962,0 1.95384,0.05931 2.84801,0.17376l0.09882,0.0117l0,-1.07599l-0.08837,0zm1.25087,10.19855l1.33443,0l0,-10.19855l-1.33443,0l0,10.19855zm10.80796,-10.19855l0,7.54783l-0.01205,0c-0.05222,-0.06098 -6.70024,-7.54783 -6.70024,-7.54783l-0.67806,0l0,10.19855l0.96567,0l0,-7.89201l0.01687,0c0.05142,0.06098 6.06878,6.97809 6.06878,6.97809l0.75358,0.91476l0.55032,0l0,-10.19939l-0.96487,0z" id="svg_4"/>
  </g>
 </g>
</svg>