<?xml version="1.0" encoding="utf-8"?>
<!-- Generator: Adobe Illustrator 25.2.1, SVG Export Plug-In . SVG Version: 6.00 Build 0)  -->
<svg version="1.1" id="Capa_1" xmlns="http://www.w3.org/2000/svg" xmlns:xlink="http://www.w3.org/1999/xlink" x="0px" y="0px"
	 width="24px" height="24px" viewBox="0 0 24 24" style="enable-background:new 0 0 24 24;" xml:space="preserve">
<style type="text/css">
	.st0{fill-rule:evenodd;clip-rule:evenodd;fill:#E3032E;}
</style>
<path class="st0" d="M13.3,1.9C7.8,1.9,3.2,6.4,3.2,12c0,0,0,0,0,0c0,0.2,0,0.4,0,0.6H1.9c-0.1,0-0.1,0-0.1,0.1
	c0,0.1-1.2,2.1-1.2,2.2s0,0.1,0,0.1h3.1c1.6,5.4,7.3,8.4,12.6,6.8c5.4-1.6,8.4-7.3,6.8-12.6C21.8,4.8,17.8,1.9,13.3,1.9z M6.1,14.9
	h2.7l-1.3,2.3C6.9,16.5,6.4,15.8,6.1,14.9z M13.3,19.8c-2,0-4-0.8-5.5-2.2h2.2c0,0,6.3-11.1,6.3-11.2c0,0,0-0.1,0-0.1h-2.6
	c-0.1,0-0.1,0-0.1,0c0,0-3.6,6.2-3.6,6.2H5.6c0-0.2,0-0.4,0-0.6c0-4.3,3.5-7.8,7.8-7.8c2.1,0,4.2,0.9,5.6,2.4
	c-0.6,1-3.4,5.7-3.8,6.4c-0.2-0.5-1.2-0.4-1.7-0.4c-0.2,0.4-1.3,2.4-1.3,2.4s0.6,0,1.1,0c0.5,0,0.6,0.5,0.4,0.9
	c-0.2,0.3-1,1.8-1,1.8h2.6l5.1-8.9c0.5,1,0.8,2.2,0.8,3.3C21.2,16.3,17.7,19.8,13.3,19.8z"/>
</svg>
